<?xml version="1.0" standalone="no"?>
<!DOCTYPE svg PUBLIC "-//W3C//DTD SVG 20010904//EN"
 "http://www.w3.org/TR/2001/REC-SVG-20010904/DTD/svg10.dtd">
<svg version="1.0" xmlns="http://www.w3.org/2000/svg"
 width="128.000000pt" height="128.000000pt" viewBox="0 0 128.000000 128.000000"
 preserveAspectRatio="xMidYMid meet">
<metadata>
Created by potrace 1.14, written by Peter Selinger 2001-2017
</metadata>
<g transform="translate(0.000000,128.000000) scale(0.100000,-0.100000)"
fill="#000000" stroke="none">
<path d="M802 1006 c-152 -50 -202 -219 -98 -328 37 -39 66 -52 200 -92 153
-45 180 -70 149 -134 -20 -41 -56 -57 -128 -57 -78 0 -111 21 -139 87 l-21 50
-44 -6 c-24 -3 -57 -6 -74 -6 -28 0 -29 -1 -22 -37 10 -57 44 -120 81 -153 60
-53 98 -64 220 -64 104 -1 114 1 169 29 83 43 120 102 120 195 0 124 -66 191
-233 235 -117 31 -173 55 -181 78 -19 51 29 87 116 87 60 0 99 -22 114 -65
l13 -35 79 0 79 0 -7 37 c-15 81 -60 137 -135 170 -49 21 -204 27 -258 9z"/>
<path d="M60 640 l0 -370 280 0 280 0 0 65 0 65 -205 0 -205 0 0 95 0 95 185
0 185 0 0 65 0 65 -185 0 -185 0 0 80 0 80 200 0 200 0 0 65 0 65 -275 0 -275
0 0 -370z"/>
</g>
</svg>
