<?xml version="1.0" encoding="UTF-8" standalone="no"?>
<!DOCTYPE svg PUBLIC "-//W3C//DTD SVG 1.1//EN" "http://www.w3.org/Graphics/SVG/1.1/DTD/svg11.dtd">
<svg width="100%" height="100%" viewBox="0 0 385 110" version="1.1" xmlns="http://www.w3.org/2000/svg" xmlns:xlink="http://www.w3.org/1999/xlink" xml:space="preserve" xmlns:serif="http://www.serif.com/" style="fill-rule:evenodd;clip-rule:evenodd;stroke-linejoin:round;stroke-miterlimit:2;">
    <g>
        <path d="M298,86.1L302.4,86.1L302.4,76.8L304.8,76.8C306.6,76.8 307.4,77.8 307.4,79.6L307.5,83.8C307.5,84.7 307.6,85.5 308.1,86.1L312.9,86.1L312.9,85.9C312.1,85.5 311.9,84.3 311.9,81.9C311.8,77.2 311.4,75.6 308.3,75.2L308.3,75.1C310.8,74.6 312,72.6 312,69.7C312,65.9 309.8,64 306.1,64L298,64L298,86.1ZM302.4,67.3L304.5,67.3C306.5,67.3 307.6,68.3 307.6,70.4C307.6,72.8 306.4,73.7 304.3,73.7L302.4,73.7L302.4,67.3Z" style="fill:rgb(142,186,229);fill-rule:nonzero;"/>
        <path d="M232.4,64L232.4,79.4C232.4,85.3 235.8,86.5 239.4,86.5C243,86.5 246.4,85 246.4,79.4L246.4,64L242,64L242,79.4C242,81.6 241.5,83.2 239.4,83.2C237.3,83.2 236.8,81.6 236.8,79.4L236.8,64L232.4,64Z" style="fill:rgb(142,186,229);fill-rule:nonzero;"/>
    </g>
    <path d="M247.6,64L247.6,86.1L251.7,86.1L251.7,70.6L257.1,86.1L262.2,86.1L262.2,64L258.1,64L258.1,79.1L252.7,64L247.6,64Z" style="fill:rgb(142,186,229);fill-rule:nonzero;"/>
    <rect x="263.4" y="64" width="4.4" height="22" style="fill:rgb(142,186,229);"/>
    <path d="M268.1,64L273.2,86.1L278.9,86.1L283.9,64L279.3,64L276.1,80.3L276,80.3L272.9,64L268.1,64Z" style="fill:rgb(142,186,229);fill-rule:nonzero;"/>
    <path d="M284.3,64L284.3,86.1L297,86.1L297,82.4L288.8,82.4L288.8,76.5L296.2,76.5L296.2,72.9L288.8,72.9L288.8,67.7L296.7,67.7L296.7,64L284.3,64Z" style="fill:rgb(142,186,229);fill-rule:nonzero;"/>
    <g>
        <path d="M312.4,79.2L312.4,80.1C312.4,84.2 314.4,86.5 319.4,86.5C324.2,86.5 327.1,84.4 327.1,79.7C327.1,77 326.2,75.3 322.9,73.9L319.5,72.4C317.6,71.6 317.2,70.8 317.2,69.4C317.2,68.1 317.7,66.8 319.7,66.8C321.4,66.8 322.1,68 322.1,70.1L326.4,70.1L326.4,69.5C326.4,65.3 323.5,63.6 319.6,63.6C315.4,63.6 312.8,65.8 312.8,70.1C312.8,73.8 314.6,75.4 318.6,76.8C321.5,77.8 322.6,78.6 322.6,80.6C322.6,82.5 321.3,83.3 319.9,83.3C317.6,83.3 317,82 317,79.9L317,79.3L312.4,79.3L312.4,79.2Z" style="fill:rgb(142,186,229);fill-rule:nonzero;"/>
    </g>
    <rect x="327.6" y="64" width="4.4" height="22" style="fill:rgb(142,186,229);"/>
    <path d="M355.2,64L352.1,72.6L352,72.6L349.1,64L332.7,64L332.7,67.7L337.5,67.7L337.5,86.1L341.9,86.1L341.9,67.7L345.7,67.7L349.8,77.4L349.8,86.1L354.3,86.1L354.3,77.4L360,64L355.2,64Z" style="fill:rgb(142,186,229);fill-rule:nonzero;"/>
    <g transform="matrix(-1,0,0,1,456.3,0)">
        <g>
            <g transform="matrix(-1,0,0,1,393.4,0)">
                <path d="M193.4,62L186,62L186,39.9L198.1,39.9C201.4,39.9 204.2,42 205.1,44.8C206,47.4 205.2,50.2 203.3,52.2C203.6,52.9 203.8,53.4 204,54.1C204.5,55.3 205,56.6 205.6,57.8L207.4,62L200,62C200,62 199.9,61.8 199.9,61.7C199.6,61 199.3,60.3 199,59.7L197.2,55.4C196.5,53.7 195.8,52 195.1,50.3C196,50.3 196.7,50.4 197.5,50C198.1,49.7 199,49 199,47.6C199,46.9 198.8,46.4 198.3,45.8C197.8,45.3 197.2,44.9 196.3,44.9L193.4,44.9L193.4,62Z" style="fill:rgb(0,84,159);fill-rule:nonzero;"/>
            </g>
            <path d="M270.3,39.9L270.3,62L262.9,62L262.9,53L257.7,53L257.7,62L250.3,62L250.3,45L245.1,45L245.1,62L237.7,62L237.7,45L232.5,45L232.5,62L224.9,62C223.6,58.8 222.2,55.6 220.9,52.4C220.8,51.7 220.6,51.1 220.4,50.4L220.4,62L213,62C211.5,58.5 210,55.1 208.5,51.5C208,50.3 207.6,49.3 207,48L206.9,47.8L205.7,45.1L204,41.2C203.9,40.8 203.6,40.4 203.5,39.9L211.1,39.9C212.7,43.7 214.2,47.4 215.9,51.2L215.9,51.3C215.8,50.9 215.7,50.3 215.6,49.9L215.6,40L223.2,40C223.3,40.2 223.3,40.4 223.4,40.6C224.3,42.7 225.1,44.8 226,46.8L228,51.3C228,50.8 227.9,50.4 227.8,49.9L227.8,40L257.6,40L257.6,48L262.8,48L262.8,40L270.3,40L270.3,39.9Z" style="fill:rgb(0,84,159);fill-rule:nonzero;"/>
        </g>
    </g>
    <path d="M291.7,53.7L293.8,43.7L293.9,43.7L296,53.7L291.7,53.7ZM276.9,53.7L279,43.7L279.1,43.7L281.2,53.7L276.9,53.7ZM296.6,39.9L291.1,39.9L286.5,57.4L281.9,39.9L276.4,39.9L270.5,62L275.2,62L276.2,57.3L282.1,57.3L283.1,62L289.9,62L290.9,57.3L296.8,57.3L297.8,62L302.5,62L296.6,39.9Z" style="fill:rgb(142,186,229);fill-rule:nonzero;"/>
    <g>
        <path d="M315.8,47.4C315.8,44.2 315.3,39.5 309,39.5C302.3,39.5 301.5,44.3 301.5,51C301.5,57.7 302.3,62.5 309,62.5C314.8,62.5 316,58.4 316,53.6L311.6,53.6C311.6,58.4 310.4,59.2 308.8,59.2C306.9,59.2 306,58 306,51.3C306,45.1 306.5,42.8 308.8,42.8C310.8,42.8 311.5,44.2 311.5,47.4L315.8,47.4Z" style="fill:rgb(142,186,229);fill-rule:nonzero;"/>
    </g>
    <path d="M316.8,62L321.3,62L321.3,52.2L326.5,52.2L326.5,62L331,62L331,39.9L326.5,39.9L326.5,48.4L321.3,48.4L321.3,39.9L316.8,39.9L316.8,62Z" style="fill:rgb(142,186,229);fill-rule:nonzero;"/>
    <path d="M331.9,39.9L331.9,62L344.6,62L344.6,58.4L336.4,58.4L336.4,52.4L343.8,52.4L343.8,48.8L336.4,48.8L336.4,43.6L344.3,43.6L344.3,39.9L331.9,39.9Z" style="fill:rgb(142,186,229);fill-rule:nonzero;"/>
    <path d="M345.3,39.9L345.3,62L349.4,62L349.4,46.5L354.9,62L360,62L360,39.9L355.9,39.9L355.9,55.1L355.8,55.1L350.4,39.9L345.3,39.9Z" style="fill:rgb(142,186,229);fill-rule:nonzero;"/>
    <rect x="171" y="39.9" width="1" height="46.4" style="fill:rgb(0,84,159);"/>
    <g>
        <path d="M154.5,79C154.7,79.4 154.9,79.8 155,80.1C155.1,80.5 155.3,80.8 155.4,81.2C155.5,81.6 155.6,81.9 155.6,82.3C155.6,82.7 155.7,83.1 155.7,83.5C155.7,83.9 155.7,84.3 155.6,84.7C155.6,85.1 155.5,85.5 155.4,85.8C155.3,86.2 155.2,86.5 155,86.9C154.8,87.3 154.7,87.6 154.5,88L155.6,88C156.1,87.2 156.5,86.4 156.7,85.6C156.9,84.8 157,84.1 157,83.4C157,82.7 156.9,81.9 156.7,81.2C156.5,80.4 156.1,79.6 155.6,78.8L154.5,78.8L154.5,79ZM112.365,82.9L112.365,82.3C112.365,82.2 112.465,82.1 112.465,81.9C112.565,81.8 112.565,81.7 112.665,81.6C112.765,81.5 112.865,81.5 113.065,81.5C113.265,81.5 113.365,81.5 113.465,81.6C113.565,81.7 113.665,81.7 113.665,81.9C113.765,82 113.765,82.1 113.765,82.3L113.765,82.9L112.365,82.9ZM115.165,83.7L115.165,83.4C115.165,83 115.165,82.6 115.065,82.2C114.965,81.9 114.865,81.6 114.765,81.3C114.565,81.1 114.365,80.9 114.165,80.7C113.865,80.6 113.565,80.5 113.165,80.5C112.665,80.5 112.265,80.6 112.065,80.7C111.765,80.9 111.565,81.1 111.365,81.3C111.165,81.6 111.065,81.9 111.065,82.2C110.965,82.5 110.965,82.9 110.965,83.3L110.965,84.3C110.965,84.7 111.065,85 111.265,85.3C111.365,85.6 111.565,85.8 111.865,86C112.165,86.2 112.565,86.3 113.065,86.3C113.765,86.3 114.265,86.1 114.565,85.8C114.865,85.5 115.065,85 115.065,84.3L113.765,84.3C113.765,84.6 113.665,84.9 113.565,85.1C113.465,85.3 113.265,85.4 113.065,85.4C112.965,85.4 112.865,85.4 112.765,85.3C112.665,85.2 112.565,85.1 112.565,85C112.465,84.9 112.465,84.7 112.465,84.6L112.465,83.7L115.165,83.7ZM103.265,86.3L104.765,86.3L104.765,82.7C104.765,82.4 104.865,82.1 104.965,82C105.065,81.9 105.265,81.8 105.465,81.8C105.665,81.8 105.765,81.9 105.865,82C105.965,82.1 105.965,82.3 105.965,82.5L105.965,86.3L107.365,86.3L107.365,82.7C107.365,82.4 107.465,82.1 107.565,82C107.665,81.9 107.865,81.8 108.065,81.8C108.265,81.8 108.365,81.9 108.465,82C108.565,82.1 108.565,82.3 108.565,82.5L108.565,86.3L109.965,86.3L109.965,82.3C109.965,81.8 109.865,81.4 109.665,81.1C109.465,80.8 109.065,80.7 108.665,80.7C108.365,80.7 108.065,80.8 107.765,80.9C107.465,81 107.365,81.3 107.265,81.6C107.165,81.3 107.065,81.1 106.865,80.9C106.665,80.8 106.365,80.7 106.065,80.7C105.765,80.7 105.465,80.8 105.265,80.9C105.065,81 104.865,81.2 104.665,81.4L104.665,80.8L103.265,80.8L103.265,86.3ZM99.765,82.9L99.765,82.3C99.765,82.2 99.865,82.1 99.865,81.9C99.965,81.8 99.965,81.7 100.065,81.6C100.165,81.5 100.265,81.5 100.465,81.5C100.565,81.5 100.765,81.5 100.865,81.6C100.965,81.7 101.065,81.7 101.065,81.9C101.165,82 101.165,82.1 101.165,82.3L101.165,82.9L99.765,82.9ZM102.565,83.7L102.565,83.4C102.565,83 102.565,82.6 102.465,82.2C102.365,81.9 102.265,81.6 102.165,81.3C102.065,81.1 101.765,80.9 101.565,80.7C101.265,80.6 100.965,80.5 100.565,80.5C100.065,80.5 99.665,80.6 99.465,80.7C99.165,80.9 98.965,81.1 98.765,81.3C98.565,81.6 98.465,81.9 98.465,82.2C98.365,82.5 98.365,82.9 98.365,83.3L98.365,84.3C98.365,84.7 98.465,85 98.565,85.3C98.665,85.6 98.865,85.8 99.165,86C99.465,86.2 99.865,86.3 100.365,86.3C101.065,86.3 101.565,86.1 101.865,85.8C102.165,85.5 102.365,85 102.365,84.3L101.065,84.3C101.065,84.6 100.965,84.9 100.865,85.1C100.765,85.3 100.565,85.4 100.365,85.4C100.265,85.4 100.165,85.4 100.065,85.3C99.965,85.2 99.865,85.1 99.865,85C99.765,84.9 99.765,84.7 99.765,84.6L99.765,83.7L102.565,83.7ZM95.765,80.8L94.965,80.8L94.965,81.8L95.665,81.8L95.665,85C95.665,85.3 95.665,85.5 95.765,85.7C95.765,85.9 95.865,86 95.965,86.1C96.065,86.2 96.165,86.3 96.365,86.3C96.565,86.3 96.765,86.4 97.065,86.4L98.065,86.4L98.065,85.4L97.665,85.4C97.465,85.4 97.365,85.4 97.265,85.3C97.165,85.2 97.165,85.1 97.165,84.8L97.165,81.8L97.965,81.8L97.965,80.8L97.165,80.8L97.165,79.2L95.765,79.2L95.765,80.8ZM90.465,84.5L90.465,84.7C90.465,85 90.465,85.2 90.565,85.4C90.665,85.6 90.765,85.8 90.865,86C91.065,86.2 91.265,86.3 91.465,86.4C91.765,86.5 92.065,86.5 92.465,86.5C92.765,86.5 93.065,86.5 93.265,86.4C93.565,86.3 93.765,86.2 93.865,86.1C94.065,86 94.165,85.8 94.265,85.6C94.365,85.4 94.465,85.1 94.465,84.8C94.465,84.4 94.365,84.1 94.165,83.8C93.965,83.6 93.665,83.4 93.265,83.2L92.465,82.9C92.265,82.8 92.065,82.7 91.965,82.6C91.865,82.5 91.865,82.4 91.865,82.2C91.865,82 91.965,81.9 92.065,81.8C92.165,81.7 92.365,81.7 92.565,81.7C92.765,81.7 92.965,81.8 93.065,81.9C93.165,82 93.165,82.2 93.165,82.5L94.465,82.5L94.465,82.3C94.465,81.8 94.265,81.4 93.965,81.1C93.665,80.8 93.165,80.7 92.565,80.7C92.165,80.7 91.865,80.7 91.665,80.8C91.365,80.9 91.165,81 91.065,81.2C90.865,81.3 90.765,81.5 90.665,81.7C90.565,81.9 90.565,82.1 90.565,82.3C90.565,82.7 90.665,83 90.865,83.3C91.065,83.5 91.365,83.7 91.765,83.9L92.765,84.3C92.865,84.4 93.065,84.4 93.165,84.5C93.265,84.6 93.365,84.7 93.365,84.9C93.365,85.1 93.265,85.3 93.165,85.4C93.065,85.5 92.865,85.6 92.665,85.6C92.465,85.6 92.265,85.5 92.165,85.4C92.065,85.3 91.965,85.1 91.965,84.8L91.965,84.6L90.465,84.6L90.465,84.5ZM86.065,88.1L86.665,88.1C86.965,88.1 87.265,88.1 87.465,88C87.665,88 87.865,87.9 88.065,87.7C88.265,87.5 88.365,87.3 88.565,86.9C88.765,86.5 88.865,86.2 88.865,85.9L90.165,80.8L88.765,80.8L88.065,84.6L87.265,80.8L85.765,80.8L87.265,86.3C87.265,86.5 87.165,86.7 87.065,86.9C86.965,87 86.765,87.1 86.465,87.1L86.065,87.1L86.065,88.1ZM80.365,84L80.365,84.3C80.365,85 80.565,85.5 80.865,85.9C81.265,86.3 81.865,86.5 82.665,86.5C83.465,86.5 84.065,86.3 84.565,86C84.965,85.6 85.265,85.1 85.265,84.3C85.265,84.1 85.265,83.9 85.165,83.7C85.065,83.5 85.065,83.3 84.965,83.2C84.865,83 84.765,82.9 84.565,82.8C84.365,82.7 84.165,82.5 83.865,82.4L82.765,81.9C82.465,81.8 82.265,81.6 82.165,81.5C82.065,81.3 82.065,81.2 82.065,80.9L82.065,80.6C82.065,80.5 82.165,80.4 82.165,80.3C82.265,80.2 82.365,80.2 82.465,80.1C82.565,80.1 82.665,80 82.865,80C83.165,80 83.365,80.1 83.465,80.3C83.565,80.5 83.665,80.8 83.665,81.1L85.065,81.1L85.065,80.9C85.065,80.6 84.965,80.3 84.865,80C84.765,79.8 84.565,79.5 84.365,79.4C84.165,79.2 83.965,79.1 83.665,79.1C83.365,79 83.065,79 82.765,79C82.065,79 81.465,79.2 81.065,79.5C80.665,79.9 80.465,80.4 80.465,81.1C80.465,81.4 80.465,81.7 80.565,81.9C80.665,82.1 80.765,82.3 80.965,82.5C81.165,82.7 81.365,82.8 81.565,83C81.765,83.1 82.065,83.2 82.365,83.4C82.565,83.5 82.865,83.6 82.965,83.6C83.165,83.7 83.265,83.8 83.365,83.9C83.465,84 83.565,84.1 83.565,84.2C83.565,84.3 83.665,84.5 83.665,84.6C83.665,84.9 83.565,85.1 83.365,85.3C83.165,85.4 82.965,85.5 82.765,85.5C82.565,85.5 82.365,85.5 82.265,85.4C82.165,85.3 82.065,85.3 81.965,85.2C81.865,85.1 81.865,85 81.765,84.8L81.765,84L80.365,84ZM151.209,86.638L152.609,86.638L152.609,83.338C152.609,83.138 152.609,83.038 152.709,82.838C152.809,82.738 152.809,82.638 152.909,82.538C153.009,82.438 153.109,82.438 153.209,82.338C153.309,82.338 153.409,82.238 153.609,82.238L154.009,82.238L154.009,80.838L153.809,80.838C153.509,80.838 153.309,80.938 153.109,81.038C152.909,81.238 152.709,81.438 152.609,81.638L152.609,80.938L151.209,80.938L151.209,86.638ZM147.609,83.238L147.609,82.638C147.609,82.538 147.709,82.438 147.709,82.238C147.809,82.138 147.809,82.038 147.909,81.938C148.009,81.838 148.109,81.838 148.309,81.838C148.409,81.838 148.609,81.838 148.709,81.938C148.809,82.038 148.909,82.038 148.909,82.238C149.009,82.338 149.009,82.438 149.009,82.638L149.009,83.238L147.609,83.238ZM150.409,84.038L150.409,83.738C150.409,83.338 150.409,82.938 150.309,82.538C150.209,82.238 150.109,81.938 150.009,81.638C149.809,81.438 149.609,81.238 149.409,81.038C149.109,80.938 148.809,80.838 148.409,80.838C147.909,80.838 147.509,80.938 147.309,81.038C147.009,81.238 146.809,81.438 146.609,81.638C146.409,81.938 146.309,82.238 146.309,82.538C146.209,82.838 146.209,83.238 146.209,83.638L146.209,84.638C146.209,85.038 146.309,85.338 146.509,85.638C146.609,85.938 146.809,86.138 147.109,86.338C147.409,86.538 147.809,86.638 148.309,86.638C149.009,86.638 149.509,86.438 149.809,86.138C150.109,85.838 150.309,85.338 150.309,84.638L149.009,84.638C149.009,84.938 148.909,85.238 148.809,85.438C148.709,85.638 148.509,85.738 148.309,85.738C148.209,85.738 148.109,85.738 148.009,85.638C147.909,85.538 147.809,85.438 147.809,85.338C147.709,85.238 147.709,85.038 147.709,84.938L147.709,84.038L150.409,84.038ZM143.609,81.138L142.809,81.138L142.809,82.138L143.509,82.138L143.509,85.338C143.509,85.638 143.509,85.838 143.609,86.038C143.609,86.238 143.709,86.338 143.809,86.438C143.909,86.538 144.009,86.638 144.209,86.638C144.409,86.638 144.609,86.738 144.909,86.738L145.909,86.738L145.909,85.738L145.509,85.738C145.309,85.738 145.209,85.738 145.109,85.638C145.009,85.538 145.009,85.438 145.009,85.138L145.009,82.138L145.809,82.138L145.809,81.138L145.009,81.138L145.009,79.538L143.609,79.538L143.609,81.138ZM139.609,83.238L139.609,82.638C139.609,82.538 139.709,82.438 139.709,82.238C139.809,82.138 139.809,82.038 139.909,81.938C140.009,81.838 140.109,81.838 140.309,81.838C140.509,81.838 140.609,81.838 140.709,81.938C140.809,82.038 140.909,82.038 140.909,82.238C141.009,82.338 141.009,82.438 141.009,82.638L141.009,83.238L139.609,83.238ZM142.409,84.038L142.409,83.738C142.409,83.338 142.409,82.938 142.309,82.538C142.209,82.238 142.109,81.938 142.009,81.638C141.809,81.438 141.609,81.238 141.409,81.038C141.109,80.938 140.809,80.838 140.409,80.838C139.909,80.838 139.509,80.938 139.309,81.038C139.009,81.238 138.809,81.438 138.609,81.638C138.409,81.938 138.309,82.238 138.309,82.538C138.209,82.838 138.209,83.238 138.209,83.638L138.209,84.638C138.209,85.038 138.309,85.338 138.409,85.638C138.509,85.938 138.709,86.138 139.009,86.338C139.309,86.538 139.709,86.638 140.209,86.638C140.909,86.638 141.409,86.438 141.709,86.138C142.009,85.838 142.209,85.338 142.209,84.638L140.909,84.638C140.909,84.938 140.809,85.238 140.709,85.438C140.609,85.638 140.409,85.738 140.209,85.738C140.109,85.738 140.009,85.738 139.909,85.638C139.809,85.538 139.709,85.438 139.709,85.338C139.609,85.238 139.609,85.038 139.609,84.938L139.609,84.038L142.409,84.038ZM134.809,86.638L136.209,86.638L136.209,83.338C136.209,83.138 136.209,83.038 136.309,82.838C136.409,82.738 136.409,82.638 136.509,82.538C136.609,82.438 136.709,82.438 136.809,82.338C136.909,82.338 137.009,82.238 137.209,82.238L137.609,82.238L137.609,80.838L137.409,80.838C137.109,80.838 136.909,80.938 136.709,81.038C136.509,81.238 136.309,81.438 136.209,81.638L136.209,80.938L134.809,80.938L134.809,86.638ZM129.609,79.338L129.609,86.638L131.009,86.638L131.009,85.038L131.509,84.338L132.709,86.638L134.209,86.638L132.409,83.338L134.009,81.138L132.409,81.138L131.009,83.238L131.009,79.338L129.609,79.338ZM124.709,84.838L124.709,85.038C124.709,85.338 124.709,85.538 124.809,85.738C124.909,85.938 125.009,86.138 125.109,86.338C125.309,86.538 125.509,86.638 125.709,86.738C126.009,86.838 126.309,86.838 126.709,86.838C127.009,86.838 127.309,86.838 127.509,86.738C127.809,86.638 128.009,86.538 128.109,86.438C128.309,86.338 128.409,86.138 128.509,85.938C128.609,85.738 128.709,85.438 128.709,85.138C128.709,84.738 128.609,84.438 128.409,84.138C128.209,83.938 127.909,83.738 127.509,83.538L126.709,83.238C126.509,83.138 126.309,83.038 126.209,82.938C126.109,82.838 126.109,82.738 126.109,82.538C126.109,82.338 126.209,82.238 126.309,82.138C126.409,82.038 126.609,82.038 126.809,82.038C127.009,82.038 127.209,82.138 127.309,82.238C127.409,82.338 127.409,82.538 127.409,82.838L128.709,82.838L128.709,82.638C128.709,82.138 128.509,81.738 128.209,81.438C127.909,81.138 127.409,81.038 126.809,81.038C126.409,81.038 126.109,81.038 125.909,81.138C125.609,81.238 125.409,81.338 125.309,81.538C125.109,81.638 125.009,81.838 124.909,82.038C124.809,82.238 124.809,82.438 124.809,82.638C124.809,83.038 124.909,83.338 125.109,83.638C125.309,83.838 125.609,84.038 126.009,84.238L127.009,84.638C127.109,84.738 127.309,84.738 127.409,84.838C127.509,84.938 127.609,85.038 127.609,85.238C127.609,85.438 127.509,85.638 127.409,85.738C127.309,85.838 127.109,85.938 126.909,85.938C126.709,85.938 126.509,85.838 126.409,85.738C126.309,85.638 126.209,85.438 126.209,85.138L126.209,84.938L124.709,84.938L124.709,84.838ZM122.509,86.638L123.909,86.638L123.909,81.138L122.509,81.138L122.509,86.638ZM122.509,80.438L123.909,80.438L123.909,79.238L122.509,79.238L122.509,80.438ZM118.709,82.538C118.809,82.238 119.009,82.038 119.309,82.038C119.609,82.038 119.809,82.238 119.909,82.538C120.009,82.838 120.009,83.338 120.009,83.938C120.009,84.538 120.009,85.038 119.909,85.338C119.809,85.638 119.609,85.838 119.309,85.838C119.009,85.838 118.809,85.638 118.709,85.338C118.609,85.038 118.609,84.538 118.609,83.938C118.609,83.238 118.609,82.838 118.709,82.538M120.009,86.638L121.409,86.638L121.409,79.338L120.009,79.338L120.009,81.638C119.809,81.438 119.709,81.238 119.509,81.138C119.309,81.038 119.109,80.938 118.809,80.938C118.209,80.938 117.809,81.138 117.509,81.638C117.209,82.138 117.109,82.838 117.109,83.838C117.109,84.838 117.209,85.638 117.509,86.038C117.809,86.538 118.209,86.738 118.809,86.738C119.109,86.738 119.309,86.638 119.509,86.538C119.709,86.438 119.909,86.238 120.009,85.938L120.009,86.638Z" style="fill:rgb(0,84,159);fill-rule:nonzero;"/>
        <g>
            <path d="M111.399,72.384L111.399,71.784C111.399,71.684 111.499,71.584 111.499,71.384C111.599,71.284 111.599,71.184 111.699,71.084C111.799,70.984 111.899,70.984 112.099,70.984C112.299,70.984 112.399,70.984 112.499,71.084C112.599,71.184 112.699,71.184 112.699,71.384C112.799,71.484 112.799,71.584 112.799,71.784L112.799,72.384L111.399,72.384ZM114.199,73.184L114.199,72.884C114.199,72.484 114.199,72.084 114.099,71.684C113.999,71.384 113.899,71.084 113.799,70.784C113.699,70.584 113.399,70.384 113.199,70.184C112.899,70.084 112.599,69.984 112.199,69.984C111.699,69.984 111.299,70.084 111.099,70.184C110.799,70.384 110.599,70.584 110.399,70.784C110.199,71.084 110.099,71.384 110.099,71.684C109.999,71.984 109.999,72.384 109.999,72.784L109.999,73.784C109.999,74.084 110.099,74.484 110.299,74.784C110.399,75.084 110.599,75.284 110.899,75.484C111.199,75.684 111.599,75.784 112.099,75.784C112.799,75.784 113.299,75.584 113.599,75.284C113.899,74.984 114.099,74.484 114.099,73.784L112.799,73.784C112.799,74.084 112.699,74.384 112.599,74.584C112.499,74.784 112.299,74.884 112.099,74.884C111.999,74.884 111.899,74.884 111.799,74.784C111.699,74.684 111.599,74.584 111.599,74.484C111.499,74.384 111.499,74.184 111.499,74.084L111.499,73.184L114.199,73.184ZM107.699,75.784L109.099,75.784L109.099,70.284L107.699,70.284L107.699,75.784ZM107.699,69.584L109.099,69.584L109.099,68.384L107.699,68.384L107.699,69.584ZM104.099,75.784L105.499,75.784L105.499,72.484C105.499,72.284 105.499,72.184 105.599,71.984C105.699,71.884 105.699,71.784 105.799,71.684C105.899,71.584 105.999,71.584 106.099,71.484C106.199,71.484 106.299,71.384 106.499,71.384L106.899,71.384L106.899,70.084L106.699,70.084C106.399,70.084 106.199,70.184 105.999,70.284C105.799,70.484 105.599,70.684 105.499,70.884L105.499,70.184L104.099,70.184L104.099,75.784ZM100.399,72.184C100.399,71.984 100.399,71.784 100.499,71.584C100.599,71.384 100.599,71.284 100.699,71.184C100.799,71.084 100.899,71.084 101.099,71.084C101.399,71.084 101.599,71.184 101.699,71.484C101.799,71.784 101.899,72.284 101.899,72.984C101.899,73.684 101.799,74.184 101.699,74.484C101.599,74.784 101.399,74.884 101.099,74.884C100.899,74.884 100.799,74.884 100.699,74.784C100.599,74.684 100.499,74.584 100.499,74.384C100.399,74.184 100.399,73.984 100.399,73.784L100.399,72.184M99.099,74.284C99.199,74.684 99.299,74.984 99.399,75.184C99.599,75.384 99.799,75.584 100.099,75.684C100.399,75.784 100.699,75.884 101.199,75.884C101.599,75.884 101.899,75.784 102.199,75.684C102.499,75.584 102.699,75.384 102.899,75.084C103.099,74.884 103.199,74.584 103.299,74.184C103.399,73.784 103.399,73.384 103.399,72.984C103.399,72.484 103.399,72.084 103.299,71.684C103.199,71.284 103.099,70.984 102.999,70.784C102.799,70.584 102.599,70.384 102.299,70.284C101.999,70.184 101.699,70.084 101.199,70.084C100.799,70.084 100.499,70.184 100.199,70.284C99.899,70.384 99.699,70.584 99.499,70.884C99.299,71.084 99.199,71.384 99.099,71.784C98.999,72.184 98.999,72.584 98.999,72.984C98.999,73.484 98.999,73.884 99.099,74.284M95.499,72.384L95.499,71.784C95.499,71.684 95.599,71.584 95.599,71.384C95.699,71.284 95.699,71.184 95.799,71.084C95.899,70.984 95.999,70.984 96.199,70.984C96.299,70.984 96.499,70.984 96.599,71.084C96.699,71.184 96.799,71.184 96.799,71.384C96.899,71.484 96.899,71.584 96.899,71.784L96.899,72.384L95.499,72.384ZM98.299,73.184L98.299,72.884C98.299,72.484 98.299,72.084 98.199,71.684C98.099,71.384 97.999,71.084 97.899,70.784C97.799,70.584 97.499,70.384 97.299,70.184C96.999,70.084 96.699,69.984 96.299,69.984C95.799,69.984 95.399,70.084 95.199,70.184C94.899,70.384 94.699,70.584 94.499,70.784C94.299,71.084 94.199,71.384 94.199,71.684C94.099,71.984 94.099,72.384 94.099,72.784L94.099,73.784C94.099,74.084 94.199,74.484 94.299,74.784C94.399,75.084 94.599,75.284 94.899,75.484C95.199,75.684 95.599,75.784 96.099,75.784C96.799,75.784 97.299,75.584 97.599,75.284C97.899,74.984 98.099,74.484 98.099,73.784L96.799,73.784C96.799,74.084 96.699,74.384 96.599,74.584C96.499,74.784 96.299,74.884 96.099,74.884C95.999,74.884 95.899,74.884 95.799,74.784C95.699,74.684 95.599,74.584 95.599,74.484C95.499,74.384 95.499,74.184 95.499,74.084L95.499,73.184L98.299,73.184ZM89.099,75.784L90.499,75.784L90.499,72.084C90.499,71.484 90.699,71.184 91.199,71.184C91.399,71.184 91.599,71.284 91.699,71.384C91.799,71.484 91.799,71.684 91.799,71.984L91.799,75.784L93.199,75.784L93.199,71.684C93.199,71.084 93.099,70.684 92.799,70.484C92.599,70.284 92.199,70.084 91.799,70.084C91.199,70.084 90.699,70.284 90.499,70.784L90.499,68.384L89.099,68.384L89.099,75.784ZM83.799,68.484L83.799,69.684L85.399,69.684L85.399,75.784L86.899,75.784L86.899,69.684L88.499,69.684L88.499,68.484L83.799,68.484ZM129.702,71.421C129.802,71.121 130.002,70.921 130.302,70.921C130.602,70.921 130.802,71.121 130.902,71.421C131.002,71.721 131.002,72.221 131.002,72.821C131.002,73.421 131.002,73.921 130.902,74.221C130.802,74.521 130.602,74.721 130.302,74.721C130.002,74.721 129.802,74.521 129.702,74.221C129.602,73.921 129.602,73.421 129.602,72.821C129.502,72.121 129.602,71.721 129.702,71.421M131.102,75.521L132.502,75.521L132.502,68.221L131.102,68.221L131.102,70.521C130.902,70.321 130.802,70.121 130.602,70.021C130.402,69.921 130.202,69.821 129.902,69.821C129.302,69.821 128.902,70.021 128.602,70.521C128.302,71.021 128.202,71.721 128.202,72.721C128.202,73.721 128.302,74.521 128.602,74.921C128.902,75.421 129.302,75.621 129.902,75.621C130.202,75.621 130.402,75.521 130.602,75.421C130.802,75.321 131.002,75.121 131.102,74.821L131.102,75.521ZM123.002,75.521L124.502,75.521L124.502,71.821C124.502,71.221 124.702,70.921 125.202,70.921C125.402,70.921 125.602,71.021 125.702,71.121C125.802,71.221 125.802,71.421 125.802,71.721L125.802,75.521L127.202,75.521L127.202,71.421C127.202,70.821 127.102,70.421 126.802,70.221C126.602,70.021 126.202,69.821 125.802,69.821C125.502,69.821 125.202,69.921 125.002,70.021C124.802,70.121 124.602,70.321 124.402,70.621L124.402,70.021L123.002,70.021L123.002,75.521ZM120.702,75.521L122.102,75.521L122.102,70.021L120.602,70.021L120.602,73.721C120.602,74.321 120.402,74.621 119.902,74.621C119.702,74.621 119.502,74.521 119.402,74.421C119.302,74.321 119.302,74.121 119.302,73.821L119.302,70.021L117.902,70.021L117.902,74.121C117.902,74.721 118.002,75.121 118.302,75.321C118.502,75.521 118.902,75.721 119.302,75.721C119.602,75.721 119.902,75.621 120.102,75.521C120.302,75.421 120.502,75.221 120.702,74.921L120.702,75.521ZM153.822,68.143L153.822,75.443L155.222,75.443L155.222,73.843L155.722,73.143L156.922,75.443L158.522,75.443L156.722,72.143L158.322,69.943L156.722,69.943L155.322,72.043L155.322,68.143L153.822,68.143ZM151.322,75.443L152.722,75.443L152.722,69.943L151.322,69.943L151.322,75.443ZM151.322,69.243L152.722,69.243L152.722,68.043L151.322,68.043L151.322,69.243ZM148.922,69.943L148.922,70.543C148.822,70.243 148.622,70.043 148.422,69.943C148.222,69.843 148.022,69.743 147.822,69.743C147.422,69.743 147.122,69.843 146.922,70.043C146.722,70.243 146.522,70.443 146.422,70.743C146.322,71.043 146.222,71.343 146.222,71.643C146.222,71.943 146.122,72.343 146.122,72.643C146.122,73.643 146.222,74.343 146.522,74.743C146.822,75.143 147.222,75.343 147.822,75.343C148.022,75.343 148.222,75.243 148.522,75.143C148.722,75.043 148.922,74.843 149.022,74.643L149.022,75.343C149.022,75.643 148.922,75.843 148.822,76.043C148.722,76.243 148.522,76.343 148.222,76.343L147.922,76.343C147.822,76.343 147.722,76.243 147.722,76.243C147.622,76.143 147.522,76.043 147.522,75.843L146.122,75.843C146.122,76.343 146.322,76.643 146.622,76.943C146.922,77.243 146.274,77.41 146.874,77.41C147.674,77.41 149.422,77.143 149.822,76.843C150.222,76.443 150.322,75.943 150.322,75.243L150.322,70.043L148.922,70.043L148.922,69.943ZM147.522,71.943C147.522,71.643 147.622,71.443 147.622,71.343C147.722,71.143 147.722,71.043 147.822,71.043C147.922,70.943 148.022,70.943 148.222,70.943C148.522,70.943 148.722,71.043 148.822,71.343C148.922,71.643 149.022,72.143 149.022,72.743L149.022,73.343C149.022,73.543 148.922,73.743 148.922,73.843C148.822,73.943 148.822,74.043 148.722,74.143C148.622,74.243 148.522,74.243 148.322,74.243C148.122,74.243 148.022,74.243 147.922,74.143C147.822,74.043 147.722,73.943 147.722,73.843C147.622,73.743 147.622,73.543 147.622,73.343L147.622,72.843C147.422,72.443 147.422,72.143 147.522,71.943M142.422,71.843C142.422,71.643 142.422,71.443 142.522,71.243C142.622,71.043 142.622,70.943 142.722,70.843C142.822,70.743 143.022,70.743 143.122,70.743C143.422,70.743 143.622,70.843 143.722,71.143C143.822,71.443 143.922,71.943 143.922,72.643C143.922,73.343 143.822,73.843 143.722,74.143C143.622,74.443 143.422,74.543 143.122,74.543C142.922,74.543 142.822,74.543 142.722,74.443C142.622,74.343 142.522,74.243 142.522,74.043C142.422,73.843 142.422,73.643 142.422,73.443L142.422,71.843M141.122,73.943C141.222,74.343 141.322,74.643 141.422,74.843C141.622,75.043 141.822,75.243 142.122,75.343C142.422,75.443 142.722,75.543 143.222,75.543C143.622,75.543 143.922,75.443 144.222,75.343C144.522,75.243 144.722,75.043 144.922,74.743C145.122,74.543 145.222,74.243 145.322,73.843C145.422,73.443 145.422,73.043 145.422,72.643C145.422,72.143 145.422,71.743 145.322,71.343C145.222,70.943 145.122,70.643 145.022,70.443C144.822,70.243 144.622,70.043 144.322,69.943C144.022,69.843 143.722,69.743 143.222,69.743C142.822,69.743 142.522,69.843 142.222,69.943C141.922,70.043 141.722,70.243 141.522,70.543C141.322,70.743 141.222,71.043 141.122,71.443C141.022,71.743 141.022,72.143 141.022,72.643C141.022,73.143 141.022,73.543 141.122,73.943M140.422,75.443L140.422,74.243L137.822,74.243L137.822,68.143L136.322,68.143L136.322,75.443L140.422,75.443ZM81.6,67.4C81.1,68.2 80.7,69 80.5,69.8C80.3,70.6 80.2,71.3 80.2,72C80.2,72.7 80.3,73.5 80.5,74.2C80.7,75 81.1,75.8 81.6,76.6L82.7,76.6C82.5,76.2 82.3,75.8 82.2,75.5C82,75.1 81.9,74.8 81.8,74.4C81.7,74 81.6,73.7 81.6,73.3C81.6,72.9 81.5,72.5 81.5,72.1C81.5,71.7 81.5,71.3 81.6,70.9C81.6,70.5 81.7,70.1 81.8,69.8C81.9,69.4 82,69.1 82.2,68.7C82.4,68.3 82.5,68 82.7,67.6L81.6,67.6L81.6,67.4Z" style="fill:rgb(0,84,159);fill-rule:nonzero;"/>
        </g>
        <path d="M79.987,55.9L79.987,57.2L82.987,57.2C82.587,57.7 82.287,58.2 82.087,58.7C81.787,59.2 81.587,59.7 81.387,60.2C81.187,60.7 81.087,61.2 80.987,61.7C80.887,62.2 80.787,62.6 80.787,63.1L82.287,63.1C82.387,62.6 82.487,62.1 82.587,61.5C82.687,61 82.887,60.5 82.987,59.9C83.187,59.4 83.387,58.9 83.587,58.4C83.787,57.9 84.087,57.5 84.387,57L84.387,55.9L79.987,55.9ZM124.905,55.8L124.905,63.1L126.305,63.1L126.305,61.5L126.805,60.8L128.005,63.1L129.605,63.1L127.805,59.8L129.405,57.6L127.805,57.6L126.405,59.7L126.405,55.8L124.905,55.8ZM122.405,63.1L123.805,63.1L123.805,57.6L122.405,57.6L122.405,63.1ZM122.405,56.9L123.805,56.9L123.805,55.7L122.405,55.7L122.405,56.9ZM119.505,57.6L118.805,57.6L118.805,58.6L119.505,58.6L119.505,61.8C119.505,62.1 119.505,62.3 119.605,62.5C119.605,62.7 119.705,62.8 119.805,62.9C119.905,63 120.005,63.1 120.205,63.1C120.405,63.1 120.605,63.2 120.905,63.2L121.905,63.2L121.905,62.2L121.505,62.2C121.305,62.2 121.205,62.2 121.105,62.1C121.005,62 121.005,61.9 121.005,61.6L121.005,58.6L121.805,58.6L121.805,57.6L120.905,57.6L120.905,56L119.505,56L119.505,57.6ZM116.805,61.4C116.805,61.6 116.805,61.7 116.705,61.8C116.605,61.9 116.605,62 116.505,62.1C116.405,62.2 116.305,62.2 116.205,62.2L115.905,62.2C115.705,62.2 115.605,62.1 115.505,62C115.405,61.8 115.405,61.7 115.405,61.5C115.405,61.3 115.505,61.1 115.605,60.9C115.705,60.8 115.905,60.7 116.205,60.6C116.305,60.6 116.405,60.5 116.505,60.5C116.605,60.5 116.705,60.4 116.805,60.3L116.805,61.4ZM115.505,59.2L115.505,59C115.505,58.8 115.605,58.6 115.705,58.5C115.805,58.4 116.005,58.3 116.205,58.3C116.405,58.3 116.605,58.4 116.705,58.5C116.805,58.6 116.805,58.8 116.805,59C116.805,59.2 116.805,59.3 116.705,59.4C116.605,59.5 116.505,59.6 116.305,59.6L115.505,59.8C115.305,59.9 115.005,59.9 114.905,60C114.705,60.1 114.605,60.2 114.505,60.3C114.405,60.4 114.305,60.6 114.305,60.8C114.205,61 114.205,61.2 114.205,61.5C114.205,61.7 114.205,61.9 114.305,62.1C114.305,62.3 114.405,62.5 114.505,62.6C114.605,62.7 114.705,62.9 114.905,63C115.105,63.1 115.305,63.1 115.505,63.1C115.805,63.1 116.105,63.1 116.305,63C116.505,62.9 116.705,62.7 116.905,62.4C116.905,62.5 116.905,62.6 117.005,62.7C117.005,62.8 117.105,62.9 117.105,63L118.405,63C118.305,62.8 118.305,62.7 118.305,62.5L118.305,59C118.305,58.8 118.305,58.5 118.205,58.3C118.105,58.1 118.105,57.9 117.905,57.8C117.805,57.6 117.605,57.5 117.305,57.5C117.005,57.4 116.705,57.4 116.305,57.4C116.005,57.4 115.805,57.4 115.505,57.5C115.305,57.6 115.105,57.7 114.905,57.8C114.705,57.9 114.605,58.1 114.505,58.3C114.405,58.5 114.305,58.8 114.305,59.1L114.305,59.2L115.505,59.2ZM106.505,63.1L107.905,63.1L107.905,59.5C107.905,59.2 108.005,58.9 108.105,58.8C108.205,58.6 108.405,58.6 108.605,58.6C108.805,58.6 108.905,58.7 109.005,58.8C109.105,58.9 109.105,59.1 109.105,59.3L109.105,63.1L110.505,63.1L110.505,59.5C110.505,59.2 110.605,58.9 110.705,58.8C110.805,58.6 111.005,58.6 111.205,58.6C111.405,58.6 111.505,58.7 111.605,58.8C111.705,58.9 111.705,59.1 111.705,59.3L111.705,63.1L113.105,63.1L113.105,59.1C113.105,58.6 113.005,58.2 112.805,57.9C112.605,57.6 112.205,57.5 111.805,57.5C111.505,57.5 111.205,57.6 110.905,57.7C110.705,57.8 110.505,58.1 110.405,58.4C110.305,58.1 110.205,57.9 110.005,57.7C109.805,57.5 109.505,57.5 109.205,57.5C108.905,57.5 108.605,57.6 108.405,57.7C108.205,57.8 108.005,58 107.805,58.2L107.805,57.6L106.505,57.6L106.505,63.1ZM103.005,63.1L104.405,63.1L104.405,59.8C104.405,59.6 104.405,59.5 104.505,59.3C104.605,59.2 104.605,59.1 104.705,59C104.805,58.9 104.905,58.9 105.005,58.8C105.105,58.8 105.205,58.7 105.405,58.7L105.805,58.7L105.805,57.3L105.605,57.3C105.305,57.3 105.105,57.4 104.905,57.5C104.705,57.7 104.505,57.9 104.405,58.1L104.405,57.4L103.105,57.4L103.105,63.1L103.005,63.1ZM99.205,59.5C99.205,59.3 99.205,59.1 99.305,58.9C99.405,58.7 99.405,58.6 99.505,58.5C99.605,58.4 99.705,58.4 99.905,58.4C100.205,58.4 100.405,58.5 100.505,58.9C100.605,59.2 100.705,59.7 100.705,60.4C100.705,61.1 100.605,61.6 100.505,61.9C100.405,62.2 100.205,62.4 99.905,62.4C99.705,62.4 99.605,62.4 99.505,62.3C99.405,62.2 99.305,62.1 99.305,61.9C99.205,61.7 99.205,61.5 99.205,61.3L99.205,59.5M97.905,61.6C98.005,62 98.105,62.3 98.205,62.5C98.405,62.7 98.605,62.9 98.905,63C99.205,63.1 99.505,63.2 100.005,63.2C100.405,63.2 100.705,63.1 101.005,63C101.305,62.9 101.505,62.7 101.705,62.4C101.905,62.2 102.005,61.9 102.105,61.5C102.205,61.1 102.205,60.7 102.205,60.3C102.205,59.8 102.205,59.4 102.105,59C102.005,58.6 101.905,58.3 101.805,58.1C101.605,57.9 101.405,57.7 101.105,57.6C100.805,57.5 100.505,57.4 100.005,57.4C99.605,57.4 99.305,57.5 99.005,57.6C98.705,57.7 98.505,57.9 98.305,58.2C98.105,58.4 98.005,58.7 97.905,59.1C97.805,59.5 97.805,59.9 97.805,60.3C97.805,60.8 97.805,61.2 97.905,61.6M95.005,63.1L96.605,63.1L96.605,58.6L97.405,58.6L97.405,57.6L96.605,57.6L96.605,57.1C96.605,56.9 96.605,56.8 96.705,56.8C96.805,56.8 96.905,56.7 97.105,56.7L97.305,56.7L97.305,55.7L96.505,55.7C96.305,55.7 96.105,55.7 95.905,55.8C95.705,55.8 95.605,55.9 95.405,56C95.305,56.1 95.205,56.2 95.105,56.4C95.005,56.6 95.005,56.8 95.005,57L95.005,57.6L94.305,57.6L94.305,58.6L95.005,58.6L95.005,63.1ZM89.705,63.1L91.105,63.1L91.105,59.4C91.105,58.8 91.305,58.5 91.805,58.5C92.005,58.5 92.205,58.6 92.305,58.7C92.405,58.8 92.405,59 92.405,59.3L92.405,63.1L93.805,63.1L93.805,59C93.805,58.4 93.705,58 93.405,57.8C93.205,57.6 92.805,57.4 92.405,57.4C92.105,57.4 91.805,57.5 91.605,57.6C91.405,57.7 91.205,57.9 91.005,58.2L91.005,57.6L89.705,57.6L89.705,63.1ZM88.605,55.8L87.105,55.8L87.105,63.1L88.605,63.1L88.605,55.8Z" style="fill:rgb(0,84,159);fill-rule:nonzero;"/>
        <path d="M129.9,51.5L131.3,51.5L131.3,48.2C131.3,48 131.3,47.9 131.4,47.7C131.5,47.6 131.5,47.5 131.6,47.4C131.7,47.3 131.8,47.3 131.9,47.2C132,47.2 132.1,47.1 132.3,47.1L132.7,47.1L132.7,45.7L132.5,45.7C132.2,45.7 132,45.8 131.8,45.9C131.6,46.1 131.4,46.3 131.3,46.5L131.3,46L130,46L130,51.5L129.9,51.5ZM125.4,45.2L126.5,45.2L126.5,44L125.4,44L125.4,45.2ZM127.1,45.2L128.2,45.2L128.2,44L127.1,44L127.1,45.2ZM127.6,51.5L128.9,51.5L128.9,46L127.5,46L127.5,49.7C127.5,50.3 127.3,50.6 126.8,50.6C126.6,50.6 126.4,50.5 126.3,50.4C126.2,50.3 126.2,50.1 126.2,49.8L126.2,46L124.8,46L124.8,50C124.8,50.6 124.9,51 125.2,51.2C125.4,51.4 125.8,51.6 126.2,51.6C126.5,51.6 126.8,51.5 127,51.4C127.2,51.3 127.4,51.1 127.6,50.8L127.6,51.5ZM121.7,51.5L123.3,51.5L123.3,47L124.1,47L124.1,46L123.3,46L123.3,45.5C123.3,45.3 123.3,45.2 123.4,45.2C123.5,45.1 123.6,45.1 123.8,45.1L124,45.1L124,44.1L123.2,44.1C123,44.1 122.8,44.1 122.6,44.2C122.4,44.2 122.3,44.3 122.1,44.4C122,44.5 121.9,44.6 121.8,44.8C121.7,45 121.7,45.2 121.7,45.4L121.7,46L121,46L121,47L121.7,47L121.7,51.5ZM116.8,51.5L118.2,51.5L118.2,44.2L116.8,44.2L116.8,51.5ZM111.6,51.5L113,51.5L113,47.8C113,47.2 113.2,46.9 113.7,46.9C113.9,46.9 114.1,47 114.2,47.1C114.3,47.2 114.3,47.4 114.3,47.7L114.3,51.5L115.7,51.5L115.7,47.4C115.7,46.8 115.6,46.4 115.3,46.2C115.1,46 114.7,45.8 114.3,45.8C113.7,45.8 113.2,46 113,46.5L113,44.1L111.6,44.1L111.6,51.5ZM109.2,51.5L110.6,51.5L110.6,46L109.2,46L109.2,49.7C109.2,50.3 109,50.6 108.5,50.6C108.3,50.6 108.1,50.5 108,50.4C107.9,50.3 107.9,50.1 107.9,49.8L107.9,46L106.5,46L106.5,50C106.5,50.6 106.6,51 106.9,51.2C107.1,51.4 107.5,51.6 107.9,51.6C108.2,51.6 108.5,51.5 108.7,51.4C108.9,51.3 109.1,51.1 109.3,50.8L109.3,51.5L109.2,51.5ZM103.6,46L102.9,46L102.9,47L103.6,47L103.6,50.2C103.6,50.5 103.6,50.7 103.7,50.9C103.7,51.1 103.8,51.2 103.9,51.3C104,51.4 104.1,51.5 104.3,51.5C104.5,51.5 104.7,51.6 105,51.6L106,51.6L106,50.6L105.6,50.6C105.4,50.6 105.3,50.6 105.2,50.5C105.1,50.4 105.1,50.3 105.1,50L105.1,47L105.9,47L105.9,46L105,46L105,44.4L103.6,44.4L103.6,46ZM98.3,49.7L98.3,49.9C98.3,50.2 98.3,50.4 98.4,50.6C98.5,50.8 98.6,51 98.7,51.2C98.9,51.4 99.1,51.5 99.3,51.6C99.6,51.7 99.9,51.7 100.3,51.7C100.6,51.7 100.9,51.7 101.1,51.6C101.4,51.5 101.6,51.4 101.8,51.3C102,51.2 102.1,51 102.2,50.8C102.3,50.6 102.4,50.3 102.4,50C102.4,49.6 102.3,49.3 102.1,49C101.9,48.8 101.6,48.6 101.2,48.4L100.4,48.1C100.2,48 100,47.9 99.9,47.8C99.8,47.7 99.8,47.6 99.8,47.4C99.8,47.2 99.9,47.1 100,47C100.1,46.9 100.3,46.9 100.5,46.9C100.7,46.9 100.9,47 101,47.1C101.1,47.2 101.1,47.4 101.1,47.7L102.4,47.7L102.4,47.5C102.4,47 102.2,46.6 101.9,46.3C101.6,46 101.1,45.9 100.5,45.9C100.1,45.9 99.8,45.9 99.6,46C99.3,46.1 99.1,46.2 99,46.4C98.9,46.6 98.7,46.7 98.6,46.9C98.5,47.1 98.5,47.3 98.5,47.5C98.5,47.9 98.6,48.2 98.8,48.5C99,48.7 99.3,48.9 99.7,49.1L100.7,49.5C100.8,49.6 101,49.6 101.1,49.7C101.2,49.8 101.3,49.9 101.3,50.1C101.3,50.3 101.2,50.5 101.1,50.6C101,50.7 100.8,50.8 100.6,50.8C100.4,50.8 100.2,50.7 100.1,50.6C100,50.5 99.9,50.3 99.9,50L99.9,49.8L98.3,49.8L98.3,49.7ZM95,51.5L96.4,51.5L96.4,48.2C96.4,48 96.4,47.9 96.5,47.7C96.6,47.6 96.6,47.5 96.7,47.4C96.8,47.3 96.9,47.3 97,47.2C97.1,47.2 97.2,47.1 97.4,47.1L97.8,47.1L97.8,45.7L97.6,45.7C97.3,45.7 97.1,45.8 96.9,45.9C96.7,46.1 96.5,46.3 96.4,46.5L96.4,46L95,46L95,51.5ZM89.8,51.5L91.2,51.5L91.2,47.8C91.2,47.2 91.4,46.9 91.9,46.9C92.1,46.9 92.3,47 92.4,47.1C92.5,47.2 92.5,47.4 92.5,47.7L92.5,51.5L94,51.5L94,47.4C94,46.8 93.9,46.4 93.6,46.2C93.4,46 93,45.8 92.6,45.8C92,45.8 91.5,46 91.3,46.5L91.3,44.1L89.9,44.1L89.9,51.5L89.8,51.5ZM86.2,48.1L86.2,47.5C86.2,47.4 86.3,47.3 86.3,47.1C86.4,47 86.4,46.9 86.5,46.8C86.6,46.7 86.7,46.7 86.9,46.7C87,46.7 87.2,46.7 87.3,46.8C87.4,46.9 87.5,46.9 87.5,47.1C87.6,47.2 87.6,47.3 87.6,47.5L87.6,48.1L86.2,48.1ZM89,48.9L89,48.6C89,48.2 89,47.8 88.9,47.4C88.8,47.1 88.7,46.8 88.6,46.5C88.4,46.3 88.2,46.1 88,45.9C87.7,45.8 87.4,45.7 87,45.7C86.5,45.7 86.1,45.8 85.9,45.9C85.6,46.1 85.4,46.3 85.2,46.5C85,46.8 84.9,47.1 84.9,47.4C84.8,47.7 84.8,48.1 84.8,48.5L84.8,49.5C84.8,49.9 84.9,50.2 85.1,50.5C85.2,50.8 85.4,51 85.7,51.2C86,51.4 86.4,51.5 86.9,51.5C87.6,51.5 88.1,51.3 88.4,51C88.7,50.7 88.9,50.2 88.9,49.5L87.6,49.5C87.6,49.8 87.5,50.1 87.4,50.3C87.3,50.5 87.1,50.6 86.9,50.6C86.8,50.6 86.7,50.6 86.6,50.5C86.5,50.4 86.4,50.3 86.4,50.2C86.3,50.1 86.3,49.9 86.3,49.8L86.3,48.9L89,48.9ZM84.2,51.5L84.2,50.3L81.6,50.3L81.6,44.2L80.1,44.2L80.1,51.5L84.2,51.5Z" style="fill:rgb(0,84,159);fill-rule:nonzero;"/>
        <g transform="matrix(-1,0,0,1,97.7,0)">
            <path d="M45.1,60.2L46.7,60.2L46.7,58.8L45.1,58.8L45.1,60.2ZM45.1,67.4L46.7,67.4L46.7,61L45.1,61L45.1,67.4ZM52.6,59.2L52.6,60.7L49.1,60.7C49.5,61.3 49.9,61.8 50.2,62.4C50.5,63 50.8,63.6 51,64.1C51.2,64.7 51.4,65.2 51.5,65.8C51.6,66.4 51.7,66.9 51.8,67.4L50,67.4C49.9,66.8 49.8,66.2 49.7,65.6C49.6,65 49.4,64.4 49.2,63.8C49,63.2 48.8,62.6 48.5,62.1C48.2,61.5 47.9,61 47.6,60.5L47.6,59.2L52.6,59.2Z" style="fill:rgb(246,168,0);fill-rule:nonzero;"/>
        </g>
        <path d="M42.2,69.4L42.2,56.9C41.9,57.1 41.6,57.2 41.2,57.2L41.2,69C41.5,69 41.9,69.2 42.2,69.4" style="fill:rgb(142,186,229);fill-rule:nonzero;"/>
        <path d="M42.7,56.4L55.1,56.4C54.9,56.1 54.8,55.8 54.8,55.4L43,55.4C43,55.8 42.9,56.1 42.7,56.4" style="fill:rgb(142,186,229);fill-rule:nonzero;"/>
        <path d="M54.7,70.9C54.7,70.5 54.8,70.2 55,69.9L42.7,69.9C42.9,70.2 43,70.5 43,70.9L54.7,70.9Z" style="fill:rgb(142,186,229);fill-rule:nonzero;"/>
        <path d="M56.6,57.3C56.2,57.3 55.9,57.2 55.6,57L55.6,69.3C55.9,69.1 56.2,69 56.6,69L56.7,69L56.6,57.3" style="fill:rgb(142,186,229);fill-rule:nonzero;"/>
        <path d="M42.8,54.5L46.8,49.3C46.4,49.3 46.1,49.1 45.8,48.9L42.1,53.7C42.4,53.9 42.6,54.2 42.8,54.5" style="fill:rgb(142,186,229);fill-rule:nonzero;"/>
        <path d="M57.6,57L62.7,60.9C62.7,60.5 62.9,60.2 63.1,59.9L58.3,56.2C58.1,56.6 57.9,56.8 57.6,57" style="fill:rgb(142,186,229);fill-rule:nonzero;"/>
        <path d="M34.9,64.8L40.7,57.3C40.3,57.2 40,57.1 39.8,56.8L34.3,64C34.6,64.1 34.8,64.4 34.9,64.8" style="fill:rgb(142,186,229);fill-rule:nonzero;"/>
        <path d="M55,71.9L51.1,76.9C51.5,76.9 51.8,77.1 52.1,77.3L55.7,72.6C55.4,72.4 55.2,72.2 55,71.9" style="fill:rgb(142,186,229);fill-rule:nonzero;"/>
        <path d="M47.5,49.2L54.9,54.9C55,54.6 55.2,54.3 55.4,54L48.4,48.6C48.1,48.9 47.8,49.1 47.5,49.2" style="fill:rgb(142,186,229);fill-rule:nonzero;"/>
        <path d="M62.8,61.7L57.1,69.1C57.4,69.2 57.7,69.4 58,69.6L63.4,62.6C63.1,62.4 62.9,62.1 62.8,61.7" style="fill:rgb(142,186,229);fill-rule:nonzero;"/>
        <path d="M50.3,77L42.9,71.3C42.8,71.6 42.6,72 42.4,72.2L49.4,77.6C49.7,77.3 50,77.1 50.3,77" style="fill:rgb(142,186,229);fill-rule:nonzero;"/>
        <path d="M39.5,70C39.7,69.7 39.9,69.4 40.2,69.3L35,65.3L35,65.4C35,65.8 34.9,66.1 34.7,66.4L39.5,70Z" style="fill:rgb(142,186,229);fill-rule:nonzero;"/>
        <path d="M48.7,47.1L48.7,47.5C48.7,47.7 48.6,48 48.6,48.2L66.5,56.5L66.5,56.2C66.5,55.9 66.6,55.6 66.7,55.4L48.7,47.1Z" style="fill:rgb(142,186,229);fill-rule:nonzero;"/>
        <path d="M64.6,63C64.4,63 64.1,63 63.9,62.9L55.6,80.6L55.8,80.6C56.1,80.6 56.4,80.7 56.6,80.8L65,63L64.6,63" style="fill:rgb(142,186,229);fill-rule:nonzero;"/>
        <path d="M43,45.5L45.3,46.6C45.5,46.3 45.7,46 46.1,45.8L43.8,44.7C43.5,45 43.3,45.3 43,45.5" style="fill:rgb(142,186,229);fill-rule:nonzero;"/>
        <path d="M33.1,63.5C33.4,63.5 33.6,63.6 33.8,63.6L42.1,45.7L41.9,45.7C41.6,45.7 41.3,45.6 41.1,45.5L32.7,63.4C32.9,63.5 33,63.5 33.1,63.5" style="fill:rgb(142,186,229);fill-rule:nonzero;"/>
        <path d="M31.2,69.3L32.3,67C32,66.8 31.7,66.6 31.5,66.2L30.4,68.5C30.7,68.7 31,69 31.2,69.3" style="fill:rgb(142,186,229);fill-rule:nonzero;"/>
        <path d="M49.1,79.2C49.1,79 49,78.9 49,78.7C49,78.5 49,78.3 49.1,78.1L31.3,69.8L31.3,70.2C31.3,70.4 31.3,70.7 31.2,70.9L49.1,79.2Z" style="fill:rgb(142,186,229);fill-rule:nonzero;"/>
        <path d="M66.7,57L65.5,59.5C65.8,59.7 66.1,60 66.3,60.3L67.4,57.8C67.1,57.6 66.8,57.4 66.7,57" style="fill:rgb(142,186,229);fill-rule:nonzero;"/>
        <path d="M55,80.8L52.6,79.7C52.4,80 52.1,80.3 51.8,80.4L54.3,81.5C54.4,81.3 54.6,81 55,80.8" style="fill:rgb(142,186,229);fill-rule:nonzero;"/>
        <path d="M28.4,75.8L29.2,72.1C28.8,72 28.5,71.9 28.2,71.6L27.4,75.3C27.8,75.3 28.1,75.5 28.4,75.8" style="fill:rgb(142,186,229);fill-rule:nonzero;"/>
        <path d="M68.4,58.1C68.2,58.1 68,58.1 67.8,58L62.2,83.3C62.4,83.2 62.7,83.2 62.9,83.2L63.3,83.2L68.9,58C68.7,58.1 68.5,58.1 68.4,58.1" style="fill:rgb(142,186,229);fill-rule:nonzero;"/>
        <path d="M29.5,68.3C29.7,68.3 29.9,68.3 30,68.4L35.7,42.9C35.5,43 35.2,43 35,43C34.9,43 34.7,43 34.6,42.9L29,68.3C29.1,68.4 29.3,68.3 29.5,68.3" style="fill:rgb(142,186,229);fill-rule:nonzero;"/>
        <path d="M69.4,50.5L68.6,54.3C69,54.3 69.3,54.5 69.6,54.7L70.4,51C70,51 69.7,50.8 69.4,50.5" style="fill:rgb(142,186,229);fill-rule:nonzero;"/>
        <path d="M43.7,43.2C43.8,43.4 43.8,43.7 43.8,43.9L43.8,44.3L69,49.9C68.9,49.7 68.9,49.5 68.9,49.3C68.9,49.1 68.9,49 69,48.8L43.7,43.2Z" style="fill:rgb(142,186,229);fill-rule:nonzero;"/>
        <path d="M61.6,83.7L57.8,82.9C57.7,83.3 57.5,83.6 57.3,83.9L61.1,84.8C61.1,84.3 61.3,83.9 61.6,83.7" style="fill:rgb(142,186,229);fill-rule:nonzero;"/>
        <path d="M54.1,83.1C54,82.9 54,82.7 54,82.5C54,82.3 54,82.2 54.1,82.1L28.8,76.5C28.9,76.7 28.9,76.9 28.9,77.2L28.9,77.6L54.1,83.1Z" style="fill:rgb(142,186,229);fill-rule:nonzero;"/>
        <path d="M36.2,42.6L40.1,43.5C40.2,43.1 40.4,42.8 40.7,42.5L36.8,41.6C36.7,42 36.5,42.4 36.2,42.6" style="fill:rgb(142,186,229);fill-rule:nonzero;"/>
        <path d="M70.8,51.1C71.8,51.1 72.7,50.3 72.7,49.2C72.7,48.1 71.9,47.3 70.8,47.3C69.8,47.3 68.9,48.1 68.9,49.2C68.9,50.3 69.8,51.1 70.8,51.1" style="fill:rgb(0,84,159);fill-rule:nonzero;"/>
        <path d="M62.9,86.9C63.9,86.9 64.8,86.1 64.8,85C64.8,84 64,83.1 62.9,83.1C61.9,83.1 61,83.9 61,85C61,86 61.9,86.9 62.9,86.9" style="fill:rgb(0,84,159);fill-rule:nonzero;"/>
        <path d="M27,79C28,79 28.9,78.2 28.9,77.1C28.9,76 28.1,75.2 27,75.2C26,75.2 25.1,76 25.1,77.1C25.1,78.2 26,79 27,79" style="fill:rgb(0,84,159);fill-rule:nonzero;"/>
        <path d="M35,43C36,43 36.9,42.2 36.9,41.1C36.9,40 36,39.3 35,39.3C34,39.3 33.1,40.1 33.1,41.2C33.1,42.3 34,43 35,43" style="fill:rgb(0,84,159);fill-rule:nonzero;"/>
        <path d="M68.4,58.1C69.4,58.1 70.3,57.3 70.3,56.2C70.3,55.1 69.5,54.3 68.4,54.3C67.4,54.3 66.5,55.1 66.5,56.2C66.5,57.3 67.3,58.1 68.4,58.1" style="fill:rgb(0,84,159);fill-rule:nonzero;"/>
        <path d="M55.9,84.3C56.9,84.3 57.8,83.5 57.8,82.4C57.8,81.3 57,80.5 55.9,80.5C54.9,80.5 54,81.3 54,82.4C54,83.5 54.8,84.3 55.9,84.3" style="fill:rgb(0,84,159);fill-rule:nonzero;"/>
        <path d="M29.5,72.1C30.5,72.1 31.4,71.3 31.4,70.2C31.4,69.1 30.6,68.3 29.5,68.3C28.5,68.3 27.6,69.1 27.6,70.2C27.6,71.3 28.5,72.1 29.5,72.1" style="fill:rgb(0,84,159);fill-rule:nonzero;"/>
        <path d="M42,45.8C43,45.8 43.9,45 43.9,43.9C43.9,42.8 43,42 42,42C41,42 40.1,42.8 40.1,43.9C40.1,45 40.9,45.8 42,45.8" style="fill:rgb(0,84,159);fill-rule:nonzero;"/>
        <path d="M64.6,63C65.6,63 66.5,62.2 66.5,61.1C66.5,60 65.7,59.2 64.6,59.2C63.6,59.2 62.7,60 62.7,61.1C62.7,62.2 63.5,63 64.6,63" style="fill:rgb(0,84,159);fill-rule:nonzero;"/>
        <path d="M51,80.6C52,80.6 52.9,79.8 52.9,78.7C52.9,77.7 52.1,76.8 51,76.8C50,76.8 49.1,77.6 49.1,78.7C49.1,79.8 49.9,80.6 51,80.6" style="fill:rgb(0,84,159);fill-rule:nonzero;"/>
        <path d="M33.1,67.2C34.1,67.2 35,66.4 35,65.3C35,64.2 34.2,63.4 33.1,63.4C32.1,63.4 31.2,64.2 31.2,65.3C31.2,66.4 32.1,67.2 33.1,67.2" style="fill:rgb(0,84,159);fill-rule:nonzero;"/>
        <path d="M46.9,49.3C47.9,49.3 48.8,48.5 48.8,47.4C48.8,46.3 48,45.5 46.9,45.5C45.9,45.5 45,46.3 45,47.4C45,48.5 45.9,49.3 46.9,49.3" style="fill:rgb(0,84,159);fill-rule:nonzero;"/>
        <path d="M56.6,57.3C57.6,57.3 58.5,56.5 58.5,55.4C58.5,54.3 57.7,53.5 56.6,53.5C55.6,53.5 54.7,54.3 54.7,55.4C54.7,56.5 55.6,57.3 56.6,57.3" style="fill:rgb(0,84,159);fill-rule:nonzero;"/>
        <path d="M56.6,72.8C57.6,72.8 58.5,72 58.5,70.9C58.5,69.8 57.7,69 56.6,69C55.6,69 54.7,69.8 54.7,70.9C54.7,72 55.6,72.8 56.6,72.8" style="fill:rgb(0,84,159);fill-rule:nonzero;"/>
        <path d="M41.1,57.3C42.1,57.3 43,56.5 43,55.4C43,54.3 42.2,53.5 41.1,53.5C40.1,53.5 39.2,54.3 39.2,55.4C39.2,56.5 40.1,57.3 41.1,57.3" style="fill:rgb(0,84,159);fill-rule:nonzero;"/>
        <path d="M41.1,72.8C42.1,72.8 43,72 43,70.9C43,69.8 42.1,69 41.1,69C40.1,69 39.2,69.8 39.2,70.9C39.2,72 40.1,72.8 41.1,72.8" style="fill:rgb(0,84,159);fill-rule:nonzero;"/>
    </g>
</svg>
