<?xml version="1.0" encoding="UTF-8" standalone="no"?>
<svg
   width="301.4053"
   height="110"
   viewBox="0 0 301.4053 110"
   version="1.1"
   xml:space="preserve"
   style="clip-rule:evenodd;fill-rule:evenodd;stroke-linejoin:round;stroke-miterlimit:2"
   id="svg63"
   xmlns="http://www.w3.org/2000/svg"
   xmlns:svg="http://www.w3.org/2000/svg"><defs
   id="defs63" />
    
    
    
    
    
    
    
    
    
    
    
    
    
    
    
    <g
   id="g63"
   transform="matrix(2.2540984,0,0,2.2540984,-56.57787,-88.586067)">
        <path
   d="m 154.5,79 c 0.2,0.4 0.4,0.8 0.5,1.1 0.1,0.4 0.3,0.7 0.4,1.1 0.1,0.4 0.2,0.7 0.2,1.1 0,0.4 0.1,0.8 0.1,1.2 0,0.4 0,0.8 -0.1,1.2 0,0.4 -0.1,0.8 -0.2,1.1 -0.1,0.4 -0.2,0.7 -0.4,1.1 -0.2,0.4 -0.3,0.7 -0.5,1.1 h 1.1 c 0.5,-0.8 0.9,-1.6 1.1,-2.4 0.2,-0.8 0.3,-1.5 0.3,-2.2 0,-0.7 -0.1,-1.5 -0.3,-2.2 -0.2,-0.8 -0.6,-1.6 -1.1,-2.4 h -1.1 z m -42.135,3.9 v -0.6 c 0,-0.1 0.1,-0.2 0.1,-0.4 0.1,-0.1 0.1,-0.2 0.2,-0.3 0.1,-0.1 0.2,-0.1 0.4,-0.1 0.2,0 0.3,0 0.4,0.1 0.1,0.1 0.2,0.1 0.2,0.3 0.1,0.1 0.1,0.2 0.1,0.4 v 0.6 z m 2.8,0.8 v -0.3 c 0,-0.4 0,-0.8 -0.1,-1.2 -0.1,-0.3 -0.2,-0.6 -0.3,-0.9 -0.2,-0.2 -0.4,-0.4 -0.6,-0.6 -0.3,-0.1 -0.6,-0.2 -1,-0.2 -0.5,0 -0.9,0.1 -1.1,0.2 -0.3,0.2 -0.5,0.4 -0.7,0.6 -0.2,0.3 -0.3,0.6 -0.3,0.9 -0.1,0.3 -0.1,0.7 -0.1,1.1 v 1 c 0,0.4 0.1,0.7 0.3,1 0.1,0.3 0.3,0.5 0.6,0.7 0.3,0.2 0.7,0.3 1.2,0.3 0.7,0 1.2,-0.2 1.5,-0.5 0.3,-0.3 0.5,-0.8 0.5,-1.5 h -1.3 c 0,0.3 -0.1,0.6 -0.2,0.8 -0.1,0.2 -0.3,0.3 -0.5,0.3 -0.1,0 -0.2,0 -0.3,-0.1 -0.1,-0.1 -0.2,-0.2 -0.2,-0.3 -0.1,-0.1 -0.1,-0.3 -0.1,-0.4 v -0.9 z m -11.9,2.6 h 1.5 v -3.6 c 0,-0.3 0.1,-0.6 0.2,-0.7 0.1,-0.1 0.3,-0.2 0.5,-0.2 0.2,0 0.3,0.1 0.4,0.2 0.1,0.1 0.1,0.3 0.1,0.5 v 3.8 h 1.4 v -3.6 c 0,-0.3 0.1,-0.6 0.2,-0.7 0.1,-0.1 0.3,-0.2 0.5,-0.2 0.2,0 0.3,0.1 0.4,0.2 0.1,0.1 0.1,0.3 0.1,0.5 v 3.8 h 1.4 v -4 c 0,-0.5 -0.1,-0.9 -0.3,-1.2 -0.2,-0.3 -0.6,-0.4 -1,-0.4 -0.3,0 -0.6,0.1 -0.9,0.2 -0.3,0.1 -0.4,0.4 -0.5,0.7 -0.1,-0.3 -0.2,-0.5 -0.4,-0.7 -0.2,-0.1 -0.5,-0.2 -0.8,-0.2 -0.3,0 -0.6,0.1 -0.8,0.2 -0.2,0.1 -0.4,0.3 -0.6,0.5 v -0.6 h -1.4 z m -3.5,-3.4 v -0.6 c 0,-0.1 0.1,-0.2 0.1,-0.4 0.1,-0.1 0.1,-0.2 0.2,-0.3 0.1,-0.1 0.2,-0.1 0.4,-0.1 0.1,0 0.3,0 0.4,0.1 0.1,0.1 0.2,0.1 0.2,0.3 0.1,0.1 0.1,0.2 0.1,0.4 v 0.6 z m 2.8,0.8 v -0.3 c 0,-0.4 0,-0.8 -0.1,-1.2 -0.1,-0.3 -0.2,-0.6 -0.3,-0.9 -0.1,-0.2 -0.4,-0.4 -0.6,-0.6 -0.3,-0.1 -0.6,-0.2 -1,-0.2 -0.5,0 -0.9,0.1 -1.1,0.2 -0.3,0.2 -0.5,0.4 -0.7,0.6 -0.2,0.3 -0.3,0.6 -0.3,0.9 -0.1,0.3 -0.1,0.7 -0.1,1.1 v 1 c 0,0.4 0.1,0.7 0.2,1 0.1,0.3 0.3,0.5 0.6,0.7 0.3,0.2 0.7,0.3 1.2,0.3 0.7,0 1.2,-0.2 1.5,-0.5 0.3,-0.3 0.5,-0.8 0.5,-1.5 h -1.3 c 0,0.3 -0.1,0.6 -0.2,0.8 -0.1,0.2 -0.3,0.3 -0.5,0.3 -0.1,0 -0.2,0 -0.3,-0.1 -0.1,-0.1 -0.2,-0.2 -0.2,-0.3 -0.1,-0.1 -0.1,-0.3 -0.1,-0.4 v -0.9 z m -6.8,-2.9 h -0.8 v 1 h 0.7 V 85 c 0,0.3 0,0.5 0.1,0.7 0,0.2 0.1,0.3 0.2,0.4 0.1,0.1 0.2,0.2 0.4,0.2 0.2,0 0.4,0.1 0.7,0.1 h 1 v -1 h -0.4 c -0.2,0 -0.3,0 -0.4,-0.1 -0.1,-0.1 -0.1,-0.2 -0.1,-0.5 v -3 h 0.8 v -1 h -0.8 v -1.6 h -1.4 z m -5.3,3.7 v 0.2 c 0,0.3 0,0.5 0.1,0.7 0.1,0.2 0.2,0.4 0.3,0.6 0.2,0.2 0.4,0.3 0.6,0.4 0.3,0.1 0.6,0.1 1,0.1 0.3,0 0.6,0 0.8,-0.1 0.3,-0.1 0.5,-0.2 0.6,-0.3 0.2,-0.1 0.3,-0.3 0.4,-0.5 0.1,-0.2 0.2,-0.5 0.2,-0.8 0,-0.4 -0.1,-0.7 -0.3,-1 -0.2,-0.2 -0.5,-0.4 -0.9,-0.6 l -0.8,-0.3 c -0.2,-0.1 -0.4,-0.2 -0.5,-0.3 -0.1,-0.1 -0.1,-0.2 -0.1,-0.4 0,-0.2 0.1,-0.3 0.2,-0.4 0.1,-0.1 0.3,-0.1 0.5,-0.1 0.2,0 0.4,0.1 0.5,0.2 0.1,0.1 0.1,0.3 0.1,0.6 h 1.3 v -0.2 c 0,-0.5 -0.2,-0.9 -0.5,-1.2 -0.3,-0.3 -0.8,-0.4 -1.4,-0.4 -0.4,0 -0.7,0 -0.9,0.1 -0.3,0.1 -0.5,0.2 -0.6,0.4 -0.2,0.1 -0.3,0.3 -0.4,0.5 -0.1,0.2 -0.1,0.4 -0.1,0.6 0,0.4 0.1,0.7 0.3,1 0.2,0.2 0.5,0.4 0.9,0.6 l 1,0.4 c 0.1,0.1 0.3,0.1 0.4,0.2 0.1,0.1 0.2,0.2 0.2,0.4 0,0.2 -0.1,0.4 -0.2,0.5 -0.1,0.1 -0.3,0.2 -0.5,0.2 -0.2,0 -0.4,-0.1 -0.5,-0.2 -0.1,-0.1 -0.2,-0.3 -0.2,-0.6 v -0.2 h -1.5 z m -4.4,3.6 h 0.6 c 0.3,0 0.6,0 0.8,-0.1 0.2,0 0.4,-0.1 0.6,-0.3 0.2,-0.2 0.3,-0.4 0.5,-0.8 0.2,-0.4 0.3,-0.7 0.3,-1 l 1.3,-5.1 h -1.4 l -0.7,3.8 -0.8,-3.8 h -1.5 l 1.5,5.5 c 0,0.2 -0.1,0.4 -0.2,0.6 -0.1,0.1 -0.3,0.2 -0.6,0.2 h -0.4 z m -5.7,-4.1 v 0.3 c 0,0.7 0.2,1.2 0.5,1.6 0.4,0.4 1,0.6 1.8,0.6 0.8,0 1.4,-0.2 1.9,-0.5 0.4,-0.4 0.7,-0.9 0.7,-1.7 0,-0.2 0,-0.4 -0.1,-0.6 -0.1,-0.2 -0.1,-0.4 -0.2,-0.5 -0.1,-0.2 -0.2,-0.3 -0.4,-0.4 -0.2,-0.1 -0.4,-0.3 -0.7,-0.4 l -1.1,-0.5 c -0.3,-0.1 -0.5,-0.3 -0.6,-0.4 -0.1,-0.2 -0.1,-0.3 -0.1,-0.6 v -0.3 c 0,-0.1 0.1,-0.2 0.1,-0.3 0.1,-0.1 0.2,-0.1 0.3,-0.2 0.1,0 0.2,-0.1 0.4,-0.1 0.3,0 0.5,0.1 0.6,0.3 0.1,0.2 0.2,0.5 0.2,0.8 h 1.4 v -0.2 c 0,-0.3 -0.1,-0.6 -0.2,-0.9 -0.1,-0.2 -0.3,-0.5 -0.5,-0.6 -0.2,-0.2 -0.4,-0.3 -0.7,-0.3 -0.3,-0.1 -0.6,-0.1 -0.9,-0.1 -0.7,0 -1.3,0.2 -1.7,0.5 -0.4,0.4 -0.6,0.9 -0.6,1.6 0,0.3 0,0.6 0.1,0.8 0.1,0.2 0.2,0.4 0.4,0.6 0.2,0.2 0.4,0.3 0.6,0.5 0.2,0.1 0.5,0.2 0.8,0.4 0.2,0.1 0.5,0.2 0.6,0.2 0.2,0.1 0.3,0.2 0.4,0.3 0.1,0.1 0.2,0.2 0.2,0.3 0,0.1 0.1,0.3 0.1,0.4 0,0.3 -0.1,0.5 -0.3,0.7 -0.2,0.1 -0.4,0.2 -0.6,0.2 -0.2,0 -0.4,0 -0.5,-0.1 -0.1,-0.1 -0.2,-0.1 -0.3,-0.2 -0.1,-0.1 -0.1,-0.2 -0.2,-0.4 V 84 Z m 70.844,2.638 h 1.4 v -3.3 c 0,-0.2 0,-0.3 0.1,-0.5 0.1,-0.1 0.1,-0.2 0.2,-0.3 0.1,-0.1 0.2,-0.1 0.3,-0.2 0.1,0 0.2,-0.1 0.4,-0.1 h 0.4 v -1.4 h -0.2 c -0.3,0 -0.5,0.1 -0.7,0.2 -0.2,0.2 -0.4,0.4 -0.5,0.6 v -0.7 h -1.4 z m -3.6,-3.4 v -0.6 c 0,-0.1 0.1,-0.2 0.1,-0.4 0.1,-0.1 0.1,-0.2 0.2,-0.3 0.1,-0.1 0.2,-0.1 0.4,-0.1 0.1,0 0.3,0 0.4,0.1 0.1,0.1 0.2,0.1 0.2,0.3 0.1,0.1 0.1,0.2 0.1,0.4 v 0.6 z m 2.8,0.8 v -0.3 c 0,-0.4 0,-0.8 -0.1,-1.2 -0.1,-0.3 -0.2,-0.6 -0.3,-0.9 -0.2,-0.2 -0.4,-0.4 -0.6,-0.6 -0.3,-0.1 -0.6,-0.2 -1,-0.2 -0.5,0 -0.9,0.1 -1.1,0.2 -0.3,0.2 -0.5,0.4 -0.7,0.6 -0.2,0.3 -0.3,0.6 -0.3,0.9 -0.1,0.3 -0.1,0.7 -0.1,1.1 v 1 c 0,0.4 0.1,0.7 0.3,1 0.1,0.3 0.3,0.5 0.6,0.7 0.3,0.2 0.7,0.3 1.2,0.3 0.7,0 1.2,-0.2 1.5,-0.5 0.3,-0.3 0.5,-0.8 0.5,-1.5 h -1.3 c 0,0.3 -0.1,0.6 -0.2,0.8 -0.1,0.2 -0.3,0.3 -0.5,0.3 -0.1,0 -0.2,0 -0.3,-0.1 -0.1,-0.1 -0.2,-0.2 -0.2,-0.3 -0.1,-0.1 -0.1,-0.3 -0.1,-0.4 v -0.9 z m -6.8,-2.9 h -0.8 v 1 h 0.7 v 3.2 c 0,0.3 0,0.5 0.1,0.7 0,0.2 0.1,0.3 0.2,0.4 0.1,0.1 0.2,0.2 0.4,0.2 0.2,0 0.4,0.1 0.7,0.1 h 1 v -1 h -0.4 c -0.2,0 -0.3,0 -0.4,-0.1 -0.1,-0.1 -0.1,-0.2 -0.1,-0.5 v -3 h 0.8 v -1 h -0.8 v -1.6 h -1.4 z m -4,2.1 v -0.6 c 0,-0.1 0.1,-0.2 0.1,-0.4 0.1,-0.1 0.1,-0.2 0.2,-0.3 0.1,-0.1 0.2,-0.1 0.4,-0.1 0.2,0 0.3,0 0.4,0.1 0.1,0.1 0.2,0.1 0.2,0.3 0.1,0.1 0.1,0.2 0.1,0.4 v 0.6 z m 2.8,0.8 v -0.3 c 0,-0.4 0,-0.8 -0.1,-1.2 -0.1,-0.3 -0.2,-0.6 -0.3,-0.9 -0.2,-0.2 -0.4,-0.4 -0.6,-0.6 -0.3,-0.1 -0.6,-0.2 -1,-0.2 -0.5,0 -0.9,0.1 -1.1,0.2 -0.3,0.2 -0.5,0.4 -0.7,0.6 -0.2,0.3 -0.3,0.6 -0.3,0.9 -0.1,0.3 -0.1,0.7 -0.1,1.1 v 1 c 0,0.4 0.1,0.7 0.2,1 0.1,0.3 0.3,0.5 0.6,0.7 0.3,0.2 0.7,0.3 1.2,0.3 0.7,0 1.2,-0.2 1.5,-0.5 0.3,-0.3 0.5,-0.8 0.5,-1.5 h -1.3 c 0,0.3 -0.1,0.6 -0.2,0.8 -0.1,0.2 -0.3,0.3 -0.5,0.3 -0.1,0 -0.2,0 -0.3,-0.1 -0.1,-0.1 -0.2,-0.2 -0.2,-0.3 -0.1,-0.1 -0.1,-0.3 -0.1,-0.4 v -0.9 z m -7.6,2.6 h 1.4 v -3.3 c 0,-0.2 0,-0.3 0.1,-0.5 0.1,-0.1 0.1,-0.2 0.2,-0.3 0.1,-0.1 0.2,-0.1 0.3,-0.2 0.1,0 0.2,-0.1 0.4,-0.1 h 0.4 v -1.4 h -0.2 c -0.3,0 -0.5,0.1 -0.7,0.2 -0.2,0.2 -0.4,0.4 -0.5,0.6 v -0.7 h -1.4 z m -5.2,-7.3 v 7.3 h 1.4 v -1.6 l 0.5,-0.7 1.2,2.3 h 1.5 l -1.8,-3.3 1.6,-2.2 h -1.6 l -1.4,2.1 v -3.9 z m -4.9,5.5 v 0.2 c 0,0.3 0,0.5 0.1,0.7 0.1,0.2 0.2,0.4 0.3,0.6 0.2,0.2 0.4,0.3 0.6,0.4 0.3,0.1 0.6,0.1 1,0.1 0.3,0 0.6,0 0.8,-0.1 0.3,-0.1 0.5,-0.2 0.6,-0.3 0.2,-0.1 0.3,-0.3 0.4,-0.5 0.1,-0.2 0.2,-0.5 0.2,-0.8 0,-0.4 -0.1,-0.7 -0.3,-1 -0.2,-0.2 -0.5,-0.4 -0.9,-0.6 l -0.8,-0.3 c -0.2,-0.1 -0.4,-0.2 -0.5,-0.3 -0.1,-0.1 -0.1,-0.2 -0.1,-0.4 0,-0.2 0.1,-0.3 0.2,-0.4 0.1,-0.1 0.3,-0.1 0.5,-0.1 0.2,0 0.4,0.1 0.5,0.2 0.1,0.1 0.1,0.3 0.1,0.6 h 1.3 v -0.2 c 0,-0.5 -0.2,-0.9 -0.5,-1.2 -0.3,-0.3 -0.8,-0.4 -1.4,-0.4 -0.4,0 -0.7,0 -0.9,0.1 -0.3,0.1 -0.5,0.2 -0.6,0.4 -0.2,0.1 -0.3,0.3 -0.4,0.5 -0.1,0.2 -0.1,0.4 -0.1,0.6 0,0.4 0.1,0.7 0.3,1 0.2,0.2 0.5,0.4 0.9,0.6 l 1,0.4 c 0.1,0.1 0.3,0.1 0.4,0.2 0.1,0.1 0.2,0.2 0.2,0.4 0,0.2 -0.1,0.4 -0.2,0.5 -0.1,0.1 -0.3,0.2 -0.5,0.2 -0.2,0 -0.4,-0.1 -0.5,-0.2 -0.1,-0.1 -0.2,-0.3 -0.2,-0.6 v -0.2 h -1.5 z m -2.2,1.8 h 1.4 v -5.5 h -1.4 z m 0,-6.2 h 1.4 v -1.2 h -1.4 z m -3.8,2.1 c 0.1,-0.3 0.3,-0.5 0.6,-0.5 0.3,0 0.5,0.2 0.6,0.5 0.1,0.3 0.1,0.8 0.1,1.4 0,0.6 0,1.1 -0.1,1.4 -0.1,0.3 -0.3,0.5 -0.6,0.5 -0.3,0 -0.5,-0.2 -0.6,-0.5 -0.1,-0.3 -0.1,-0.8 -0.1,-1.4 0,-0.7 0,-1.1 0.1,-1.4 m 1.3,4.1 h 1.4 v -7.3 h -1.4 v 2.3 c -0.2,-0.2 -0.3,-0.4 -0.5,-0.5 -0.2,-0.1 -0.4,-0.2 -0.7,-0.2 -0.6,0 -1,0.2 -1.3,0.7 -0.3,0.5 -0.4,1.2 -0.4,2.2 0,1 0.1,1.8 0.4,2.2 0.3,0.5 0.7,0.7 1.3,0.7 0.3,0 0.5,-0.1 0.7,-0.2 0.2,-0.1 0.4,-0.3 0.5,-0.6 z"
   style="fill:#00549f;fill-rule:nonzero"
   id="path15" />
        <g
   id="g16">
            <path
   d="m 111.399,72.384 v -0.6 c 0,-0.1 0.1,-0.2 0.1,-0.4 0.1,-0.1 0.1,-0.2 0.2,-0.3 0.1,-0.1 0.2,-0.1 0.4,-0.1 0.2,0 0.3,0 0.4,0.1 0.1,0.1 0.2,0.1 0.2,0.3 0.1,0.1 0.1,0.2 0.1,0.4 v 0.6 z m 2.8,0.8 v -0.3 c 0,-0.4 0,-0.8 -0.1,-1.2 -0.1,-0.3 -0.2,-0.6 -0.3,-0.9 -0.1,-0.2 -0.4,-0.4 -0.6,-0.6 -0.3,-0.1 -0.6,-0.2 -1,-0.2 -0.5,0 -0.9,0.1 -1.1,0.2 -0.3,0.2 -0.5,0.4 -0.7,0.6 -0.2,0.3 -0.3,0.6 -0.3,0.9 -0.1,0.3 -0.1,0.7 -0.1,1.1 v 1 c 0,0.3 0.1,0.7 0.3,1 0.1,0.3 0.3,0.5 0.6,0.7 0.3,0.2 0.7,0.3 1.2,0.3 0.7,0 1.2,-0.2 1.5,-0.5 0.3,-0.3 0.5,-0.8 0.5,-1.5 h -1.3 c 0,0.3 -0.1,0.6 -0.2,0.8 -0.1,0.2 -0.3,0.3 -0.5,0.3 -0.1,0 -0.2,0 -0.3,-0.1 -0.1,-0.1 -0.2,-0.2 -0.2,-0.3 -0.1,-0.1 -0.1,-0.3 -0.1,-0.4 v -0.9 z m -6.5,2.6 h 1.4 v -5.5 h -1.4 z m 0,-6.2 h 1.4 v -1.2 h -1.4 z m -3.6,6.2 h 1.4 v -3.3 c 0,-0.2 0,-0.3 0.1,-0.5 0.1,-0.1 0.1,-0.2 0.2,-0.3 0.1,-0.1 0.2,-0.1 0.3,-0.2 0.1,0 0.2,-0.1 0.4,-0.1 h 0.4 v -1.3 h -0.2 c -0.3,0 -0.5,0.1 -0.7,0.2 -0.2,0.2 -0.4,0.4 -0.5,0.6 v -0.7 h -1.4 z m -3.7,-3.6 c 0,-0.2 0,-0.4 0.1,-0.6 0.1,-0.2 0.1,-0.3 0.2,-0.4 0.1,-0.1 0.2,-0.1 0.4,-0.1 0.3,0 0.5,0.1 0.6,0.4 0.1,0.3 0.2,0.8 0.2,1.5 0,0.7 -0.1,1.2 -0.2,1.5 -0.1,0.3 -0.3,0.4 -0.6,0.4 -0.2,0 -0.3,0 -0.4,-0.1 -0.1,-0.1 -0.2,-0.2 -0.2,-0.4 -0.1,-0.2 -0.1,-0.4 -0.1,-0.6 v -1.6 m -1.3,2.1 c 0.1,0.4 0.2,0.7 0.3,0.9 0.2,0.2 0.4,0.4 0.7,0.5 0.3,0.1 0.6,0.2 1.1,0.2 0.4,0 0.7,-0.1 1,-0.2 0.3,-0.1 0.5,-0.3 0.7,-0.6 0.2,-0.2 0.3,-0.5 0.4,-0.9 0.1,-0.4 0.1,-0.8 0.1,-1.2 0,-0.5 0,-0.9 -0.1,-1.3 -0.1,-0.4 -0.2,-0.7 -0.3,-0.9 -0.2,-0.2 -0.4,-0.4 -0.7,-0.5 -0.3,-0.1 -0.6,-0.2 -1.1,-0.2 -0.4,0 -0.7,0.1 -1,0.2 -0.3,0.1 -0.5,0.3 -0.7,0.6 -0.2,0.2 -0.3,0.5 -0.4,0.9 -0.1,0.4 -0.1,0.8 -0.1,1.2 0,0.5 0,0.9 0.1,1.3 m -3.6,-1.9 v -0.6 c 0,-0.1 0.1,-0.2 0.1,-0.4 0.1,-0.1 0.1,-0.2 0.2,-0.3 0.1,-0.1 0.2,-0.1 0.4,-0.1 0.1,0 0.3,0 0.4,0.1 0.1,0.1 0.2,0.1 0.2,0.3 0.1,0.1 0.1,0.2 0.1,0.4 v 0.6 z m 2.8,0.8 v -0.3 c 0,-0.4 0,-0.8 -0.1,-1.2 -0.1,-0.3 -0.2,-0.6 -0.3,-0.9 -0.1,-0.2 -0.4,-0.4 -0.6,-0.6 -0.3,-0.1 -0.6,-0.2 -1,-0.2 -0.5,0 -0.9,0.1 -1.1,0.2 -0.3,0.2 -0.5,0.4 -0.7,0.6 -0.2,0.3 -0.3,0.6 -0.3,0.9 -0.1,0.3 -0.1,0.7 -0.1,1.1 v 1 c 0,0.3 0.1,0.7 0.2,1 0.1,0.3 0.3,0.5 0.6,0.7 0.3,0.2 0.7,0.3 1.2,0.3 0.7,0 1.2,-0.2 1.5,-0.5 0.3,-0.3 0.5,-0.8 0.5,-1.5 h -1.3 c 0,0.3 -0.1,0.6 -0.2,0.8 -0.1,0.2 -0.3,0.3 -0.5,0.3 -0.1,0 -0.2,0 -0.3,-0.1 -0.1,-0.1 -0.2,-0.2 -0.2,-0.3 -0.1,-0.1 -0.1,-0.3 -0.1,-0.4 v -0.9 z m -9.2,2.6 h 1.4 v -3.7 c 0,-0.6 0.2,-0.9 0.7,-0.9 0.2,0 0.4,0.1 0.5,0.2 0.1,0.1 0.1,0.3 0.1,0.6 v 3.8 h 1.4 v -4.1 c 0,-0.6 -0.1,-1 -0.4,-1.2 -0.2,-0.2 -0.6,-0.4 -1,-0.4 -0.6,0 -1.1,0.2 -1.3,0.7 v -2.4 h -1.4 z m -5.3,-7.3 v 1.2 h 1.6 v 6.1 h 1.5 v -6.1 h 1.6 v -1.2 z m 45.903,2.937 c 0.1,-0.3 0.3,-0.5 0.6,-0.5 0.3,0 0.5,0.2 0.6,0.5 0.1,0.3 0.1,0.8 0.1,1.4 0,0.6 0,1.1 -0.1,1.4 -0.1,0.3 -0.3,0.5 -0.6,0.5 -0.3,0 -0.5,-0.2 -0.6,-0.5 -0.1,-0.3 -0.1,-0.8 -0.1,-1.4 -0.1,-0.7 0,-1.1 0.1,-1.4 m 1.4,4.1 h 1.4 v -7.3 h -1.4 v 2.3 c -0.2,-0.2 -0.3,-0.4 -0.5,-0.5 -0.2,-0.1 -0.4,-0.2 -0.7,-0.2 -0.6,0 -1,0.2 -1.3,0.7 -0.3,0.5 -0.4,1.2 -0.4,2.2 0,1 0.1,1.8 0.4,2.2 0.3,0.5 0.7,0.7 1.3,0.7 0.3,0 0.5,-0.1 0.7,-0.2 0.2,-0.1 0.4,-0.3 0.5,-0.6 z m -8.1,0 h 1.5 v -3.7 c 0,-0.6 0.2,-0.9 0.7,-0.9 0.2,0 0.4,0.1 0.5,0.2 0.1,0.1 0.1,0.3 0.1,0.6 v 3.8 h 1.4 v -4.1 c 0,-0.6 -0.1,-1 -0.4,-1.2 -0.2,-0.2 -0.6,-0.4 -1,-0.4 -0.3,0 -0.6,0.1 -0.8,0.2 -0.2,0.1 -0.4,0.3 -0.6,0.6 v -0.6 h -1.4 z m -2.3,0 h 1.4 v -5.5 h -1.5 v 3.7 c 0,0.6 -0.2,0.9 -0.7,0.9 -0.2,0 -0.4,-0.1 -0.5,-0.2 -0.1,-0.1 -0.1,-0.3 -0.1,-0.6 v -3.8 h -1.4 v 4.1 c 0,0.6 0.1,1 0.4,1.2 0.2,0.2 0.6,0.4 1,0.4 0.3,0 0.6,-0.1 0.8,-0.2 0.2,-0.1 0.4,-0.3 0.6,-0.6 z m 33.12,-7.378 v 7.3 h 1.4 v -1.6 l 0.5,-0.7 1.2,2.3 h 1.6 l -1.8,-3.3 1.6,-2.2 h -1.6 l -1.4,2.1 v -3.9 z m -2.5,7.3 h 1.4 v -5.5 h -1.4 z m 0,-6.2 h 1.4 v -1.2 h -1.4 z m -2.4,0.7 v 0.6 c -0.1,-0.3 -0.3,-0.5 -0.5,-0.6 -0.2,-0.1 -0.4,-0.2 -0.6,-0.2 -0.4,0 -0.7,0.1 -0.9,0.3 -0.2,0.2 -0.4,0.4 -0.5,0.7 -0.1,0.3 -0.2,0.6 -0.2,0.9 0,0.3 -0.1,0.7 -0.1,1 0,1 0.1,1.7 0.4,2.1 0.3,0.4 0.7,0.6 1.3,0.6 0.2,0 0.4,-0.1 0.7,-0.2 0.2,-0.1 0.4,-0.3 0.5,-0.5 v 0.7 c 0,0.3 -0.1,0.5 -0.2,0.7 -0.1,0.2 -0.3,0.3 -0.6,0.3 h -0.3 c -0.1,0 -0.2,-0.1 -0.2,-0.1 -0.1,-0.1 -0.2,-0.2 -0.2,-0.4 h -1.4 c 0,0.5 0.2,0.8 0.5,1.1 0.3,0.3 -0.348,0.467 0.252,0.467 0.8,0 2.548,-0.267 2.948,-0.567 0.4,-0.4 0.5,-0.9 0.5,-1.6 v -5.2 h -1.4 z m -1.4,2 c 0,-0.3 0.1,-0.5 0.1,-0.6 0.1,-0.2 0.1,-0.3 0.2,-0.3 0.1,-0.1 0.2,-0.1 0.4,-0.1 0.3,0 0.5,0.1 0.6,0.4 0.1,0.3 0.2,0.8 0.2,1.4 v 0.6 c 0,0.2 -0.1,0.4 -0.1,0.5 -0.1,0.1 -0.1,0.2 -0.2,0.3 -0.1,0.1 -0.2,0.1 -0.4,0.1 -0.2,0 -0.3,0 -0.4,-0.1 -0.1,-0.1 -0.2,-0.2 -0.2,-0.3 -0.1,-0.1 -0.1,-0.3 -0.1,-0.5 v -0.5 c -0.2,-0.4 -0.2,-0.7 -0.1,-0.9 m -5.1,-0.1 c 0,-0.2 0,-0.4 0.1,-0.6 0.1,-0.2 0.1,-0.3 0.2,-0.4 0.1,-0.1 0.3,-0.1 0.4,-0.1 0.3,0 0.5,0.1 0.6,0.4 0.1,0.3 0.2,0.8 0.2,1.5 0,0.7 -0.1,1.2 -0.2,1.5 -0.1,0.3 -0.3,0.4 -0.6,0.4 -0.2,0 -0.3,0 -0.4,-0.1 -0.1,-0.1 -0.2,-0.2 -0.2,-0.4 -0.1,-0.2 -0.1,-0.4 -0.1,-0.6 v -1.6 m -1.3,2.1 c 0.1,0.4 0.2,0.7 0.3,0.9 0.2,0.2 0.4,0.4 0.7,0.5 0.3,0.1 0.6,0.2 1.1,0.2 0.4,0 0.7,-0.1 1,-0.2 0.3,-0.1 0.5,-0.3 0.7,-0.6 0.2,-0.2 0.3,-0.5 0.4,-0.9 0.1,-0.4 0.1,-0.8 0.1,-1.2 0,-0.5 0,-0.9 -0.1,-1.3 -0.1,-0.4 -0.2,-0.7 -0.3,-0.9 -0.2,-0.2 -0.4,-0.4 -0.7,-0.5 -0.3,-0.1 -0.6,-0.2 -1.1,-0.2 -0.4,0 -0.7,0.1 -1,0.2 -0.3,0.1 -0.5,0.3 -0.7,0.6 -0.2,0.2 -0.3,0.5 -0.4,0.9 -0.1,0.3 -0.1,0.7 -0.1,1.2 0,0.5 0,0.9 0.1,1.3 m -0.7,1.5 v -1.2 h -2.6 v -6.1 h -1.5 v 7.3 z M 81.6,67.4 c -0.5,0.8 -0.9,1.6 -1.1,2.4 -0.2,0.8 -0.3,1.5 -0.3,2.2 0,0.7 0.1,1.5 0.3,2.2 0.2,0.8 0.6,1.6 1.1,2.4 h 1.1 C 82.5,76.2 82.3,75.8 82.2,75.5 82,75.1 81.9,74.8 81.8,74.4 81.7,74 81.6,73.7 81.6,73.3 c 0,-0.4 -0.1,-0.8 -0.1,-1.2 0,-0.4 0,-0.8 0.1,-1.2 0,-0.4 0.1,-0.8 0.2,-1.1 0.1,-0.4 0.2,-0.7 0.4,-1.1 0.2,-0.4 0.3,-0.7 0.5,-1.1 h -1.1 z"
   style="fill:#00549f;fill-rule:nonzero"
   id="path16" />
        </g>
        <path
   d="m 79.987,55.9 v 1.3 h 3 c -0.4,0.5 -0.7,1 -0.9,1.5 -0.3,0.5 -0.5,1 -0.7,1.5 -0.2,0.5 -0.3,1 -0.4,1.5 -0.1,0.5 -0.2,0.9 -0.2,1.4 h 1.5 c 0.1,-0.5 0.2,-1 0.3,-1.6 0.1,-0.5 0.3,-1 0.4,-1.6 0.2,-0.5 0.4,-1 0.6,-1.5 0.2,-0.5 0.5,-0.9 0.8,-1.4 v -1.1 z m 44.918,-0.1 v 7.3 h 1.4 v -1.6 l 0.5,-0.7 1.2,2.3 h 1.6 l -1.8,-3.3 1.6,-2.2 h -1.6 l -1.4,2.1 v -3.9 z m -2.5,7.3 h 1.4 v -5.5 h -1.4 z m 0,-6.2 h 1.4 v -1.2 h -1.4 z m -2.9,0.7 h -0.7 v 1 h 0.7 v 3.2 c 0,0.3 0,0.5 0.1,0.7 0,0.2 0.1,0.3 0.2,0.4 0.1,0.1 0.2,0.2 0.4,0.2 0.2,0 0.4,0.1 0.7,0.1 h 1 v -1 h -0.4 c -0.2,0 -0.3,0 -0.4,-0.1 -0.1,-0.1 -0.1,-0.2 -0.1,-0.5 v -3 h 0.8 v -1 h -0.9 V 56 h -1.4 z m -2.7,3.8 c 0,0.2 0,0.3 -0.1,0.4 -0.1,0.1 -0.1,0.2 -0.2,0.3 -0.1,0.1 -0.2,0.1 -0.3,0.1 h -0.3 c -0.2,0 -0.3,-0.1 -0.4,-0.2 -0.1,-0.2 -0.1,-0.3 -0.1,-0.5 0,-0.2 0.1,-0.4 0.2,-0.6 0.1,-0.1 0.3,-0.2 0.6,-0.3 0.1,0 0.2,-0.1 0.3,-0.1 0.1,0 0.2,-0.1 0.3,-0.2 z m -1.3,-2.2 V 59 c 0,-0.2 0.1,-0.4 0.2,-0.5 0.1,-0.1 0.3,-0.2 0.5,-0.2 0.2,0 0.4,0.1 0.5,0.2 0.1,0.1 0.1,0.3 0.1,0.5 0,0.2 0,0.3 -0.1,0.4 -0.1,0.1 -0.2,0.2 -0.4,0.2 l -0.8,0.2 c -0.2,0.1 -0.5,0.1 -0.6,0.2 -0.2,0.1 -0.3,0.2 -0.4,0.3 -0.1,0.1 -0.2,0.3 -0.2,0.5 -0.1,0.2 -0.1,0.4 -0.1,0.7 0,0.2 0,0.4 0.1,0.6 0,0.2 0.1,0.4 0.2,0.5 0.1,0.1 0.2,0.3 0.4,0.4 0.2,0.1 0.4,0.1 0.6,0.1 0.3,0 0.6,0 0.8,-0.1 0.2,-0.1 0.4,-0.3 0.6,-0.6 0,0.1 0,0.2 0.1,0.3 0,0.1 0.1,0.2 0.1,0.3 h 1.3 c -0.1,-0.2 -0.1,-0.3 -0.1,-0.5 V 59 c 0,-0.2 0,-0.5 -0.1,-0.7 -0.1,-0.2 -0.1,-0.4 -0.3,-0.5 -0.1,-0.2 -0.3,-0.3 -0.6,-0.3 -0.3,-0.1 -0.6,-0.1 -1,-0.1 -0.3,0 -0.5,0 -0.8,0.1 -0.2,0.1 -0.4,0.2 -0.6,0.3 -0.2,0.1 -0.3,0.3 -0.4,0.5 -0.1,0.2 -0.2,0.5 -0.2,0.8 v 0.1 z m -9,3.9 h 1.4 v -3.6 c 0,-0.3 0.1,-0.6 0.2,-0.7 0.1,-0.2 0.3,-0.2 0.5,-0.2 0.2,0 0.3,0.1 0.4,0.2 0.1,0.1 0.1,0.3 0.1,0.5 v 3.8 h 1.4 v -3.6 c 0,-0.3 0.1,-0.6 0.2,-0.7 0.1,-0.2 0.3,-0.2 0.5,-0.2 0.2,0 0.3,0.1 0.4,0.2 0.1,0.1 0.1,0.3 0.1,0.5 v 3.8 h 1.4 v -4 c 0,-0.5 -0.1,-0.9 -0.3,-1.2 -0.2,-0.3 -0.6,-0.4 -1,-0.4 -0.3,0 -0.6,0.1 -0.9,0.2 -0.2,0.1 -0.4,0.4 -0.5,0.7 -0.1,-0.3 -0.2,-0.5 -0.4,-0.7 -0.2,-0.2 -0.5,-0.2 -0.8,-0.2 -0.3,0 -0.6,0.1 -0.8,0.2 -0.2,0.1 -0.4,0.3 -0.6,0.5 v -0.6 h -1.3 z m -3.5,0 h 1.4 v -3.3 c 0,-0.2 0,-0.3 0.1,-0.5 0.1,-0.1 0.1,-0.2 0.2,-0.3 0.1,-0.1 0.2,-0.1 0.3,-0.2 0.1,0 0.2,-0.1 0.4,-0.1 h 0.4 v -1.4 h -0.2 c -0.3,0 -0.5,0.1 -0.7,0.2 -0.2,0.2 -0.4,0.4 -0.5,0.6 v -0.7 h -1.3 v 5.7 z m -3.8,-3.6 c 0,-0.2 0,-0.4 0.1,-0.6 0.1,-0.2 0.1,-0.3 0.2,-0.4 0.1,-0.1 0.2,-0.1 0.4,-0.1 0.3,0 0.5,0.1 0.6,0.5 0.1,0.3 0.2,0.8 0.2,1.5 0,0.7 -0.1,1.2 -0.2,1.5 -0.1,0.3 -0.3,0.5 -0.6,0.5 -0.2,0 -0.3,0 -0.4,-0.1 -0.1,-0.1 -0.2,-0.2 -0.2,-0.4 -0.1,-0.2 -0.1,-0.4 -0.1,-0.6 v -1.8 m -1.3,2.1 c 0.1,0.4 0.2,0.7 0.3,0.9 0.2,0.2 0.4,0.4 0.7,0.5 0.3,0.1 0.6,0.2 1.1,0.2 0.4,0 0.7,-0.1 1,-0.2 0.3,-0.1 0.5,-0.3 0.7,-0.6 0.2,-0.2 0.3,-0.5 0.4,-0.9 0.1,-0.4 0.1,-0.8 0.1,-1.2 0,-0.5 0,-0.9 -0.1,-1.3 -0.1,-0.4 -0.2,-0.7 -0.3,-0.9 -0.2,-0.2 -0.4,-0.4 -0.7,-0.5 -0.3,-0.1 -0.6,-0.2 -1.1,-0.2 -0.4,0 -0.7,0.1 -1,0.2 -0.3,0.1 -0.5,0.3 -0.7,0.6 -0.2,0.2 -0.3,0.5 -0.4,0.9 -0.1,0.4 -0.1,0.8 -0.1,1.2 0,0.5 0,0.9 0.1,1.3 m -2.9,1.5 h 1.6 v -4.5 h 0.8 v -1 h -0.8 v -0.5 c 0,-0.2 0,-0.3 0.1,-0.3 0.1,0 0.2,-0.1 0.4,-0.1 h 0.2 v -1 h -0.8 c -0.2,0 -0.4,0 -0.6,0.1 -0.2,0 -0.3,0.1 -0.5,0.2 -0.1,0.1 -0.2,0.2 -0.3,0.4 -0.1,0.2 -0.1,0.4 -0.1,0.6 v 0.6 h -0.7 v 1 h 0.7 z m -5.3,0 h 1.4 v -3.7 c 0,-0.6 0.2,-0.9 0.7,-0.9 0.2,0 0.4,0.1 0.5,0.2 0.1,0.1 0.1,0.3 0.1,0.6 v 3.8 h 1.4 V 59 c 0,-0.6 -0.1,-1 -0.4,-1.2 -0.2,-0.2 -0.6,-0.4 -1,-0.4 -0.3,0 -0.6,0.1 -0.8,0.2 -0.2,0.1 -0.4,0.3 -0.6,0.6 v -0.6 h -1.3 z m -1.1,-7.3 h -1.5 v 7.3 h 1.5 z"
   style="fill:#00549f;fill-rule:nonzero"
   id="path17" />
        <path
   d="m 129.9,51.5 h 1.4 v -3.3 c 0,-0.2 0,-0.3 0.1,-0.5 0.1,-0.1 0.1,-0.2 0.2,-0.3 0.1,-0.1 0.2,-0.1 0.3,-0.2 0.1,0 0.2,-0.1 0.4,-0.1 h 0.4 v -1.4 h -0.2 c -0.3,0 -0.5,0.1 -0.7,0.2 -0.2,0.2 -0.4,0.4 -0.5,0.6 V 46 H 130 v 5.5 z m -4.5,-6.3 h 1.1 V 44 h -1.1 z m 1.7,0 h 1.1 V 44 h -1.1 z m 0.5,6.3 h 1.3 V 46 h -1.4 v 3.7 c 0,0.6 -0.2,0.9 -0.7,0.9 -0.2,0 -0.4,-0.1 -0.5,-0.2 -0.1,-0.1 -0.1,-0.3 -0.1,-0.6 V 46 h -1.4 v 4 c 0,0.6 0.1,1 0.4,1.2 0.2,0.2 0.6,0.4 1,0.4 0.3,0 0.6,-0.1 0.8,-0.2 0.2,-0.1 0.4,-0.3 0.6,-0.6 z m -5.9,0 h 1.6 V 47 h 0.8 v -1 h -0.8 v -0.5 c 0,-0.2 0,-0.3 0.1,-0.3 0.1,-0.1 0.2,-0.1 0.4,-0.1 h 0.2 v -1 h -0.8 c -0.2,0 -0.4,0 -0.6,0.1 -0.2,0 -0.3,0.1 -0.5,0.2 -0.1,0.1 -0.2,0.2 -0.3,0.4 -0.1,0.2 -0.1,0.4 -0.1,0.6 V 46 H 121 v 1 h 0.7 z m -4.9,0 h 1.4 v -7.3 h -1.4 z m -5.2,0 h 1.4 v -3.7 c 0,-0.6 0.2,-0.9 0.7,-0.9 0.2,0 0.4,0.1 0.5,0.2 0.1,0.1 0.1,0.3 0.1,0.6 v 3.8 h 1.4 v -4.1 c 0,-0.6 -0.1,-1 -0.4,-1.2 -0.2,-0.2 -0.6,-0.4 -1,-0.4 -0.6,0 -1.1,0.2 -1.3,0.7 v -2.4 h -1.4 z m -2.4,0 h 1.4 V 46 h -1.4 v 3.7 c 0,0.6 -0.2,0.9 -0.7,0.9 -0.2,0 -0.4,-0.1 -0.5,-0.2 -0.1,-0.1 -0.1,-0.3 -0.1,-0.6 V 46 h -1.4 v 4 c 0,0.6 0.1,1 0.4,1.2 0.2,0.2 0.6,0.4 1,0.4 0.3,0 0.6,-0.1 0.8,-0.2 0.2,-0.1 0.4,-0.3 0.6,-0.6 v 0.7 z M 103.6,46 h -0.7 v 1 h 0.7 v 3.2 c 0,0.3 0,0.5 0.1,0.7 0,0.2 0.1,0.3 0.2,0.4 0.1,0.1 0.2,0.2 0.4,0.2 0.2,0 0.4,0.1 0.7,0.1 h 1 v -1 h -0.4 c -0.2,0 -0.3,0 -0.4,-0.1 -0.1,-0.1 -0.1,-0.2 -0.1,-0.5 v -3 h 0.8 V 46 H 105 v -1.6 h -1.4 z m -5.3,3.7 v 0.2 c 0,0.3 0,0.5 0.1,0.7 0.1,0.2 0.2,0.4 0.3,0.6 0.2,0.2 0.4,0.3 0.6,0.4 0.3,0.1 0.6,0.1 1,0.1 0.3,0 0.6,0 0.8,-0.1 0.3,-0.1 0.5,-0.2 0.7,-0.3 0.2,-0.1 0.3,-0.3 0.4,-0.5 0.1,-0.2 0.2,-0.5 0.2,-0.8 0,-0.4 -0.1,-0.7 -0.3,-1 -0.2,-0.2 -0.5,-0.4 -0.9,-0.6 l -0.8,-0.3 c -0.2,-0.1 -0.4,-0.2 -0.5,-0.3 -0.1,-0.1 -0.1,-0.2 -0.1,-0.4 0,-0.2 0.1,-0.3 0.2,-0.4 0.1,-0.1 0.3,-0.1 0.5,-0.1 0.2,0 0.4,0.1 0.5,0.2 0.1,0.1 0.1,0.3 0.1,0.6 h 1.3 v -0.2 c 0,-0.5 -0.2,-0.9 -0.5,-1.2 -0.3,-0.3 -0.8,-0.4 -1.4,-0.4 -0.4,0 -0.7,0 -0.9,0.1 -0.3,0.1 -0.5,0.2 -0.6,0.4 -0.1,0.2 -0.3,0.3 -0.4,0.5 -0.1,0.2 -0.1,0.4 -0.1,0.6 0,0.4 0.1,0.7 0.3,1 0.2,0.2 0.5,0.4 0.9,0.6 l 1,0.4 c 0.1,0.1 0.3,0.1 0.4,0.2 0.1,0.1 0.2,0.2 0.2,0.4 0,0.2 -0.1,0.4 -0.2,0.5 -0.1,0.1 -0.3,0.2 -0.5,0.2 -0.2,0 -0.4,-0.1 -0.5,-0.2 C 100,50.5 99.9,50.3 99.9,50 V 49.8 H 98.3 Z M 95,51.5 h 1.4 v -3.3 c 0,-0.2 0,-0.3 0.1,-0.5 0.1,-0.1 0.1,-0.2 0.2,-0.3 0.1,-0.1 0.2,-0.1 0.3,-0.2 0.1,0 0.2,-0.1 0.4,-0.1 h 0.4 v -1.4 h -0.2 c -0.3,0 -0.5,0.1 -0.7,0.2 -0.2,0.2 -0.4,0.4 -0.5,0.6 V 46 H 95 Z m -5.2,0 h 1.4 v -3.7 c 0,-0.6 0.2,-0.9 0.7,-0.9 0.2,0 0.4,0.1 0.5,0.2 0.1,0.1 0.1,0.3 0.1,0.6 v 3.8 H 94 v -4.1 c 0,-0.6 -0.1,-1 -0.4,-1.2 -0.2,-0.2 -0.6,-0.4 -1,-0.4 -0.6,0 -1.1,0.2 -1.3,0.7 v -2.4 h -1.4 v 7.4 z m -3.6,-3.4 v -0.6 c 0,-0.1 0.1,-0.2 0.1,-0.4 0.1,-0.1 0.1,-0.2 0.2,-0.3 0.1,-0.1 0.2,-0.1 0.4,-0.1 0.1,0 0.3,0 0.4,0.1 0.1,0.1 0.2,0.1 0.2,0.3 0.1,0.1 0.1,0.2 0.1,0.4 v 0.6 z m 2.8,0.8 v -0.3 c 0,-0.4 0,-0.8 -0.1,-1.2 -0.1,-0.3 -0.2,-0.6 -0.3,-0.9 -0.2,-0.2 -0.4,-0.4 -0.6,-0.6 -0.3,-0.1 -0.6,-0.2 -1,-0.2 -0.5,0 -0.9,0.1 -1.1,0.2 -0.3,0.2 -0.5,0.4 -0.7,0.6 -0.2,0.3 -0.3,0.6 -0.3,0.9 -0.1,0.3 -0.1,0.7 -0.1,1.1 v 1 c 0,0.4 0.1,0.7 0.3,1 0.1,0.3 0.3,0.5 0.6,0.7 0.3,0.2 0.7,0.3 1.2,0.3 0.7,0 1.2,-0.2 1.5,-0.5 0.3,-0.3 0.5,-0.8 0.5,-1.5 h -1.3 c 0,0.3 -0.1,0.6 -0.2,0.8 -0.1,0.2 -0.3,0.3 -0.5,0.3 -0.1,0 -0.2,0 -0.3,-0.1 -0.1,-0.1 -0.2,-0.2 -0.2,-0.3 -0.1,-0.1 -0.1,-0.3 -0.1,-0.4 v -0.9 z m -4.8,2.6 v -1.2 h -2.6 v -6.1 h -1.5 v 7.3 z"
   style="fill:#00549f;fill-rule:nonzero"
   id="path18" />
        <g
   transform="matrix(-1,0,0,1,97.7,0)"
   id="g19">
            <path
   d="m 45.1,60.2 h 1.6 v -1.4 h -1.6 z m 0,7.2 h 1.6 V 61 h -1.6 z m 7.5,-8.2 v 1.5 h -3.5 c 0.4,0.6 0.8,1.1 1.1,1.7 0.3,0.6 0.6,1.2 0.8,1.7 0.2,0.6 0.4,1.1 0.5,1.7 0.1,0.6 0.2,1.1 0.3,1.6 H 50 C 49.9,66.8 49.8,66.2 49.7,65.6 49.6,65 49.4,64.4 49.2,63.8 49,63.2 48.8,62.6 48.5,62.1 48.2,61.5 47.9,61 47.6,60.5 v -1.3 z"
   style="fill:#f6a800;fill-rule:nonzero"
   id="path19" />
        </g>
        <path
   d="M 42.2,69.4 V 56.9 c -0.3,0.2 -0.6,0.3 -1,0.3 V 69 c 0.3,0 0.7,0.2 1,0.4"
   style="fill:#8ebae5;fill-rule:nonzero"
   id="path20" />
        <path
   d="m 42.7,56.4 h 12.4 c -0.2,-0.3 -0.3,-0.6 -0.3,-1 H 43 c 0,0.4 -0.1,0.7 -0.3,1"
   style="fill:#8ebae5;fill-rule:nonzero"
   id="path21" />
        <path
   d="m 54.7,70.9 c 0,-0.4 0.1,-0.7 0.3,-1 H 42.7 c 0.2,0.3 0.3,0.6 0.3,1 z"
   style="fill:#8ebae5;fill-rule:nonzero"
   id="path22" />
        <path
   d="m 56.6,57.3 c -0.4,0 -0.7,-0.1 -1,-0.3 v 12.3 c 0.3,-0.2 0.6,-0.3 1,-0.3 h 0.1 L 56.6,57.3"
   style="fill:#8ebae5;fill-rule:nonzero"
   id="path23" />
        <path
   d="m 42.8,54.5 4,-5.2 c -0.4,0 -0.7,-0.2 -1,-0.4 l -3.7,4.8 c 0.3,0.2 0.5,0.5 0.7,0.8"
   style="fill:#8ebae5;fill-rule:nonzero"
   id="path24" />
        <path
   d="m 57.6,57 5.1,3.9 c 0,-0.4 0.2,-0.7 0.4,-1 l -4.8,-3.7 c -0.2,0.4 -0.4,0.6 -0.7,0.8"
   style="fill:#8ebae5;fill-rule:nonzero"
   id="path25" />
        <path
   d="m 34.9,64.8 5.8,-7.5 C 40.3,57.2 40,57.1 39.8,56.8 L 34.3,64 c 0.3,0.1 0.5,0.4 0.6,0.8"
   style="fill:#8ebae5;fill-rule:nonzero"
   id="path26" />
        <path
   d="m 55,71.9 -3.9,5 c 0.4,0 0.7,0.2 1,0.4 l 3.6,-4.7 C 55.4,72.4 55.2,72.2 55,71.9"
   style="fill:#8ebae5;fill-rule:nonzero"
   id="path27" />
        <path
   d="m 47.5,49.2 7.4,5.7 C 55,54.6 55.2,54.3 55.4,54 l -7,-5.4 c -0.3,0.3 -0.6,0.5 -0.9,0.6"
   style="fill:#8ebae5;fill-rule:nonzero"
   id="path28" />
        <path
   d="m 62.8,61.7 -5.7,7.4 c 0.3,0.1 0.6,0.3 0.9,0.5 l 5.4,-7 c -0.3,-0.2 -0.5,-0.5 -0.6,-0.9"
   style="fill:#8ebae5;fill-rule:nonzero"
   id="path29" />
        <path
   d="m 50.3,77 -7.4,-5.7 c -0.1,0.3 -0.3,0.7 -0.5,0.9 l 7,5.4 C 49.7,77.3 50,77.1 50.3,77"
   style="fill:#8ebae5;fill-rule:nonzero"
   id="path30" />
        <path
   d="m 39.5,70 c 0.2,-0.3 0.4,-0.6 0.7,-0.7 l -5.2,-4 v 0.1 c 0,0.4 -0.1,0.7 -0.3,1 z"
   style="fill:#8ebae5;fill-rule:nonzero"
   id="path31" />
        <path
   d="m 48.7,47.1 v 0.4 c 0,0.2 -0.1,0.5 -0.1,0.7 l 17.9,8.3 v -0.3 c 0,-0.3 0.1,-0.6 0.2,-0.8 z"
   style="fill:#8ebae5;fill-rule:nonzero"
   id="path32" />
        <path
   d="m 64.6,63 c -0.2,0 -0.5,0 -0.7,-0.1 l -8.3,17.7 h 0.2 c 0.3,0 0.6,0.1 0.8,0.2 L 65,63 h -0.4"
   style="fill:#8ebae5;fill-rule:nonzero"
   id="path33" />
        <path
   d="m 43,45.5 2.3,1.1 c 0.2,-0.3 0.4,-0.6 0.8,-0.8 L 43.8,44.7 C 43.5,45 43.3,45.3 43,45.5"
   style="fill:#8ebae5;fill-rule:nonzero"
   id="path34" />
        <path
   d="m 33.1,63.5 c 0.3,0 0.5,0.1 0.7,0.1 l 8.3,-17.9 h -0.2 c -0.3,0 -0.6,-0.1 -0.8,-0.2 l -8.4,17.9 c 0.2,0.1 0.3,0.1 0.4,0.1"
   style="fill:#8ebae5;fill-rule:nonzero"
   id="path35" />
        <path
   d="M 31.2,69.3 32.3,67 C 32,66.8 31.7,66.6 31.5,66.2 l -1.1,2.3 c 0.3,0.2 0.6,0.5 0.8,0.8"
   style="fill:#8ebae5;fill-rule:nonzero"
   id="path36" />
        <path
   d="M 49.1,79.2 C 49.1,79 49,78.9 49,78.7 c 0,-0.2 0,-0.4 0.1,-0.6 L 31.3,69.8 v 0.4 c 0,0.2 0,0.5 -0.1,0.7 z"
   style="fill:#8ebae5;fill-rule:nonzero"
   id="path37" />
        <path
   d="m 66.7,57 -1.2,2.5 c 0.3,0.2 0.6,0.5 0.8,0.8 l 1.1,-2.5 C 67.1,57.6 66.8,57.4 66.7,57"
   style="fill:#8ebae5;fill-rule:nonzero"
   id="path38" />
        <path
   d="m 55,80.8 -2.4,-1.1 c -0.2,0.3 -0.5,0.6 -0.8,0.7 l 2.5,1.1 C 54.4,81.3 54.6,81 55,80.8"
   style="fill:#8ebae5;fill-rule:nonzero"
   id="path39" />
        <path
   d="m 28.4,75.8 0.8,-3.7 c -0.4,-0.1 -0.7,-0.2 -1,-0.5 l -0.8,3.7 c 0.4,0 0.7,0.2 1,0.5"
   style="fill:#8ebae5;fill-rule:nonzero"
   id="path40" />
        <path
   d="m 68.4,58.1 c -0.2,0 -0.4,0 -0.6,-0.1 l -5.6,25.3 c 0.2,-0.1 0.5,-0.1 0.7,-0.1 h 0.4 L 68.9,58 c -0.2,0.1 -0.4,0.1 -0.5,0.1"
   style="fill:#8ebae5;fill-rule:nonzero"
   id="path41" />
        <path
   d="m 29.5,68.3 c 0.2,0 0.4,0 0.5,0.1 L 35.7,42.9 C 35.5,43 35.2,43 35,43 34.9,43 34.7,43 34.6,42.9 L 29,68.3 c 0.1,0.1 0.3,0 0.5,0"
   style="fill:#8ebae5;fill-rule:nonzero"
   id="path42" />
        <path
   d="m 69.4,50.5 -0.8,3.8 c 0.4,0 0.7,0.2 1,0.4 L 70.4,51 c -0.4,0 -0.7,-0.2 -1,-0.5"
   style="fill:#8ebae5;fill-rule:nonzero"
   id="path43" />
        <path
   d="m 43.7,43.2 c 0.1,0.2 0.1,0.5 0.1,0.7 v 0.4 L 69,49.9 c -0.1,-0.2 -0.1,-0.4 -0.1,-0.6 0,-0.2 0,-0.3 0.1,-0.5 z"
   style="fill:#8ebae5;fill-rule:nonzero"
   id="path44" />
        <path
   d="m 61.6,83.7 -3.8,-0.8 c -0.1,0.4 -0.3,0.7 -0.5,1 l 3.8,0.9 c 0,-0.5 0.2,-0.9 0.5,-1.1"
   style="fill:#8ebae5;fill-rule:nonzero"
   id="path45" />
        <path
   d="M 54.1,83.1 C 54,82.9 54,82.7 54,82.5 c 0,-0.2 0,-0.3 0.1,-0.4 L 28.8,76.5 c 0.1,0.2 0.1,0.4 0.1,0.7 v 0.4 z"
   style="fill:#8ebae5;fill-rule:nonzero"
   id="path46" />
        <path
   d="m 36.2,42.6 3.9,0.9 c 0.1,-0.4 0.3,-0.7 0.6,-1 l -3.9,-0.9 c -0.1,0.4 -0.3,0.8 -0.6,1"
   style="fill:#8ebae5;fill-rule:nonzero"
   id="path47" />
        <path
   d="m 70.8,51.1 c 1,0 1.9,-0.8 1.9,-1.9 0,-1.1 -0.8,-1.9 -1.9,-1.9 -1,0 -1.9,0.8 -1.9,1.9 0,1.1 0.9,1.9 1.9,1.9"
   style="fill:#00549f;fill-rule:nonzero"
   id="path48" />
        <path
   d="m 62.9,86.9 c 1,0 1.9,-0.8 1.9,-1.9 0,-1 -0.8,-1.9 -1.9,-1.9 -1,0 -1.9,0.8 -1.9,1.9 0,1 0.9,1.9 1.9,1.9"
   style="fill:#00549f;fill-rule:nonzero"
   id="path49" />
        <path
   d="m 27,79 c 1,0 1.9,-0.8 1.9,-1.9 0,-1.1 -0.8,-1.9 -1.9,-1.9 -1,0 -1.9,0.8 -1.9,1.9 0,1.1 0.9,1.9 1.9,1.9"
   style="fill:#00549f;fill-rule:nonzero"
   id="path50" />
        <path
   d="m 35,43 c 1,0 1.9,-0.8 1.9,-1.9 0,-1.1 -0.9,-1.8 -1.9,-1.8 -1,0 -1.9,0.8 -1.9,1.9 0,1.1 0.9,1.8 1.9,1.8"
   style="fill:#00549f;fill-rule:nonzero"
   id="path51" />
        <path
   d="m 68.4,58.1 c 1,0 1.9,-0.8 1.9,-1.9 0,-1.1 -0.8,-1.9 -1.9,-1.9 -1,0 -1.9,0.8 -1.9,1.9 0,1.1 0.8,1.9 1.9,1.9"
   style="fill:#00549f;fill-rule:nonzero"
   id="path52" />
        <path
   d="m 55.9,84.3 c 1,0 1.9,-0.8 1.9,-1.9 0,-1.1 -0.8,-1.9 -1.9,-1.9 -1,0 -1.9,0.8 -1.9,1.9 0,1.1 0.8,1.9 1.9,1.9"
   style="fill:#00549f;fill-rule:nonzero"
   id="path53" />
        <path
   d="m 29.5,72.1 c 1,0 1.9,-0.8 1.9,-1.9 0,-1.1 -0.8,-1.9 -1.9,-1.9 -1,0 -1.9,0.8 -1.9,1.9 0,1.1 0.9,1.9 1.9,1.9"
   style="fill:#00549f;fill-rule:nonzero"
   id="path54" />
        <path
   d="m 42,45.8 c 1,0 1.9,-0.8 1.9,-1.9 C 43.9,42.8 43,42 42,42 c -1,0 -1.9,0.8 -1.9,1.9 0,1.1 0.8,1.9 1.9,1.9"
   style="fill:#00549f;fill-rule:nonzero"
   id="path55" />
        <path
   d="m 64.6,63 c 1,0 1.9,-0.8 1.9,-1.9 0,-1.1 -0.8,-1.9 -1.9,-1.9 -1,0 -1.9,0.8 -1.9,1.9 0,1.1 0.8,1.9 1.9,1.9"
   style="fill:#00549f;fill-rule:nonzero"
   id="path56" />
        <path
   d="m 51,80.6 c 1,0 1.9,-0.8 1.9,-1.9 0,-1 -0.8,-1.9 -1.9,-1.9 -1,0 -1.9,0.8 -1.9,1.9 0,1.1 0.8,1.9 1.9,1.9"
   style="fill:#00549f;fill-rule:nonzero"
   id="path57" />
        <path
   d="m 33.1,67.2 c 1,0 1.9,-0.8 1.9,-1.9 0,-1.1 -0.8,-1.9 -1.9,-1.9 -1,0 -1.9,0.8 -1.9,1.9 0,1.1 0.9,1.9 1.9,1.9"
   style="fill:#00549f;fill-rule:nonzero"
   id="path58" />
        <path
   d="m 46.9,49.3 c 1,0 1.9,-0.8 1.9,-1.9 0,-1.1 -0.8,-1.9 -1.9,-1.9 -1,0 -1.9,0.8 -1.9,1.9 0,1.1 0.9,1.9 1.9,1.9"
   style="fill:#00549f;fill-rule:nonzero"
   id="path59" />
        <path
   d="m 56.6,57.3 c 1,0 1.9,-0.8 1.9,-1.9 0,-1.1 -0.8,-1.9 -1.9,-1.9 -1,0 -1.9,0.8 -1.9,1.9 0,1.1 0.9,1.9 1.9,1.9"
   style="fill:#00549f;fill-rule:nonzero"
   id="path60" />
        <path
   d="m 56.6,72.8 c 1,0 1.9,-0.8 1.9,-1.9 0,-1.1 -0.8,-1.9 -1.9,-1.9 -1,0 -1.9,0.8 -1.9,1.9 0,1.1 0.9,1.9 1.9,1.9"
   style="fill:#00549f;fill-rule:nonzero"
   id="path61" />
        <path
   d="m 41.1,57.3 c 1,0 1.9,-0.8 1.9,-1.9 0,-1.1 -0.8,-1.9 -1.9,-1.9 -1,0 -1.9,0.8 -1.9,1.9 0,1.1 0.9,1.9 1.9,1.9"
   style="fill:#00549f;fill-rule:nonzero"
   id="path62" />
        <path
   d="m 41.1,72.8 c 1,0 1.9,-0.8 1.9,-1.9 0,-1.1 -0.9,-1.9 -1.9,-1.9 -1,0 -1.9,0.8 -1.9,1.9 0,1.1 0.9,1.9 1.9,1.9"
   style="fill:#00549f;fill-rule:nonzero"
   id="path63" />
    </g>
</svg>
