<?xml version="1.0" encoding="UTF-8" standalone="no"?>
<!-- Generator: Adobe Illustrator 22.1.0, SVG Export Plug-In . SVG Version: 6.00 Build 0)  -->

<svg
   version="1.1"
   id="Ebene_1"
   x="0px"
   y="0px"
   width="409.311"
   height="110"
   viewBox="0 0 409.311 110"
   xml:space="preserve"
   sodipodi:docname="banner.svg"
   xmlns:inkscape="http://www.inkscape.org/namespaces/inkscape"
   xmlns:sodipodi="http://sodipodi.sourceforge.net/DTD/sodipodi-0.dtd"
   xmlns:xlink="http://www.w3.org/1999/xlink"
   xmlns="http://www.w3.org/2000/svg"
   xmlns:svg="http://www.w3.org/2000/svg"><defs
   id="defs14" /><sodipodi:namedview
   id="namedview14"
   pagecolor="#ffffff"
   bordercolor="#000000"
   borderopacity="0.25"
   inkscape:showpageshadow="2"
   inkscape:pageopacity="0.0"
   inkscape:pagecheckerboard="0"
   inkscape:deskcolor="#d1d1d1"
   inkscape:lockguides="true" />
<style
   type="text/css"
   id="style1">
	.st0{fill:#FFFFFF;}
	.st1{clip-path:url(#SVGID_2_);fill:#8EBAE5;}
	.st2{fill:#8EBAE5;}
	.st3{clip-path:url(#SVGID_4_);fill:#8EBAE5;}
	.st4{clip-path:url(#SVGID_6_);fill:#00549F;}
	.st5{clip-path:url(#SVGID_8_);fill:#8EBAE5;}
	.st6{fill:#00549F;}
	.st7{clip-path:url(#SVGID_10_);fill:#00549F;}
</style>
<rect
   class="st0"
   width="409.311"
   height="110"
   id="rect1"
   x="0"
   y="0" />
<g
   id="g2">
	<defs
   id="defs1"><rect
     id="SVGID_1_"
     x="10.408"
     y="16.780001"
     width="388.46201"
     height="92.768997" /></defs>
	<clipPath
   id="SVGID_2_">
		<use
   xlink:href="#SVGID_1_"
   style="overflow:visible"
   id="use1" />
	</clipPath>
	<path
   class="st1"
   d="m 322.353,86.174 h 4.444 v -9.32 h 2.376 c 1.79,0 2.562,1.049 2.624,2.778 l 0.123,4.227 c 0.03,0.864 0.124,1.697 0.555,2.315 h 4.814 v -0.185 c -0.832,-0.433 -0.956,-1.636 -0.987,-3.95 -0.061,-4.661 -0.525,-6.328 -3.549,-6.728 v -0.062 c 2.5,-0.524 3.673,-2.499 3.673,-5.432 0,-3.765 -2.222,-5.679 -5.864,-5.679 h -8.209 z m 4.444,-18.764 h 2.099 c 2.005,0 3.086,1.019 3.086,3.056 0,2.376 -1.205,3.301 -3.334,3.301 h -1.851 z"
   clip-path="url(#SVGID_2_)"
   id="path1" />
	<path
   class="st1"
   d="m 256.834,64.139 v 15.368 c 0,5.895 3.425,7.099 7.036,7.099 3.611,0 7.037,-1.481 7.037,-7.099 V 64.139 h -4.444 v 15.368 c 0,2.192 -0.525,3.827 -2.593,3.827 -2.068,0 -2.592,-1.635 -2.592,-3.827 V 64.139 Z"
   clip-path="url(#SVGID_2_)"
   id="path2" />
</g>
<polygon
   class="st2"
   points="276.067,86.174 276.067,70.743 276.129,70.743 281.561,86.174 286.622,86.174 286.622,64.139 282.549,64.139 282.549,79.229 282.487,79.229 277.117,64.139 271.994,64.139 271.994,86.174 "
   id="polygon2" />
<rect
   x="287.76501"
   y="64.139"
   class="st2"
   width="4.4439998"
   height="22.035"
   id="rect2" />
<polygon
   class="st2"
   points="303.284,86.174 308.345,64.139 303.747,64.139 300.476,80.434 300.384,80.434 297.267,64.139 292.514,64.139 297.574,86.174 "
   id="polygon3" />
<polygon
   class="st2"
   points="321.363,86.174 321.363,82.533 313.185,82.533 313.185,76.607 320.592,76.607 320.592,72.965 313.185,72.965 313.185,67.781 321.055,67.781 321.055,64.139 308.741,64.139 308.741,86.174 "
   id="polygon4" />
<g
   id="g4">
	<defs
   id="defs4"><rect
     id="SVGID_3_"
     x="10.408"
     y="16.780001"
     width="388.46201"
     height="92.768997" /></defs>
	<clipPath
   id="SVGID_4_">
		<use
   xlink:href="#SVGID_3_"
   style="overflow:visible"
   id="use4" />
	</clipPath>
	<path
   class="st3"
   d="m 336.794,79.291 v 0.895 c 0,4.074 1.975,6.42 7.006,6.42 4.814,0 7.653,-2.099 7.653,-6.76 0,-2.684 -0.865,-4.381 -4.198,-5.832 l -3.425,-1.481 c -1.883,-0.803 -2.283,-1.635 -2.283,-2.994 0,-1.295 0.524,-2.562 2.53,-2.562 1.696,0 2.407,1.204 2.407,3.272 h 4.259 v -0.618 c 0,-4.228 -2.871,-5.924 -6.821,-5.924 -4.197,0 -6.819,2.19 -6.819,6.48 0,3.672 1.82,5.309 5.77,6.666 2.932,1.018 3.951,1.759 3.951,3.765 0,1.852 -1.297,2.716 -2.654,2.716 -2.346,0 -2.932,-1.327 -2.932,-3.395 v -0.648 z"
   clip-path="url(#SVGID_4_)"
   id="path4" />
</g>
<rect
   x="352.034"
   y="64.139"
   class="st2"
   width="4.4439998"
   height="22.035"
   id="rect4" />
<polygon
   class="st2"
   points="376.412,72.656 373.512,64.139 357.06,64.139 357.06,67.781 361.874,67.781 361.874,86.174 366.319,86.174 366.319,67.781 370.067,67.781 374.22,77.502 374.22,86.174 378.665,86.174 378.665,77.502 384.375,64.139 379.56,64.139 376.473,72.656 "
   id="polygon5" />
<g
   id="g6">
	<defs
   id="defs5"><rect
     id="SVGID_5_"
     x="10.408"
     y="16.780001"
     width="388.46201"
     height="92.768997" /></defs>
	<clipPath
   id="SVGID_6_">
		<use
   xlink:href="#SVGID_5_"
   style="overflow:visible"
   id="use5" />
	</clipPath>
	
	<g
   id="g14"
   transform="matrix(-1,0,0,1,505.141,0)"><path
     class="st4"
     d="m 217.795,62.134 h -0.282 -7.082 V 59.64 40.164 40.001 h 7.067 0.015 4.994 c 3.274,-10e-4 6.098,2.119 7.02,4.93 0.853,2.604 0.123,5.432 -1.801,7.446 0.255,0.694 0.505,1.237 0.742,1.86 0.535,1.232 1.024,2.464 1.559,3.681 l 1.752,4.216 h -0.045 -7.422 c 0,0.004 -0.06,-0.178 -0.119,-0.253 -0.296,-0.652 -0.564,-1.351 -0.861,-2.003 l -1.796,-4.261 c -0.713,-1.722 -1.426,-3.349 -2.137,-5.07 0.888,-0.025 1.553,0.142 2.411,-0.253 0.604,-0.297 1.518,-1.034 1.541,-2.448 -0.023,-0.701 -0.217,-1.232 -0.681,-1.784 -0.465,-0.514 -1.138,-0.894 -2.014,-0.906 0,0 -2.862,-10e-4 -2.861,0 z"
     clip-path="url(#SVGID_6_)"
     id="path5"
     transform="matrix(-1,0,0,1,442.21,0)" /><path
     class="st4"
     d="m 294.71,40.001 v 22.133 h -5.75 -1.614 v -9.025 h -0.687 -4.408 -0.06 v 9.025 c -1.336,0 -2.776,-0.015 -4.112,0 h -3.252 V 45.123 h -5.15 v 0.534 1.602 7.289 7.586 h -0.06 -7.304 V 52.96 52.604 45.123 h -5.194 v 8.03 8.981 h -7.586 c -1.321,-3.191 -2.716,-6.413 -4.008,-9.589 -0.148,-0.668 -0.296,-1.337 -0.49,-1.989 v 11.578 h -7.601 c -1.506,-3.503 -2.953,-6.936 -4.456,-10.491 -0.52,-1.232 -0.947,-2.234 -1.485,-3.514 l -0.073,-0.168 -1.17,-2.746 -1.675,-3.922 c -0.148,-0.445 -0.385,-0.847 -0.534,-1.292 h 7.583 c 1.559,3.785 3.132,7.526 4.765,11.252 l 0.045,0.089 c -0.059,-0.431 -0.194,-0.98 -0.268,-1.395 v -6.606 c 0.014,-1.054 0,-2.257 0,-3.34 h 7.6 c 0.096,0.241 0.149,0.371 0.223,0.565 0.891,2.092 1.738,4.17 2.628,6.248 l 1.99,4.528 c -0.045,-0.476 -0.15,-0.935 -0.209,-1.395 v -9.946 h 0.608 5.167 18.704 5.314 v 1.381 6.605 h 0.357 4.798 v -7.986 h 3.841 z"
     clip-path="url(#SVGID_6_)"
     id="path6" /></g>
</g>
<path
   class="st2"
   d="m 316.068,53.795 2.14,-9.952 h 0.061 l 2.14,9.952 z m -14.754,0 2.138,-9.952 h 0.062 l 2.139,9.952 z m 19.684,-13.796 h -5.519 l -4.618,17.447 -4.619,-17.447 h -5.518 l -5.86,22.135 h 4.651 l 1.022,-4.681 h 5.892 l 1.022,4.681 h 6.82 l 1.022,-4.681 h 5.891 l 1.023,4.681 h 4.65 z"
   id="path7" />
<g
   id="g8">
	<defs
   id="defs7"><rect
     id="SVGID_7_"
     x="10.408"
     y="16.780001"
     width="388.46201"
     height="92.768997" /></defs>
	<clipPath
   id="SVGID_8_">
		<use
   xlink:href="#SVGID_7_"
   style="overflow:visible"
   id="use7" />
	</clipPath>
	<path
   class="st5"
   d="m 340.152,47.552 c 0,-3.209 -0.462,-7.87 -6.821,-7.87 -6.665,0 -7.499,4.753 -7.499,11.45 0,6.696 0.834,11.449 7.499,11.449 5.833,0 7.006,-4.104 7.006,-8.857 h -4.444 c 0,4.753 -1.173,5.586 -2.777,5.586 -1.914,0 -2.839,-1.203 -2.839,-7.87 0,-6.233 0.524,-8.486 2.777,-8.486 2.006,0 2.654,1.389 2.654,4.598 z"
   clip-path="url(#SVGID_8_)"
   id="path8" />
</g>
<polygon
   class="st2"
   points="345.678,52.308 350.887,52.308 350.887,62.134 355.35,62.134 355.35,40.001 350.887,40.001 350.887,48.464 345.678,48.464 345.678,40.001 341.216,40.001 341.216,62.134 345.678,62.134 "
   id="polygon8" />
<polygon
   class="st2"
   points="369,62.134 369,58.476 360.783,58.476 360.783,52.522 368.225,52.522 368.225,48.864 360.783,48.864 360.783,43.655 368.689,43.655 368.689,39.997 356.318,39.997 356.318,62.134 "
   id="polygon9" />
<polygon
   class="st2"
   points="373.754,62.135 373.754,46.635 373.815,46.635 379.272,62.135 384.355,62.135 384.355,40.002 380.264,40.002 380.264,55.16 380.201,55.16 374.807,40.002 369.662,40.002 369.662,62.135 "
   id="polygon10" />
<rect
   x="195.425"
   y="39.971001"
   class="st6"
   width="1.023"
   height="46.386002"
   id="rect10" />
<g
   id="g13">
	<defs
   id="defs10"><rect
     id="SVGID_9_"
     x="10.408"
     y="16.780001"
     width="388.46201"
     height="92.768997" /></defs>
	<clipPath
   id="SVGID_10_">
		<use
   xlink:href="#SVGID_9_"
   style="overflow:visible"
   id="use10" />
	</clipPath>
	<path
   class="st7"
   d="m 137.40041,88.157 h 0.573 c 0.327,0 0.598,-0.024 0.813,-0.071 0.215,-0.048 0.399,-0.149 0.552,-0.302 0.154,-0.154 0.307,-0.427 0.46,-0.818 0.154,-0.393 0.251,-0.718 0.292,-0.977 l 1.329,-5.134 h -1.411 l -0.716,3.804 h -0.02 l -0.818,-3.804 h -1.473 l 1.544,5.502 c -0.02,0.246 -0.087,0.436 -0.199,0.573 -0.113,0.136 -0.299,0.204 -0.558,0.204 -0.122,0 -0.245,-0.01 -0.368,-0.03 z m -3.036,-7.302 h -0.716 v 0.961 h 0.716 v 3.15 c 0,0.279 0.017,0.512 0.051,0.696 0.034,0.184 0.097,0.332 0.189,0.445 0.092,0.112 0.223,0.192 0.394,0.24 0.171,0.047 0.396,0.072 0.675,0.072 0.163,0 0.319,-0.008 0.465,-0.021 0.146,-0.014 0.299,-0.028 0.455,-0.041 v -0.982 c -0.048,0.008 -0.099,0.013 -0.153,0.016 -0.054,0.003 -0.11,0.005 -0.164,0.005 -0.204,0 -0.339,-0.046 -0.404,-0.138 -0.064,-0.092 -0.097,-0.248 -0.097,-0.466 v -2.976 h 0.818 v -0.961 h -0.818 V 79.28 h -1.411 z m -2.784,5.502 h 1.411 v -5.502 h -1.411 z m 0,-6.177 h 1.411 v -1.207 h -1.411 z m -3.541,6.177 h 1.412 v -3.303 c 0,-0.184 0.03,-0.34 0.092,-0.466 0.061,-0.125 0.143,-0.228 0.245,-0.306 0.102,-0.079 0.215,-0.135 0.338,-0.169 0.122,-0.034 0.245,-0.051 0.368,-0.051 0.074,0 0.148,0.002 0.22,0.005 0.071,0.003 0.219,0.08933 0.219,0.015 v -1.35 c -0.04,-0.007 -0.083,-0.012 -0.127,-0.015 -0.044,-0.003 -0.087,-0.005 -0.128,-0.005 -0.294,0 -0.542,0.08 -0.747,0.24 -0.204,0.161 -0.219,0.639 -0.521,0.639 h -0.021 v -0.736 h -1.35 z m -2.352,0 h 1.35 v -5.502 h -1.411 v 3.651 c 0,0.607 -0.249,0.91 -0.747,0.91 -0.212,0 -0.365,-0.056 -0.46,-0.168 -0.095,-0.113 -0.143,-0.312 -0.143,-0.599 v -3.794 h -1.412 v 4.081 c 0,0.552 0.121,0.951 0.363,1.196 0.243,0.246 0.588,0.368 1.038,0.368 0.307,0 0.58,-0.063 0.819,-0.189 0.238,-0.126 0.27051,-0.598 0.582,-0.598 h 0.021 z m -3.617,-3.518 c 0,-0.655 -0.166,-1.173 -0.496,-1.555 -0.331,-0.381 -0.824,-0.572 -1.478,-0.572 -0.328,0 -0.627,0.044 -0.9,0.133 -0.273,0.089 -0.509,0.243 -0.706,0.465 -0.197,0.222 -0.351,0.519 -0.46,0.89 -0.11,0.371 -0.164,0.84 -0.164,1.406 0,0.552 0.044,1.015 0.133,1.386 0.089,0.371 0.22,0.668 0.394,0.89 0.174,0.222 0.392,0.38 0.654,0.475 0.263,0.095 0.571,0.143 0.926,0.143 0.75,0 1.287,-0.194 1.611,-0.583 0.324,-0.388 1.209,-1.667 0.486,-1.667 h -1.35 c 0,0.45 -0.055,0.778 -0.164,0.982 -0.11,0.205 -0.283,0.307 -0.522,0.307 -0.156,0 -0.284,-0.036 -0.383,-0.107 -0.099,-0.072 -0.176,-0.187 -0.23,-0.343 -0.055,-0.156 -0.092,-0.356 -0.113,-0.598 -0.02,-0.243 -0.03,-0.534 -0.03,-0.875 0,-0.314 0.01,-0.59 0.03,-0.828 0.021,-0.238 0.058,-0.435 0.113,-0.588 0.054,-0.154 0.135,-0.269 0.24,-0.348 0.105,-0.079 0.248,-0.118 0.424,-0.118 0.13,0 0.238,0.033 0.323,0.098 0.085,0.064 0.15,0.15 0.194,0.255 0.044,0.106 0.075,0.225 0.092,0.358 0.017,0.133 -0.104,0.394 0.026,0.394 z m -7.621,0.143 v -0.215 c 0,-0.129 0.012,-0.258 0.036,-0.388 0.024,-0.13 0.063,-0.248 0.118,-0.353 0.054,-0.105 0.127,-0.191 0.22,-0.256 0.092,-0.064 0.209,-0.097 0.352,-0.097 0.144,0 0.261,0.029 0.353,0.087 0.092,0.058 0.164,0.143 0.215,0.256 0.051,0.112 0.087,0.248 0.107,0.409 0.021,0.16 0.25312,0.557 0.041,0.557 z m 2.792,0.839 v -0.317 c 0,-0.423 -0.027,-0.806 -0.082,-1.151 -0.054,-0.344 -0.156,-0.637 -0.306,-0.879 -0.151,-0.243 -0.356,-0.43 -0.619,-0.563 -0.263,-0.133 -0.598,-0.199 -1.008,-0.199 -0.477,0 -0.859,0.078 -1.145,0.235 -0.286,0.156 -0.506,0.368 -0.66,0.634 -0.153,0.266 -0.255,0.57 -0.306,0.91 -0.052,0.341 -0.077,0.696 -0.077,1.064 0,0.34 0.015,0.687 0.046,1.038 0.031,0.351 0.114,0.668 0.25,0.951 0.136,0.283 0.348,0.514 0.635,0.69 0.286,0.177 0.685,0.266 1.196,0.266 0.675,0 1.169,-0.171 1.483,-0.516 0.314,-0.345 1.15257,-1.478 0.511,-1.478 h -1.268 c -0.35041,0 -0.115,0.607 -0.225,0.777 -0.109,0.171 -0.283,0.256 -0.521,0.256 -0.13,0 -0.239,-0.036 -0.328,-0.107 -0.089,-0.072 -0.16,-0.167 -0.214,-0.287 -0.055,-0.119 -0.094,-0.255 -0.118,-0.409 -0.024,-0.153 -0.036,-0.312 -0.036,-0.475 v -0.44 z m -9.704,0.256 v 0.296 c 0,0.675 0.179,1.199 0.537,1.57 0.358,0.371 0.953,0.557 1.784,0.557 0.798,0 1.421,-0.181 1.867,-0.542 0.447,-0.361 0.67,-0.927 0.67,-1.697 0,-0.225 -0.021,-0.43 -0.062,-0.614 -0.041,-0.184 -0.113,-0.353 -0.22,-0.506 -0.105,-0.154 -0.248,-0.297 -0.429,-0.43 -0.18,-0.133 -0.407,-0.261 -0.68,-0.383 l -1.136,-0.491 c -0.31111,-0.134466 -0.517,-0.271 -0.613,-0.425 -0.095,-0.153 -0.143,-0.342 -0.143,-0.567 0,-0.11 0.012,-0.215 0.035,-0.317 0.025,-0.103 0.069,-0.193 0.133,-0.271 0.066,-0.079 0.153,-0.142 0.261,-0.19 0.11,-0.048 0.246,-0.071 0.409,-0.071 0.287,0 0.491,0.094 0.614,0.281 0.123,0.187 0.184,0.455 0.184,0.803 h 1.411 v -0.205 c 0,-0.347 -0.056,-0.646 -0.168,-0.895 -0.113,-0.248 -0.269,-0.453 -0.471,-0.613 -0.2,-0.161 -0.44,-0.276 -0.716,-0.348 -0.276,-0.071 -0.578,-0.107 -0.905,-0.107 -0.701,0 -1.254,0.177 -1.657,0.532 -0.402,0.354 -0.603,0.892 -0.603,1.615 0,0.3 0.038,0.565 0.112,0.793 0.076,0.228 0.194,0.43 0.353,0.603 0.161,0.174 0.36,0.326 0.599,0.456 0.239,0.129 0.521,0.248 0.848,0.358 0.246,0.081 0.452,0.161 0.619,0.24 0.168,0.079 0.302,0.166 0.404,0.261 0.102,0.095 0.176,0.202 0.22,0.322 0.045,0.12 0.066,0.261 0.066,0.424 0,0.307 -0.09,0.534 -0.271,0.68 -0.18,0.147 -0.383,0.22 -0.608,0.22 -0.197,0 -0.358,-0.027 -0.481,-0.082 -0.122,-0.054 -0.221,-0.129 -0.296,-0.225 -0.075,-0.095 -0.126,-0.212 -0.154,-0.352 -0.026,-0.14 -0.041,-0.295 -0.041,-0.466 v -0.214 z m 34.71615,-0.072 h 2.884 v -1.207 h -2.884 z m 6.88285,-4.95 v 1.207 h 1.595 v 6.095 h 1.473 v -6.095 h 1.596 v -1.207 z m -0.793,0 h -1.473 v 7.302 h 1.473 z"
   clip-path="url(#SVGID_10_)"
   id="path10"
   sodipodi:nodetypes="cscsccccccccccscccccccssccscccsscsccccccccccccccccccccscccscccsscccccccccccsscsccssscccccccssscssscsccccscccsccsscsscccssccssccccccsccsscccssscsscccscccscccssscsscccccscccssccscccscscccccscscscccscccccccccccccccc" />
	<path
   class="st7"
   d="m 179.21,69.259 h -0.716 v 0.961 h 0.716 v 3.15 c 0,0.279 0.018,0.511 0.051,0.696 0.035,0.184 0.098,0.332 0.19,0.444 0.092,0.113 0.224,0.193 0.393,0.241 0.171,0.048 0.396,0.071 0.675,0.071 0.164,0 0.319,-0.007 0.466,-0.02 0.147,-0.013 0.298,-0.028 0.455,-0.041 v -0.982 c -0.047,0.007 -0.098,0.012 -0.154,0.016 -0.054,0.003 -0.108,0.005 -0.163,0.005 -0.205,0 -0.339,-0.046 -0.404,-0.138 -0.065,-0.092 -0.097,-0.248 -0.097,-0.466 V 70.22 h 0.818 v -0.961 h -0.818 v -1.575 h -1.412 z m -3.949,2.127 v -0.215 c 0,-0.13 0.013,-0.259 0.036,-0.388 0.025,-0.13 0.064,-0.248 0.118,-0.353 0.055,-0.106 0.128,-0.191 0.22,-0.256 0.092,-0.064 0.209,-0.097 0.353,-0.097 0.143,0 0.26,0.029 0.352,0.087 0.092,0.058 0.164,0.143 0.215,0.256 0.051,0.112 0.087,0.248 0.108,0.409 0.02,0.16 0.034,0.345 0.041,0.557 z m 2.793,0.839 v -0.317 c 0,-0.423 -0.027,-0.806 -0.082,-1.151 -0.055,-0.345 -0.157,-0.637 -0.307,-0.88 -0.149,-0.242 -0.356,-0.429 -0.619,-0.562 -0.262,-0.133 -0.598,-0.199 -1.007,-0.199 -0.477,0 -0.859,0.078 -1.146,0.235 -0.286,0.156 -0.506,0.368 -0.659,0.634 -0.154,0.266 -0.256,0.57 -0.307,0.91 -0.051,0.341 -0.077,0.696 -0.077,1.064 0,0.34 0.015,0.687 0.046,1.038 0.031,0.351 0.115,0.668 0.251,0.951 0.137,0.283 0.347,0.513 0.634,0.69 0.286,0.177 0.685,0.266 1.196,0.266 0.675,0 1.17,-0.172 1.483,-0.516 0.314,-0.345 0.485,-0.837 0.512,-1.478 h -1.268 c -0.041,0.348 -0.116,0.606 -0.225,0.777 -0.109,0.171 -0.283,0.256 -0.522,0.256 -0.129,0 -0.238,-0.036 -0.327,-0.108 -0.088,-0.071 -0.16,-0.166 -0.215,-0.286 -0.054,-0.12 -0.093,-0.256 -0.118,-0.409 -0.023,-0.153 -0.036,-0.312 -0.036,-0.476 v -0.439 z m -6.483,2.536 h 1.411 v -5.502 h -1.411 z m 0,-6.177 h 1.411 v -1.207 h -1.411 z m -3.656,2.071 c 0.092,-0.304 0.295,-0.455 0.609,-0.455 0.307,0 0.506,0.151 0.597,0.455 0.093,0.304 0.139,0.755 0.139,1.355 0,0.6 -0.046,1.051 -0.139,1.355 -0.091,0.304 -0.29,0.455 -0.597,0.455 -0.314,0 -0.517,-0.151 -0.609,-0.455 -0.092,-0.304 -0.138,-0.755 -0.138,-1.355 0,-0.6 0.047,-1.051 0.138,-1.355 m -1.548,4.106 h 1.349 v -0.583 h 0.021 c 0.157,0.259 0.332,0.445 0.527,0.557 0.194,0.113 0.435,0.169 0.721,0.169 0.579,0 1.005,-0.227 1.278,-0.68 0.272,-0.453 0.409,-1.191 0.409,-2.214 0,-1.023 -0.137,-1.761 -0.409,-2.214 -0.273,-0.453 -0.699,-0.68 -1.278,-0.68 -0.266,0 -0.493,0.054 -0.68,0.163 -0.188,0.11 -0.357,0.273 -0.506,0.491 h -0.021 v -2.311 h -1.411 z m -3.612,-3.375 v -0.215 c 0,-0.13 0.011,-0.259 0.035,-0.388 0.024,-0.13 0.063,-0.248 0.118,-0.353 0.054,-0.106 0.128,-0.191 0.22,-0.256 0.092,-0.064 0.209,-0.097 0.353,-0.097 0.143,0 0.26,0.029 0.353,0.087 0.092,0.058 0.163,0.143 0.214,0.256 0.051,0.112 0.087,0.248 0.108,0.409 0.02,0.16 0.033,0.345 0.041,0.557 z m 2.791,0.839 v -0.317 c 0,-0.423 -0.028,-0.806 -0.082,-1.151 -0.055,-0.345 -0.158,-0.637 -0.307,-0.88 -0.15,-0.242 -0.357,-0.429 -0.619,-0.562 -0.263,-0.133 -0.598,-0.199 -1.007,-0.199 -0.478,0 -0.859,0.078 -1.146,0.235 -0.286,0.156 -0.506,0.368 -0.659,0.634 -0.154,0.266 -0.256,0.57 -0.307,0.91 -0.051,0.341 -0.077,0.696 -0.077,1.064 0,0.34 0.016,0.687 0.046,1.038 0.031,0.351 0.114,0.668 0.251,0.951 0.136,0.283 0.348,0.513 0.634,0.69 0.286,0.177 0.685,0.266 1.196,0.266 0.675,0 1.169,-0.172 1.483,-0.516 0.313,-0.345 0.484,-0.837 0.512,-1.478 h -1.268 c -0.041,0.348 -0.117,0.606 -0.225,0.777 -0.11,0.171 -0.284,0.256 -0.522,0.256 -0.13,0 -0.239,-0.036 -0.327,-0.108 -0.089,-0.071 -0.161,-0.166 -0.215,-0.286 -0.055,-0.12 -0.094,-0.256 -0.118,-0.409 -0.024,-0.153 -0.035,-0.312 -0.035,-0.476 v -0.439 z m -6.416,-2.966 v 0.613 h -0.02 c -0.137,-0.286 -0.311,-0.483 -0.522,-0.593 -0.212,-0.109 -0.416,-0.163 -0.614,-0.163 -0.382,0 -0.687,0.084 -0.915,0.255 -0.229,0.171 -0.403,0.391 -0.522,0.66 -0.119,0.269 -0.198,0.571 -0.235,0.905 -0.038,0.334 -0.056,0.662 -0.056,0.982 0,1.002 0.141,1.716 0.424,2.142 0.283,0.427 0.704,0.64 1.263,0.64 0.225,0 0.441,-0.062 0.65,-0.184 0.208,-0.123 0.383,-0.287 0.527,-0.491 h 0.02 v 0.726 c 0,0.286 -0.058,0.523 -0.174,0.711 -0.116,0.187 -0.317,0.281 -0.603,0.281 -0.089,0 -0.173,-0.013 -0.251,-0.041 -0.079,-0.028 -0.152,-0.065 -0.22,-0.113 -0.143,-0.102 -0.214,-0.242 -0.214,-0.419 h -1.35 c 0,0.471 0.161,0.834 0.485,1.089 0.324,0.256 0.786,0.384 1.386,0.384 0.824,0 1.413,-0.176 1.764,-0.527 0.351,-0.351 0.527,-0.895 0.527,-1.631 v -5.226 z m -1.447,1.989 c 0.016,-0.256 0.052,-0.46 0.107,-0.614 0.054,-0.153 0.129,-0.264 0.225,-0.332 0.095,-0.069 0.221,-0.102 0.379,-0.102 0.279,0 0.471,0.14 0.578,0.419 0.105,0.279 0.158,0.754 0.158,1.422 0,0.232 -0.012,0.444 -0.036,0.639 -0.024,0.194 -0.065,0.36 -0.122,0.496 -0.059,0.136 -0.138,0.243 -0.236,0.322 -0.099,0.079 -0.224,0.118 -0.373,0.118 -0.15,0 -0.271,-0.039 -0.363,-0.118 -0.092,-0.079 -0.164,-0.184 -0.215,-0.317 -0.051,-0.133 -0.086,-0.284 -0.102,-0.455 -0.018,-0.171 -0.026,-0.351 -0.026,-0.542 10e-4,-0.368 0.008,-0.68 0.026,-0.936 m -6.145,1.713 v 0.194 c 0,0.266 0.031,0.507 0.092,0.721 0.062,0.215 0.169,0.399 0.323,0.553 0.153,0.153 0.359,0.271 0.618,0.352 0.259,0.082 0.589,0.123 0.992,0.123 0.293,0 0.566,-0.036 0.819,-0.107 0.251,-0.072 0.468,-0.179 0.649,-0.322 0.18,-0.144 0.322,-0.325 0.424,-0.542 0.103,-0.218 0.154,-0.471 0.154,-0.757 0,-0.416 -0.092,-0.745 -0.276,-0.987 -0.184,-0.243 -0.498,-0.438 -0.941,-0.588 l -0.849,-0.287 c -0.239,-0.074 -0.401,-0.166 -0.486,-0.276 -0.086,-0.109 -0.128,-0.232 -0.128,-0.368 0,-0.197 0.067,-0.346 0.2,-0.445 0.133,-0.099 0.287,-0.148 0.465,-0.148 0.231,0 0.394,0.066 0.486,0.199 0.092,0.133 0.138,0.343 0.138,0.629 h 1.268 V 70.68 c 0,-0.498 -0.153,-0.882 -0.46,-1.155 -0.307,-0.273 -0.782,-0.409 -1.422,-0.409 -0.362,0 -0.67,0.044 -0.925,0.133 -0.256,0.088 -0.466,0.207 -0.629,0.357 -0.164,0.151 -0.284,0.326 -0.358,0.527 -0.076,0.202 -0.113,0.414 -0.113,0.639 0,0.389 0.098,0.708 0.297,0.957 0.197,0.248 0.491,0.441 0.879,0.577 l 0.992,0.358 c 0.136,0.055 0.256,0.128 0.358,0.22 0.103,0.092 0.154,0.227 0.154,0.404 0,0.218 -0.066,0.382 -0.195,0.491 -0.129,0.11 -0.303,0.164 -0.521,0.164 -0.239,0 -0.421,-0.074 -0.547,-0.22 -0.127,-0.146 -0.189,-0.34 -0.189,-0.578 v -0.184 z m -2.173,-3.702 v 0.613 h -0.02 c -0.137,-0.286 -0.311,-0.483 -0.522,-0.593 -0.212,-0.109 -0.416,-0.163 -0.614,-0.163 -0.382,0 -0.687,0.084 -0.915,0.255 -0.229,0.171 -0.403,0.391 -0.522,0.66 -0.119,0.269 -0.198,0.571 -0.235,0.905 -0.038,0.334 -0.056,0.662 -0.056,0.982 0,1.002 0.141,1.716 0.424,2.142 0.283,0.427 0.704,0.64 1.263,0.64 0.225,0 0.441,-0.062 0.65,-0.184 0.208,-0.123 0.383,-0.287 0.527,-0.491 h 0.02 v 0.726 c 0,0.286 -0.058,0.523 -0.174,0.711 -0.116,0.187 -0.317,0.281 -0.603,0.281 -0.089,0 -0.173,-0.013 -0.251,-0.041 -0.079,-0.028 -0.152,-0.065 -0.22,-0.113 -0.143,-0.102 -0.214,-0.242 -0.214,-0.419 h -1.35 c 0,0.471 0.161,0.834 0.485,1.089 0.324,0.256 0.786,0.384 1.386,0.384 0.824,0 1.413,-0.176 1.764,-0.527 0.351,-0.351 0.527,-0.895 0.527,-1.631 v -5.226 z m -1.447,1.989 c 0.016,-0.256 0.052,-0.46 0.107,-0.614 0.055,-0.153 0.129,-0.264 0.225,-0.332 0.095,-0.069 0.221,-0.102 0.379,-0.102 0.279,0 0.471,0.14 0.578,0.419 0.105,0.279 0.158,0.754 0.158,1.422 0,0.232 -0.012,0.444 -0.036,0.639 -0.024,0.194 -0.065,0.36 -0.122,0.496 -0.059,0.136 -0.138,0.243 -0.236,0.322 -0.099,0.079 -0.224,0.118 -0.373,0.118 -0.15,0 -0.271,-0.039 -0.363,-0.118 -0.092,-0.079 -0.164,-0.184 -0.215,-0.317 -0.051,-0.133 -0.086,-0.284 -0.102,-0.455 -0.017,-0.171 -0.026,-0.351 -0.026,-0.542 0.001,-0.368 0.009,-0.68 0.026,-0.936 m -6.482,3.513 h 1.411 V 71.11 c 0,-0.607 0.249,-0.91 0.747,-0.91 0.211,0 0.364,0.056 0.46,0.168 0.095,0.113 0.143,0.312 0.143,0.599 v 3.794 h 1.412 V 70.68 c 0,-0.552 -0.122,-0.951 -0.363,-1.196 -0.243,-0.246 -0.589,-0.368 -1.039,-0.368 -0.306,0 -0.579,0.063 -0.818,0.189 -0.239,0.126 -0.433,0.325 -0.583,0.598 h -0.02 v -0.644 h -1.35 z m -2.352,0 h 1.35 v -5.502 h -1.412 v 3.651 c 0,0.606 -0.249,0.91 -0.746,0.91 -0.212,0 -0.365,-0.056 -0.461,-0.169 -0.096,-0.112 -0.143,-0.312 -0.143,-0.598 v -3.794 h -1.411 v 4.08 c 0,0.553 0.121,0.952 0.363,1.197 0.241,0.245 0.588,0.368 1.038,0.368 0.307,0 0.579,-0.063 0.818,-0.189 0.239,-0.126 0.433,-0.325 0.583,-0.598 h 0.021 z m -7.986,0 h 1.412 V 71.11 c 0,-0.607 0.248,-0.91 0.746,-0.91 0.211,0 0.364,0.056 0.46,0.168 0.095,0.113 0.144,0.312 0.144,0.599 v 3.794 h 1.411 V 70.68 c 0,-0.552 -0.122,-0.951 -0.363,-1.196 -0.243,-0.246 -0.588,-0.368 -1.038,-0.368 -0.621,0 -1.068,0.235 -1.34,0.705 h -0.02 v -2.362 h -1.412 z m -0.808,-3.518 c 0,-0.655 -0.165,-1.173 -0.496,-1.555 -0.331,-0.381 -0.823,-0.572 -1.478,-0.572 -0.327,0 -0.628,0.044 -0.9,0.133 -0.273,0.088 -0.508,0.243 -0.705,0.465 -0.199,0.222 -0.352,0.518 -0.461,0.89 -0.109,0.371 -0.163,0.84 -0.163,1.406 0,0.552 0.044,1.014 0.133,1.386 0.088,0.371 0.22,0.668 0.394,0.889 0.173,0.222 0.391,0.381 0.654,0.476 0.262,0.095 0.571,0.143 0.926,0.143 0.749,0 1.286,-0.194 1.61,-0.583 0.324,-0.388 0.486,-0.944 0.486,-1.667 h -1.35 c 0,0.45 -0.055,0.777 -0.163,0.982 -0.11,0.205 -0.284,0.307 -0.522,0.307 -0.157,0 -0.285,-0.036 -0.383,-0.108 -0.1,-0.071 -0.176,-0.186 -0.231,-0.342 -0.055,-0.157 -0.092,-0.356 -0.112,-0.598 -0.021,-0.243 -0.031,-0.534 -0.031,-0.875 0,-0.314 0.01,-0.59 0.031,-0.828 0.02,-0.239 0.057,-0.435 0.112,-0.588 0.055,-0.154 0.134,-0.269 0.241,-0.348 0.105,-0.079 0.246,-0.118 0.424,-0.118 0.129,0 0.236,0.033 0.322,0.097 0.085,0.065 0.15,0.151 0.195,0.256 0.044,0.105 0.074,0.225 0.092,0.358 0.016,0.133 0.025,0.264 0.025,0.394 z m -8.869,1.718 v 0.194 c 0,0.266 0.031,0.507 0.092,0.721 0.062,0.215 0.169,0.399 0.322,0.553 0.154,0.153 0.359,0.271 0.619,0.352 0.259,0.082 0.589,0.123 0.992,0.123 0.293,0 0.566,-0.036 0.818,-0.107 0.252,-0.072 0.469,-0.179 0.65,-0.322 0.18,-0.144 0.322,-0.325 0.424,-0.542 0.103,-0.218 0.154,-0.471 0.154,-0.757 0,-0.416 -0.092,-0.745 -0.276,-0.987 -0.185,-0.243 -0.499,-0.438 -0.941,-0.588 l -0.849,-0.287 c -0.24,-0.074 -0.401,-0.166 -0.486,-0.276 -0.086,-0.109 -0.128,-0.232 -0.128,-0.368 0,-0.197 0.067,-0.346 0.2,-0.445 0.132,-0.099 0.287,-0.148 0.465,-0.148 0.231,0 0.394,0.066 0.486,0.199 0.092,0.133 0.138,0.343 0.138,0.629 h 1.268 V 70.68 c 0,-0.498 -0.153,-0.882 -0.46,-1.155 -0.307,-0.273 -0.782,-0.409 -1.422,-0.409 -0.362,0 -0.67,0.044 -0.925,0.133 -0.256,0.088 -0.466,0.207 -0.629,0.357 -0.164,0.151 -0.284,0.326 -0.358,0.527 -0.076,0.202 -0.113,0.414 -0.113,0.639 0,0.389 0.098,0.708 0.297,0.957 0.197,0.248 0.491,0.441 0.879,0.577 l 0.992,0.358 c 0.136,0.055 0.256,0.128 0.358,0.22 0.103,0.092 0.154,0.227 0.154,0.404 0,0.218 -0.066,0.382 -0.195,0.491 -0.13,0.11 -0.303,0.164 -0.521,0.164 -0.24,0 -0.422,-0.074 -0.547,-0.22 -0.127,-0.146 -0.19,-0.34 -0.19,-0.578 v -0.184 z m -3.372,1.8 h 1.412 v -3.303 c 0,-0.184 0.03,-0.34 0.092,-0.466 0.061,-0.126 0.143,-0.228 0.245,-0.307 0.102,-0.078 0.215,-0.135 0.338,-0.168 0.122,-0.034 0.245,-0.051 0.368,-0.051 0.074,0 0.148,0.002 0.22,0.005 0.071,0.003 0.144,0.008 0.22,0.015 v -1.35 c -0.041,-0.007 -0.084,-0.012 -0.128,-0.015 -0.044,-0.003 -0.087,-0.005 -0.128,-0.005 -0.294,0 -0.542,0.079 -0.747,0.24 -0.204,0.16 -0.378,0.373 -0.521,0.639 h -0.021 v -0.736 h -1.35 z m -3.729,-3.528 c 0.014,-0.239 0.046,-0.443 0.098,-0.614 0.051,-0.171 0.125,-0.304 0.225,-0.399 0.099,-0.095 0.237,-0.143 0.414,-0.143 0.286,0 0.484,0.15 0.593,0.45 0.109,0.3 0.164,0.795 0.164,1.483 0,0.688 -0.055,1.183 -0.164,1.483 -0.109,0.299 -0.307,0.45 -0.593,0.45 -0.177,0 -0.315,-0.048 -0.414,-0.143 -0.1,-0.095 -0.174,-0.228 -0.225,-0.399 -0.052,-0.171 -0.084,-0.376 -0.098,-0.614 -0.013,-0.238 -0.02,-0.498 -0.02,-0.777 0,-0.279 0.007,-0.539 0.02,-0.777 m -1.329,2.045 c 0.068,0.361 0.184,0.665 0.348,0.91 0.163,0.246 0.385,0.428 0.664,0.547 0.28,0.12 0.631,0.176 1.054,0.169 0.402,0 0.741,-0.063 1.017,-0.189 0.277,-0.126 0.499,-0.31 0.67,-0.552 0.171,-0.243 0.294,-0.544 0.368,-0.905 0.075,-0.361 0.113,-0.778 0.113,-1.248 0,-0.478 -0.034,-0.898 -0.102,-1.263 -0.069,-0.365 -0.184,-0.67 -0.348,-0.916 -0.164,-0.245 -0.386,-0.427 -0.665,-0.547 -0.279,-0.119 -0.631,-0.176 -1.053,-0.168 -0.402,0 -0.742,0.063 -1.018,0.189 -0.276,0.126 -0.499,0.31 -0.67,0.552 -0.171,0.242 -0.293,0.544 -0.368,0.905 -0.075,0.361 -0.112,0.777 -0.112,1.248 0,0.484 0.033,0.907 0.102,1.268 m -4.72,1.483 h 1.473 v -3.17 h 2.454 v -1.207 h -2.454 v -1.718 h 2.608 v -1.207 h -4.081 z"
   clip-path="url(#SVGID_10_)"
   id="path11" />
	<path
   class="st7"
   d="m 144.542,59.059 c 0.092,-0.304 0.292,-0.455 0.599,-0.455 0.313,0 0.516,0.151 0.608,0.455 0.092,0.304 0.138,0.755 0.138,1.355 0,0.6 -0.046,1.051 -0.138,1.355 -0.092,0.304 -0.295,0.455 -0.608,0.455 -0.307,0 -0.507,-0.151 -0.599,-0.455 -0.092,-0.304 -0.138,-0.755 -0.138,-1.355 0,-0.6 0.046,-1.051 0.138,-1.355 m 1.406,4.106 h 1.35 v -7.302 h -1.411 v 2.311 h -0.02 c -0.151,-0.218 -0.319,-0.381 -0.507,-0.491 -0.188,-0.109 -0.414,-0.163 -0.68,-0.163 -0.58,0 -1.006,0.227 -1.278,0.68 -0.273,0.453 -0.409,1.191 -0.409,2.214 0,1.023 0.136,1.761 0.409,2.214 0.272,0.453 0.698,0.68 1.278,0.68 0.287,0 0.527,-0.056 0.721,-0.169 0.195,-0.112 0.37,-0.298 0.527,-0.557 h 0.02 z m -8.001,0 h 1.411 v -3.651 c 0,-0.607 0.249,-0.91 0.747,-0.91 0.21,0 0.364,0.056 0.46,0.168 0.095,0.113 0.143,0.312 0.143,0.599 v 3.794 h 1.411 v -4.081 c 0,-0.552 -0.121,-0.951 -0.363,-1.196 -0.242,-0.246 -0.588,-0.368 -1.038,-0.368 -0.307,0 -0.58,0.063 -0.818,0.189 -0.239,0.126 -0.434,0.325 -0.583,0.598 h -0.02 v -0.644 h -1.35 z m -2.353,0 h 1.35 v -5.502 h -1.411 v 3.651 c 0,0.606 -0.249,0.91 -0.746,0.91 -0.212,0 -0.366,-0.056 -0.461,-0.169 -0.096,-0.112 -0.143,-0.312 -0.143,-0.598 v -3.794 h -1.411 v 4.08 c 0,0.553 0.12,0.952 0.363,1.197 0.241,0.245 0.588,0.368 1.038,0.368 0.307,0 0.579,-0.063 0.818,-0.189 0.238,-0.126 0.433,-0.325 0.583,-0.598 h 0.02 z m -9.081,-2.352 h 2.884 v -1.207 h -2.884 z m -3.414,2.352 h 1.411 v -3.303 c 0,-0.184 0.031,-0.34 0.092,-0.466 0.062,-0.126 0.143,-0.228 0.246,-0.307 0.102,-0.078 0.214,-0.135 0.337,-0.168 0.123,-0.034 0.246,-0.051 0.368,-0.051 0.075,0 0.149,0.002 0.22,0.005 0.072,0.003 0.145,0.008 0.22,0.015 v -1.35 c -0.041,-0.007 -0.084,-0.012 -0.128,-0.015 -0.044,-0.003 -0.087,-0.005 -0.128,-0.005 -0.293,0 -0.542,0.079 -0.746,0.24 -0.205,0.16 -0.379,0.373 -0.522,0.639 h -0.02 v -0.736 h -1.35 z m -5.173,0 h 1.411 v -3.651 c 0,-0.607 0.249,-0.91 0.747,-0.91 0.212,0 0.365,0.056 0.46,0.168 0.095,0.113 0.143,0.312 0.143,0.599 v 3.794 h 1.412 v -4.081 c 0,-0.552 -0.121,-0.951 -0.363,-1.196 -0.243,-0.246 -0.589,-0.368 -1.039,-0.368 -0.62,0 -1.066,0.235 -1.339,0.705 h -0.021 v -2.362 h -1.411 z m -3.612,-3.375 v -0.215 c 0,-0.13 0.012,-0.259 0.035,-0.388 0.024,-0.13 0.064,-0.248 0.118,-0.353 0.054,-0.106 0.128,-0.191 0.22,-0.256 0.092,-0.064 0.21,-0.097 0.353,-0.097 0.143,0 0.261,0.029 0.353,0.087 0.092,0.058 0.163,0.143 0.214,0.256 0.051,0.112 0.087,0.248 0.108,0.409 0.02,0.16 0.033,0.345 0.041,0.557 z m 2.792,0.839 v -0.317 c 0,-0.423 -0.028,-0.806 -0.082,-1.151 -0.054,-0.345 -0.157,-0.637 -0.307,-0.88 -0.15,-0.242 -0.356,-0.429 -0.619,-0.562 -0.263,-0.133 -0.598,-0.199 -1.007,-0.199 -0.478,0 -0.859,0.078 -1.146,0.235 -0.286,0.156 -0.506,0.368 -0.659,0.634 -0.154,0.266 -0.256,0.57 -0.307,0.91 -0.051,0.341 -0.077,0.696 -0.077,1.064 0,0.34 0.016,0.687 0.046,1.038 0.031,0.351 0.115,0.668 0.251,0.951 0.136,0.283 0.348,0.513 0.634,0.69 0.286,0.177 0.685,0.266 1.197,0.266 0.675,0 1.168,-0.172 1.482,-0.516 0.314,-0.345 0.484,-0.837 0.512,-1.478 h -1.268 c -0.041,0.348 -0.116,0.606 -0.225,0.777 -0.11,0.171 -0.284,0.256 -0.522,0.256 -0.13,0 -0.238,-0.036 -0.327,-0.108 -0.089,-0.071 -0.161,-0.166 -0.215,-0.286 -0.054,-0.12 -0.094,-0.256 -0.118,-0.409 -0.023,-0.153 -0.035,-0.312 -0.035,-0.476 v -0.439 z m -4.755,2.536 v -1.207 h -2.608 v -6.095 h -1.473 v 7.302 z"
   clip-path="url(#SVGID_10_)"
   id="path12" />
	<path
   class="st7"
   d="m 26.837,71.646 c 0,-0.807 -0.057,-1.67 -0.17,-2.592 -0.114,-0.92 -0.399,-1.778 -0.853,-2.575 -0.456,-0.797 -1.144,-1.453 -2.064,-1.971 -0.922,-0.517 -2.179,-0.776 -3.771,-0.776 -1.676,0 -3.011,0.284 -4.004,0.854 -0.993,0.568 -1.753,1.36 -2.281,2.373 -0.527,1.014 -0.868,2.23 -1.023,3.647 -0.156,1.417 -0.234,2.963 -0.234,4.64 0,1.675 0.078,3.222 0.234,4.639 0.155,1.417 0.496,2.633 1.023,3.647 0.528,1.013 1.288,1.805 2.281,2.373 0.993,0.569 2.328,0.854 4.004,0.854 1.469,0 2.663,-0.238 3.585,-0.713 0.92,-0.476 1.633,-1.122 2.14,-1.941 0.508,-0.817 0.854,-1.763 1.04,-2.839 0.186,-1.076 0.28,-2.214 0.28,-3.413 h -4.47 c 0,1.199 -0.072,2.167 -0.217,2.901 -0.145,0.734 -0.341,1.303 -0.59,1.707 -0.247,0.403 -0.543,0.673 -0.883,0.807 -0.342,0.135 -0.709,0.201 -1.103,0.201 -0.475,0 -0.895,-0.098 -1.256,-0.294 -0.363,-0.197 -0.662,-0.579 -0.9,-1.149 -0.238,-0.568 -0.414,-1.37 -0.527,-2.405 -0.115,-1.034 -0.171,-2.389 -0.171,-4.066 0,-1.571 0.041,-2.901 0.124,-3.987 0.082,-1.086 0.228,-1.966 0.434,-2.638 0.207,-0.672 0.491,-1.158 0.853,-1.458 0.362,-0.3 0.823,-0.45 1.382,-0.45 1.013,0 1.711,0.367 2.094,1.101 0.383,0.735 0.574,1.909 0.574,3.523 z m 3.139,-7.48 v 22.159 h 12.693 v -3.663 h -8.224 v -5.958 h 7.448 v -3.662 h -7.448 v -5.213 h 7.914 v -3.663 z m 15.025,15.238 v 0.9 c 0,2.049 0.543,3.636 1.629,4.764 1.086,1.128 2.891,1.691 5.416,1.691 2.42,0 4.308,-0.548 5.663,-1.645 1.355,-1.096 2.034,-2.814 2.034,-5.152 0,-0.682 -0.063,-1.303 -0.188,-1.861 -0.123,-0.559 -0.346,-1.071 -0.666,-1.537 -0.322,-0.465 -0.756,-0.899 -1.303,-1.303 -0.55,-0.403 -1.237,-0.792 -2.064,-1.164 L 52.076,72.608 C 51.125,72.215 50.504,71.785 50.215,71.319 49.924,70.854 49.78,70.28 49.78,69.597 c 0,-0.33 0.036,-0.651 0.109,-0.961 0.072,-0.311 0.206,-0.585 0.404,-0.824 0.196,-0.237 0.46,-0.428 0.79,-0.573 0.331,-0.145 0.746,-0.217 1.242,-0.217 0.869,0 1.49,0.284 1.862,0.853 0.372,0.569 0.559,1.381 0.559,2.436 h 4.283 V 69.69 c 0,-1.054 -0.171,-1.959 -0.513,-2.715 -0.341,-0.755 -0.817,-1.376 -1.427,-1.863 -0.611,-0.485 -1.335,-0.837 -2.173,-1.054 -0.837,-0.218 -1.753,-0.326 -2.746,-0.326 -2.131,0 -3.807,0.538 -5.027,1.614 -1.222,1.076 -1.832,2.71 -1.832,4.903 0,0.911 0.113,1.713 0.341,2.405 0.229,0.693 0.585,1.304 1.071,1.831 0.486,0.527 1.092,0.989 1.816,1.381 0.724,0.393 1.583,0.755 2.576,1.087 0.744,0.248 1.37,0.491 1.878,0.729 0.506,0.238 0.915,0.502 1.225,0.791 0.311,0.29 0.533,0.616 0.668,0.978 0.134,0.362 0.201,0.791 0.201,1.288 0,0.93 -0.274,1.619 -0.822,2.064 -0.548,0.444 -1.164,0.666 -1.847,0.666 -0.601,0 -1.086,-0.083 -1.459,-0.248 -0.372,-0.165 -0.673,-0.393 -0.9,-0.682 -0.228,-0.29 -0.382,-0.647 -0.465,-1.071 -0.083,-0.424 -0.124,-0.895 -0.124,-1.413 v -0.651 z"
   clip-path="url(#SVGID_10_)"
   id="path13"
   sodipodi:nodetypes="ccccscccscccsccsccsccscccsccsscccccccccccccccccssscsccccccscccssccscccscscscccccscsccsscc"
   transform="translate(8.021798)" />
</g>
<path
   class="st6"
   d="m 84.646,86.324 h 1.986 V 65.842 h 5.71 V 64.166 H 78.935 v 1.676 h 5.711 z m 10.256,0 h 1.986 V 64.166 h -1.986 z"
   id="path14"
   sodipodi:nodetypes="cccccccccccccc" />
<rect
   x="72.366524"
   y="55.858002"
   class="st2"
   width="2.0449982"
   height="30.499001"
   id="rect14"
   ry="0" />
</svg>
