<?xml version="1.0" encoding="UTF-8" standalone="no"?>
<!-- Created with Inkscape (http://www.inkscape.org/) -->

<svg
   width="512"
   height="512"
   viewBox="0 0 512 512"
   version="1.1"
   id="svg1"
   inkscape:export-filename="logo.png"
   inkscape:export-xdpi="96"
   inkscape:export-ydpi="96"
   xmlns:inkscape="http://www.inkscape.org/namespaces/inkscape"
   xmlns:sodipodi="http://sodipodi.sourceforge.net/DTD/sodipodi-0.dtd"
   xmlns="http://www.w3.org/2000/svg"
   xmlns:svg="http://www.w3.org/2000/svg">
  <sodipodi:namedview
     id="namedview1"
     pagecolor="#ffffff"
     bordercolor="#000000"
     borderopacity="0.25"
     inkscape:showpageshadow="2"
     inkscape:pageopacity="0.0"
     inkscape:pagecheckerboard="0"
     inkscape:deskcolor="#d1d1d1"
     inkscape:document-units="px" />
  <defs
     id="defs1">
    <clipPath
       id="SVGID_10_">
		<rect
   id="use10"
   x="10.408"
   y="16.780001"
   width="388.46201"
   height="92.768997" />

	</clipPath>
  </defs>
  <g
     inkscape:label="Layer 1"
     inkscape:groupmode="layer"
     id="layer1">
    <path
       class="st7"
       d="m 68.064765,71.646 c 0,-0.807 -0.057,-1.67 -0.17,-2.592 -0.114,-0.92 -0.399,-1.778 -0.853,-2.575 -0.456,-0.797 -1.144,-1.453 -2.064,-1.971 -0.922,-0.517 -2.179,-0.776 -3.771,-0.776 -1.676,0 -3.011,0.284 -4.004,0.854 -0.993,0.568 -1.753,1.36 -2.281,2.373 -0.527,1.014 -0.868,2.23 -1.023,3.647 -0.156,1.417 -0.234,2.963 -0.234,4.64 0,1.675 0.078,3.222 0.234,4.639 0.155,1.417 0.496,2.633 1.023,3.647 0.528,1.013 1.288,1.805 2.281,2.373 0.993,0.569 2.328,0.854 4.004,0.854 1.469,0 2.663,-0.238 3.585,-0.713 0.92,-0.476 1.633,-1.122 2.14,-1.941 0.508,-0.817 0.854,-1.763 1.04,-2.839 0.186,-1.076 0.28,-2.214 0.28,-3.413 h -4.47 c 0,1.199 -0.072,2.167 -0.217,2.901 -0.145,0.734 -0.341,1.303 -0.59,1.707 -0.247,0.403 -0.543,0.673 -0.883,0.807 -0.342,0.135 -0.709,0.201 -1.103,0.201 -0.475,0 -0.895,-0.098 -1.256,-0.294 -0.363,-0.197 -0.662,-0.579 -0.9,-1.149 -0.238,-0.568 -0.414,-1.37 -0.527,-2.405 -0.115,-1.034 -0.171,-2.389 -0.171,-4.066 0,-1.571 0.041,-2.901 0.124,-3.987 0.082,-1.086 0.228,-1.966 0.434,-2.638 0.207,-0.672 0.491,-1.158 0.853,-1.458 0.362,-0.3 0.823,-0.45 1.382,-0.45 1.013,0 1.711,0.367 2.094,1.101 0.383,0.735 0.574,1.909 0.574,3.523 z M 71.976,64.166 v 22.159 h 12.693 v -3.663 h -8.224 v -5.958 h 7.448 v -3.662 h -7.448 v -5.213 h 7.914 v -3.663 z m 15.5802,15.238 v 0.9 c 0,2.049 0.543,3.636 1.629,4.764 1.086,1.128 2.891,1.691 5.416,1.691 2.42,0 4.308,-0.548 5.663,-1.645 1.355,-1.096 2.034,-2.814 2.034,-5.152 0,-0.682 -0.063,-1.303 -0.188,-1.861 -0.123,-0.559 -0.346,-1.071 -0.666,-1.537 -0.322,-0.465 -0.756,-0.899 -1.303,-1.303 -0.55,-0.403 -1.237,-0.792 -2.064,-1.164 l -3.446,-1.489 c -0.951,-0.393 -1.572,-0.823 -1.861,-1.289 -0.291,-0.465 -0.435,-1.039 -0.435,-1.722 0,-0.33 0.036,-0.651 0.109,-0.961 0.072,-0.311 0.206,-0.585 0.404,-0.824 0.196,-0.237 0.46,-0.428 0.79,-0.573 0.331,-0.145 0.746,-0.217 1.242,-0.217 0.869,0 1.49,0.284 1.862,0.853 0.372,0.569 0.559,1.381 0.559,2.436 h 4.283 V 69.69 c 0,-1.054 -0.171,-1.959 -0.513,-2.715 -0.341,-0.755 -0.817,-1.376 -1.427,-1.863 -0.611,-0.485 -1.335,-0.837 -2.173,-1.054 -0.837,-0.218 -1.753,-0.326 -2.746,-0.326 -2.131,0 -3.807,0.538 -5.027,1.614 -1.222,1.076 -1.832,2.71 -1.832,4.903 0,0.911 0.113,1.713 0.341,2.405 0.229,0.693 0.585,1.304 1.071,1.831 0.486,0.527 1.092,0.989 1.816,1.381 0.724,0.393 1.583,0.755 2.576,1.087 0.744,0.248 1.37,0.491 1.878,0.729 0.506,0.238 0.915,0.502 1.225,0.791 0.311,0.29 0.533,0.616 0.668,0.978 0.134,0.362 0.201,0.791 0.201,1.288 0,0.93 -0.274,1.619 -0.822,2.064 -0.548,0.444 -1.164,0.666 -1.847,0.666 -0.601,0 -1.086,-0.083 -1.459,-0.248 -0.372,-0.165 -0.673,-0.393 -0.9,-0.682 -0.228,-0.29 -0.382,-0.647 -0.465,-1.071 -0.083,-0.424 -0.124,-0.895 -0.124,-1.413 v -0.651 z"
       clip-path="url(#SVGID_10_)"
       id="path13"
       inkscape:export-filename="../src/htwr-aachen.de/public/assets/cesti/logo.png"
       inkscape:export-xdpi="2135.9753"
       inkscape:export-ydpi="2135.9753"
       style="fill:#000000;fill-opacity:1"
       transform="matrix(9.2151177,0,0,9.2151177,-461.52992,-538.42915)"
       sodipodi:nodetypes="ccccscccscccsccsccsccscccsccsscccccccccccccccccssscsccccccscccssccscccscscscccccscsccsscc" />
    <path
       class="st6"
       d="M 248.67769,481.08179 H 230.65056 V 295.16452 H 178.82029 V 279.9513 h 121.69675 v 15.21322 h -51.83935 z m 88.44731,0 H 319.09787 V 279.9513 H 337.125 Z"
       id="path14"
       style="fill:#000000;fill-opacity:1;stroke-width:9.07711" />
  </g>
</svg>
