<?xml version="1.0" standalone="no"?>
<!DOCTYPE svg PUBLIC "-//W3C//DTD SVG 20010904//EN"
 "http://www.w3.org/TR/2001/REC-SVG-20010904/DTD/svg10.dtd">
<svg version="1.0" xmlns="http://www.w3.org/2000/svg"
 width="700.000000pt" height="700.000000pt" viewBox="0 0 700.000000 700.000000"
 preserveAspectRatio="xMidYMid meet">
<metadata>
Created by potrace 1.14, written by Peter Selinger 2001-2017
</metadata>
<g transform="translate(0.000000,700.000000) scale(0.100000,-0.100000)"
fill="#000000" stroke="none">
<path d="M3277 6994 c-1 -1 -38 -4 -82 -8 -164 -12 -352 -44 -542 -91 -1082
-265 -1987 -1055 -2403 -2095 -64 -161 -142 -412 -165 -531 -3 -13 -12 -58
-20 -99 -8 -41 -17 -92 -21 -114 -3 -21 -7 -48 -10 -60 -2 -11 -7 -50 -10 -86
-3 -36 -7 -78 -10 -95 -2 -16 -7 -94 -10 -172 l-6 -143 321 0 c176 0 321 -3
321 -7 1 -5 1 -341 2 -749 0 -664 2 -751 18 -845 30 -174 87 -346 147 -441 13
-21 23 -40 23 -43 0 -3 17 -32 38 -63 35 -53 37 -58 18 -59 -12 -1 -16 1 -9 4
8 3 7 9 -4 23 -9 10 -22 16 -29 13 -8 -3 -14 0 -14 7 0 6 4 8 10 5 5 -3 10 -1
10 5 0 7 -9 14 -20 17 -11 3 -17 9 -14 14 5 9 -5 22 -61 83 -11 11 -21 24 -21
29 -1 4 -2 10 -3 13 0 4 -8 1 -16 -6 -17 -14 -21 0 -4 17 8 8 8 13 0 18 -6 3
-10 1 -9 -6 2 -6 -3 -14 -11 -17 -8 -3 -11 0 -7 7 5 7 1 9 -9 5 -11 -5 -14 -2
-9 10 9 23 -3 20 -17 -5 -6 -12 -7 -19 -2 -16 17 11 37 -11 38 -42 1 -17 -4
-32 -11 -35 -8 -3 -11 6 -10 30 2 19 -1 34 -5 34 -5 0 -9 -6 -9 -13 0 -7 -9
-13 -20 -14 -11 -1 -18 2 -15 8 4 5 1 9 -5 9 -7 0 -10 -6 -7 -12 2 -7 12 -12
21 -12 9 1 15 -3 13 -10 -2 -6 -13 -10 -24 -8 -19 3 -40 -24 -28 -36 3 -3 5 0
5 7 0 7 4 10 10 6 5 -3 7 -12 4 -20 -4 -8 1 -17 9 -21 9 -3 14 -11 11 -18 -2
-6 6 -22 18 -33 27 -26 39 -39 63 -76 13 -20 21 -25 30 -17 10 8 15 8 21 -1 4
-7 3 -9 -4 -5 -6 3 -13 2 -17 -3 -6 -10 2 -21 79 -110 75 -87 288 -291 305
-291 14 0 14 2 1 11 -13 9 -13 10 0 6 9 -2 14 -13 12 -26 -3 -16 3 -24 17 -28
12 -3 18 -10 14 -17 -3 -6 -2 -8 2 -3 5 4 24 -7 42 -25 18 -17 33 -28 33 -22
0 5 5 2 10 -6 9 -13 12 -13 21 3 6 9 14 15 20 12 5 -4 9 -1 9 4 0 14 -17 14
-25 1 -6 -10 -40 -8 -51 3 -7 7 11 11 30 8 4 -1 15 4 22 10 11 9 18 9 26 1 7
-7 17 -12 22 -12 6 0 3 5 -6 11 -10 5 -18 14 -18 20 0 5 12 2 28 -7 26 -15 26
-15 5 1 -23 18 -31 45 -13 45 6 0 10 -8 10 -17 1 -17 1 -17 11 0 6 9 14 15 20
12 5 -4 9 -1 9 5 0 7 -8 9 -20 5 -15 -5 -18 -3 -14 9 4 11 -10 31 -42 60 -26
25 -51 43 -55 40 -4 -2 -10 5 -14 15 -4 13 -12 18 -23 15 -13 -5 -14 -4 -4 4
11 7 11 10 -2 15 -8 3 -17 1 -19 -6 -3 -7 -4 -2 -4 10 l1 22 31 -23 c148 -113
342 -207 515 -249 100 -25 116 -27 260 -42 19 -2 369 -4 778 -4 l742 -1 0
-346 0 -346 148 6 c81 4 158 8 172 10 14 3 56 7 93 11 37 3 78 8 90 11 12 2
38 6 57 9 19 3 46 7 60 10 14 2 39 7 55 10 723 136 1436 542 1935 1104 36 41
70 79 76 85 29 30 185 242 240 326 208 318 371 683 460 1035 31 120 28 107 59
275 34 192 40 248 50 468 l7 142 -321 0 -321 0 0 43 c-1 23 -1 357 -2 742 -1
799 -3 832 -74 1045 -34 102 -121 280 -168 343 -28 39 -44 70 -21 42 9 -11 21
-19 26 -17 5 1 8 -4 7 -10 -2 -7 3 -12 10 -10 8 1 11 -2 8 -7 -4 -5 2 -17 11
-27 10 -10 18 -20 18 -23 0 -11 30 -48 40 -50 6 0 10 -6 10 -11 0 -6 7 -15 15
-20 8 -5 15 -15 15 -22 0 -7 7 -13 15 -13 9 0 14 -8 12 -18 -2 -9 2 -17 8 -17
6 0 8 5 5 10 -10 17 4 11 27 -10 12 -11 24 -17 27 -15 2 3 -5 13 -18 21 -22
16 -22 17 -4 34 12 12 20 14 26 6 5 -6 5 0 1 14 -6 22 -5 23 9 11 13 -10 14
-18 6 -35 -10 -21 -10 -21 6 -1 9 11 21 20 27 20 6 0 16 8 22 18 9 14 7 20 -7
28 -9 6 -14 15 -11 21 5 7 2 8 -5 4 -8 -6 -11 -2 -9 10 2 11 -3 19 -12 19 -8
1 -14 7 -12 13 3 16 -63 104 -72 95 -3 -3 -6 1 -6 10 0 9 -18 35 -39 57 -22
23 -41 45 -43 48 -2 4 -7 6 -11 4 -5 -1 -6 2 -3 7 3 5 -48 65 -114 132 -98
101 -123 121 -131 109 -8 -11 -9 -9 -3 10 3 14 4 22 0 19 -4 -3 -24 10 -44 30
-90 85 -116 103 -127 88 -9 -13 -14 -13 -29 -2 -10 8 -30 12 -44 11 -22 -3
-27 -9 -29 -34 -2 -17 2 -34 7 -37 6 -3 10 -11 10 -17 0 -7 -4 -7 -13 1 -8 6
-17 8 -20 4 -4 -3 -13 0 -22 7 -8 7 -15 8 -15 4 0 -5 9 -15 20 -22 16 -10 20
-10 20 0 0 10 3 9 9 -1 5 -7 14 -11 19 -7 6 4 16 -2 21 -13 13 -24 14 -42 2
-22 -5 8 -17 16 -27 17 -11 2 0 -13 27 -36 42 -36 59 -41 59 -18 0 5 -7 8 -15
4 -12 -4 -13 -2 -6 13 13 24 1 35 -14 14 -11 -15 -12 -14 -10 10 2 15 -1 27
-6 27 -6 0 -7 5 -3 11 4 8 9 7 15 -2 5 -8 9 -10 9 -5 0 5 6 5 13 0 7 -5 4 -1
-6 9 -22 19 -9 24 13 5 8 -7 11 -9 7 -4 -4 5 -1 16 6 24 9 13 9 14 0 8 -25
-14 -13 2 13 19 15 9 23 11 19 4 -6 -8 -4 -10 5 -4 9 5 11 4 6 -4 -5 -7 -2
-10 6 -9 8 2 12 -4 10 -16 -3 -17 -2 -18 12 -7 12 10 16 10 16 2 0 -7 5 -9 12
-5 6 4 8 3 4 -4 -3 -6 3 -13 14 -17 11 -4 18 -11 15 -16 -4 -5 -16 0 -27 11
-26 24 -46 27 -28 5 10 -13 11 -18 1 -28 -10 -9 -11 -9 -6 4 4 10 0 16 -10 16
-9 0 -14 -6 -11 -14 3 -7 -3 -22 -14 -33 -11 -11 -21 -15 -21 -10 -1 6 -2 15
-3 22 0 6 -6 13 -13 15 -12 4 -12 -14 0 -34 5 -7 6 -17 3 -22 -9 -14 5 -42 18
-34 6 3 8 3 4 -2 -4 -4 7 -19 24 -32 18 -12 29 -23 25 -23 -4 0 -40 24 -80 54
-131 98 -339 195 -494 232 -168 40 -232 42 -1048 41 l-790 -2 -2 -1350 c-1
-742 -3 -1360 -3 -1371 l0 -22 -1371 0 -1370 0 4 767 c2 421 7 782 11 801 4
19 14 66 22 104 56 271 203 530 416 731 89 85 107 99 181 148 147 97 345 182
492 211 44 9 94 19 110 22 17 4 368 9 780 10 413 2 760 4 773 4 l22 0 0 321 0
320 -111 -3 c-61 -2 -111 -4 -112 -4z m2435 -752 c3 9 11 8 31 -5 24 -16 28
-16 33 -2 3 8 10 12 15 9 5 -3 -2 -15 -16 -26 -14 -11 -22 -24 -19 -30 5 -7 2
-8 -5 -4 -7 5 -21 0 -33 -11 -12 -10 -18 -13 -15 -7 4 7 0 14 -7 17 -9 4 -14
19 -14 36 1 24 4 28 14 21 8 -8 13 -7 16 2z m157 -129 c-12 -15 -12 -16 4 -10
9 3 17 2 17 -3 0 -11 -23 -14 -33 -4 -3 3 -1 14 6 25 6 10 13 16 16 14 2 -3
-2 -12 -10 -22z m44 2 c-3 -9 -8 -14 -10 -11 -3 3 -2 9 2 15 9 16 15 13 8 -4z
m-48 -44 c-3 -2 -11 2 -19 8 -12 10 -17 8 -26 -8 -11 -22 -30 -28 -30 -10 0 5
5 7 10 4 6 -3 10 0 10 9 0 8 6 16 13 19 13 4 49 -14 42 -22z m60 1 c-3 -3 -11
0 -18 7 -9 10 -8 11 6 5 10 -3 15 -9 12 -12z m-80 -11 c3 -6 -5 -15 -17 -21
-21 -10 -21 -10 -6 3 10 8 15 17 11 20 -3 4 -4 7 0 7 3 0 8 -4 12 -9z m39 -6
c-4 -8 -1 -21 5 -28 8 -10 7 -14 -2 -14 -8 0 -14 7 -14 16 -2 20 5 41 11 41 3
0 3 -7 0 -15z m116 -11 c0 -8 -19 -13 -24 -6 -3 5 1 9 9 9 8 0 15 -2 15 -3z
m-156 -30 c3 -8 2 -12 -4 -9 -6 3 -10 10 -10 16 0 14 7 11 14 -7z m-1325 -60
c5 -5 41 -107 81 -226 l72 -218 348 0 348 0 10 38 c25 92 125 398 132 406 5 5
88 9 184 10 154 1 176 -1 176 -15 0 -8 -86 -269 -190 -580 -105 -310 -255
-754 -333 -986 l-142 -423 -185 0 -185 0 -23 68 c-13 37 -46 132 -74 212 -28
80 -86 249 -130 375 -44 127 -83 239 -87 250 -5 11 -25 70 -46 130 -20 61 -75
220 -122 355 -47 135 -88 256 -93 270 -4 14 -33 96 -63 182 -54 153 -55 157
-34 160 52 7 348 1 356 -8z m1716 -153 c-9 -8 -36 -10 -30 -2 2 4 11 8 20 8 8
0 13 -3 10 -6z m-12 -36 c-3 -9 -8 -14 -10 -11 -3 3 -2 9 2 15 9 16 15 13 8
-4z m47 -5 c0 -5 -4 -10 -10 -10 -5 0 -10 5 -10 10 0 6 5 10 10 10 6 0 10 -4
10 -10z m-30 -35 c0 -2 -6 -5 -13 -8 -8 -3 -14 1 -14 8 0 7 6 11 14 8 7 -3 13
-6 13 -8z m49 -28 c1 -5 -3 -5 -9 -2 -5 3 -10 16 -9 28 0 21 1 21 9 2 5 -11 9
-24 9 -28z m-104 13 c4 -6 -1 -7 -11 -3 -10 4 -15 2 -11 -4 3 -5 0 -10 -8 -10
-11 0 -12 4 -4 14 14 15 26 17 34 3z m133 -21 c-12 -8 -4 -13 14 -10 4 0 12
-8 18 -19 6 -11 8 -20 4 -20 -3 0 -1 -7 6 -15 7 -8 17 -12 23 -8 6 4 7 1 2 -6
-4 -7 2 -22 16 -37 22 -23 21 -36 -4 -40 -16 -2 -39 23 -28 30 5 4 7 15 4 27
-4 16 -8 17 -14 7 -5 -7 -9 -8 -9 -3 0 6 -10 12 -22 12 -19 2 -20 0 -8 -8 12
-9 12 -10 -3 -5 -10 3 -15 2 -12 -3 3 -5 0 -13 -6 -16 -5 -4 -8 -14 -5 -22 3
-8 1 -11 -4 -8 -6 3 -10 4 -10 1 0 -3 9 -10 21 -16 19 -11 20 -10 8 11 -10 19
-9 25 7 36 26 19 33 16 29 -13 -4 -37 -39 -71 -58 -56 -8 7 -18 8 -22 4 -5 -4
-5 -2 -1 5 3 6 -4 19 -16 29 -15 11 -17 14 -5 11 9 -4 17 -2 17 3 0 6 -6 10
-14 10 -8 0 -17 7 -20 16 -3 8 -10 13 -15 10 -5 -3 -15 2 -22 12 -11 14 -11
15 0 5 15 -13 64 3 55 18 -3 5 3 6 13 2 16 -6 16 -5 4 11 -14 17 -16 16 -31
-5 -17 -22 -41 -19 -39 4 0 9 2 9 6 0 2 -7 10 -13 16 -13 5 0 7 3 4 7 -4 3 5
14 20 24 23 16 25 19 10 25 -9 3 -17 10 -17 15 0 5 9 4 20 -3 13 -9 18 -19 14
-32 -4 -12 -2 -16 5 -12 6 4 17 4 24 -1 20 -12 38 -12 34 0 -2 7 -9 13 -15 13
-7 1 -17 2 -24 3 -7 0 -4 7 7 14 12 9 15 19 10 28 -8 12 -6 12 9 0 13 -11 14
-16 4 -22z m-94 -5 c3 -8 2 -13 -3 -9 -5 3 -11 0 -13 -7 -3 -7 -7 -5 -11 6 -4
10 -3 15 3 11 6 -3 10 -1 10 4 0 16 7 13 14 -5z m-39 -25 c-4 -5 -12 -9 -18
-8 -9 0 -8 2 1 6 6 2 9 10 6 15 -4 7 -2 8 5 4 6 -4 9 -12 6 -17z m139 -2921
c-2 -739 -4 -825 -25 -934 -5 -28 -12 -63 -15 -78 -21 -117 -121 -342 -215
-482 -72 -108 -262 -295 -375 -371 -203 -135 -430 -217 -664 -239 -41 -4 -399
-7 -795 -7 l-720 0 0 1424 c0 783 -4 1430 -8 1437 -7 9 277 12 1405 12 l1413
0 -1 -762z m-4853 293 c3 -1 39 -102 80 -226 l74 -225 347 0 346 0 18 53 c10
28 19 57 20 62 2 12 68 219 92 290 l17 49 178 1 c99 0 181 -3 183 -6 2 -4
-105 -328 -237 -720 -383 -1137 -429 -1273 -429 -1276 0 -2 -84 -2 -187 -1
l-186 3 -73 210 c-39 116 -109 316 -154 445 -45 129 -105 305 -135 390 -29 85
-114 331 -189 546 -75 215 -136 394 -136 397 0 3 10 7 23 9 18 2 330 2 348 -1z
m-746 -1540 c-3 -5 -1 -13 5 -16 8 -5 7 -12 -2 -23 -12 -14 -10 -14 10 -3 23
12 23 12 11 -11 -11 -21 -11 -22 4 -9 17 13 18 12 21 -10 0 -7 10 -16 21 -20
l20 -9 -20 2 c-23 3 -45 -9 -45 -24 0 -7 5 -6 15 2 11 9 19 8 37 -4 12 -9 18
-16 12 -16 -5 0 -15 5 -21 11 -12 12 -33 4 -33 -11 0 -5 8 -7 18 -4 16 5 16 5
0 -9 -10 -8 -16 -16 -13 -19 3 -2 -2 -5 -10 -6 -8 -1 -22 -3 -30 -4 -9 -1 -13
-7 -10 -15 16 -39 15 -45 -3 -18 -10 17 -34 43 -51 58 -18 15 -29 31 -26 37 3
6 -1 13 -9 16 -9 3 -16 11 -16 16 0 6 8 4 17 -3 14 -12 15 -12 9 0 -5 8 -3 17
5 23 10 7 8 8 -8 3 -12 -3 -25 -1 -29 6 -5 9 -2 10 9 6 11 -4 22 2 32 15 14
21 14 20 10 -16 -3 -21 -8 -43 -12 -49 -4 -6 -1 -7 8 -2 11 7 11 5 -1 -11 -14
-17 -13 -18 1 -7 9 7 18 11 20 8 3 -2 6 6 6 18 2 17 0 19 -7 7 -6 -9 -10 -10
-10 -3 0 17 30 44 41 38 5 -4 9 -1 9 4 0 6 -5 11 -12 11 -6 0 -3 7 8 15 16 13
16 14 2 9 -11 -4 -18 -1 -18 6 0 6 4 9 9 5 5 -3 12 -1 16 5 3 5 8 10 11 10 3
0 3 -4 -1 -9z m92 -167 c-3 -3 -12 -4 -19 -1 -8 3 -5 6 6 6 11 1 17 -2 13 -5z
m-20 -21 c-9 -2 -14 -9 -11 -15 4 -7 2 -8 -5 -4 -15 10 -4 26 17 25 15 -1 15
-2 -1 -6z m-33 -19 c3 -8 2 -13 -3 -9 -5 3 -11 0 -13 -7 -3 -7 -7 -5 -11 6 -4
10 -3 15 3 11 6 -3 10 -1 10 4 0 16 7 13 14 -5z m161 -13 c3 -5 0 -13 -6 -17
-7 -4 -9 -3 -5 4 3 5 0 13 -6 15 -9 4 -10 6 -1 6 6 1 14 -3 18 -8z m-140 -11
c-3 -5 -1 -10 4 -10 6 0 11 -5 11 -11 0 -8 -5 -8 -15 1 -13 11 -12 30 1 30 3
0 2 -4 -1 -10z m42 -75 c0 -8 -4 -12 -9 -9 -5 3 -6 10 -3 15 9 13 12 11 12 -6z
m320 -179 c0 -8 -3 -15 -6 -14 -18 2 -24 -3 -13 -11 11 -7 11 -9 0 -14 -10 -3
-14 3 -14 18 0 13 3 22 7 19 4 -2 10 0 14 6 8 14 12 13 12 -4z m-100 -41 c0
-8 -4 -15 -9 -15 -10 0 -11 14 -1 23 9 10 10 9 10 -8z m39 -30 c-1 -8 -5 -17
-8 -21 -4 -3 -5 2 -4 13 2 10 -2 25 -8 33 -9 13 -9 13 6 2 9 -7 15 -19 14 -27z
m86 18 c-6 -2 -9 -10 -6 -15 4 -7 2 -8 -5 -4 -13 9 -5 26 12 25 9 0 8 -2 -1
-6z m45 -23 c4 -15 9 -18 18 -10 9 7 19 1 39 -22 15 -18 29 -32 31 -30 3 1 5
-1 5 -5 0 -5 -8 -8 -17 -8 -10 0 -18 5 -18 12 0 6 -3 14 -6 18 -4 3 -5 -8 -4
-24 2 -19 -1 -28 -8 -24 -6 4 -7 1 -2 -7 6 -9 4 -11 -6 -6 -8 4 -7 2 2 -6 9
-7 16 -17 17 -21 0 -5 4 -12 8 -15 4 -4 4 -2 1 4 -4 7 0 14 8 18 8 3 15 2 15
-3 0 -13 -25 -31 -49 -36 -12 -2 -25 -6 -30 -9 -11 -7 -53 39 -44 48 5 5 -3 5
-17 2 -14 -4 -20 -4 -15 1 17 14 15 30 -5 48 -16 15 -22 15 -35 5 -10 -8 -15
-9 -15 -1 0 6 5 11 10 11 7 0 7 7 0 23 -10 20 -10 20 3 5 8 -10 17 -15 20 -11
4 3 7 1 7 -5 0 -6 9 -10 20 -9 11 1 20 4 20 8 0 11 31 20 43 12 20 -12 38 -12
34 0 -2 7 -9 13 -15 13 -7 1 -16 2 -22 3 -5 0 -7 9 -4 19 5 15 4 15 -8 1 -17
-21 -54 -40 -62 -32 -9 10 -7 33 4 33 5 0 7 -7 3 -16 -5 -14 -3 -15 16 -5 12
7 25 19 28 27 8 20 24 17 30 -6z m-132 -40 c3 -6 -1 -7 -9 -4 -18 7 -21 14 -7
14 6 0 13 -4 16 -10z m215 -54 c0 -6 4 -4 10 4 5 8 12 11 17 7 9 -9 -17 -28
-29 -21 -4 3 -8 0 -8 -5 0 -6 -4 -11 -9 -11 -6 0 -9 8 -8 18 1 20 27 27 27 8z"/>
<path d="M5714 6225 c-3 -8 -11 -12 -16 -9 -6 4 -5 -3 2 -15 9 -18 30 -21 30
-5 0 3 -4 2 -10 -1 -5 -3 -10 -2 -10 3 0 6 7 13 16 16 22 9 26 8 18 -6 -4 -7
-3 -8 4 -4 16 10 15 14 -8 26 -16 9 -22 8 -26 -5z"/>
<path d="M4790 5161 c0 -4 34 -114 76 -242 41 -129 91 -283 110 -344 48 -152
44 -144 56 -115 5 14 20 59 33 100 24 76 123 390 168 533 l25 77 -234 0 c-129
0 -234 -4 -234 -9z"/>
<path d="M6278 5641 c10 -6 5 -12 -18 -21 -31 -13 -37 -37 -7 -32 11 2 15 -4
13 -22 -2 -16 5 -32 18 -43 21 -18 21 -18 4 3 -15 17 -16 23 -4 40 8 10 14 22
15 26 5 25 15 37 25 31 21 -14 38 -13 27 1 -6 7 -7 17 -3 21 4 5 0 4 -8 -1
-22 -12 -39 -14 -46 -3 -3 5 -11 9 -17 9 -8 0 -8 -3 1 -9z m14 -35 c-4 -6 -7
-14 -7 -18 0 -3 -4 -10 -9 -15 -5 -4 -6 -3 -2 4 3 6 2 14 -4 18 -14 8 -5 22
14 22 8 0 12 -5 8 -11z"/>
<path d="M6312 5561 c2 -7 7 -12 11 -12 12 1 9 15 -3 20 -7 2 -11 -2 -8 -8z"/>
<path d="M4354 3031 c-2 -2 -4 -77 -4 -167 0 -121 3 -163 13 -166 6 -2 225 -3
485 -3 l472 1 0 -273 0 -273 -435 0 -435 0 0 -168 0 -168 433 0 432 0 3 -222
2 -222 -468 0 -468 0 1 -167 0 -168 643 -3 642 -2 0 1000 c0 550 -3 1000 -7
1001 -26 3 -1305 3 -1309 0z"/>
<path d="M1772 2242 c-21 -2 -32 -8 -29 -15 3 -7 56 -171 118 -365 62 -194
116 -349 119 -345 10 11 230 716 225 721 -4 5 -388 8 -433 4z"/>
<path d="M728 1434 c-4 -3 -14 -7 -24 -8 -13 -2 -18 -12 -19 -32 0 -16 -6 -30
-12 -30 -7 -1 -16 -2 -20 -3 -3 0 4 -12 17 -26 23 -24 61 -28 82 -7 9 9 -15
46 -31 48 -6 1 -17 2 -23 3 -10 1 -10 3 0 10 8 4 13 11 13 15 -1 3 2 6 7 6 4
0 7 -5 7 -12 0 -17 22 -21 31 -6 12 19 14 39 3 32 -5 -3 -9 -13 -9 -22 -1 -16
-1 -15 -11 1 -5 9 -7 22 -4 27 7 11 2 14 -7 4z m-18 -74 c0 -5 -5 -10 -12 -10
-6 0 -8 -3 -5 -6 4 -4 13 -2 20 4 14 12 27 7 27 -9 0 -12 -59 -4 -73 10 -9 9
-8 11 6 6 10 -4 17 -2 17 4 0 6 5 11 10 11 6 0 10 -4 10 -10z"/>
<path d="M1190 880 c0 -5 5 -10 10 -10 6 0 10 5 10 10 0 6 -4 10 -10 10 -5 0
-10 -4 -10 -10z"/>
<path d="M1218 869 c-6 -4 -24 -6 -40 -4 -28 3 -38 -8 -18 -20 6 -4 8 -11 5
-16 -3 -5 1 -6 9 -3 11 4 14 0 11 -14 -2 -11 5 -28 16 -38 19 -17 20 -17 13 2
-7 17 -6 18 11 4 10 -8 16 -10 12 -3 -4 6 -1 13 5 16 10 3 10 7 1 19 -10 11
-10 17 -1 26 27 27 9 51 -24 31z m-13 -19 c9 14 28 1 21 -15 -2 -7 1 -18 7
-24 6 -6 9 -11 7 -12 -3 0 -16 -2 -30 -5 -19 -3 -21 -2 -10 6 13 9 13 10 0 10
-12 1 -11 3 3 11 9 5 17 15 17 22 0 7 -4 6 -10 -3 -8 -13 -12 -12 -27 4 -14
16 -14 17 -1 7 11 -8 18 -9 23 -1z"/>
<path d="M5670 6340 c-9 -6 -10 -10 -3 -10 6 0 15 5 18 10 8 12 4 12 -15 0z"/>
<path d="M5591 6327 c-8 -10 -7 -14 2 -14 8 0 14 6 14 14 0 7 -1 13 -2 13 -2
0 -8 -6 -14 -13z"/>
<path d="M5676 6315 c-16 -12 -17 -15 -4 -15 9 0 18 7 22 15 7 18 6 18 -18 0z"/>
<path d="M5710 6310 c0 -5 5 -10 11 -10 5 0 7 5 4 10 -3 6 -8 10 -11 10 -2 0
-4 -4 -4 -10z"/>
<path d="M5536 6301 c-3 -5 2 -15 12 -22 15 -12 16 -12 5 2 -7 9 -10 19 -6 22
3 4 4 7 0 7 -3 0 -8 -4 -11 -9z"/>
<path d="M5625 6300 c-3 -6 1 -7 9 -4 18 7 21 14 7 14 -6 0 -13 -4 -16 -10z"/>
<path d="M5654 6274 c5 -12 2 -15 -9 -10 -11 4 -14 2 -9 -6 5 -8 1 -9 -12 -4
-14 5 -16 4 -8 -4 16 -16 55 5 48 25 -4 8 -8 15 -11 15 -3 0 -2 -7 1 -16z"/>
<path d="M5690 6280 c0 -5 5 -10 10 -10 6 0 10 5 10 10 0 6 -4 10 -10 10 -5 0
-10 -4 -10 -10z"/>
<path d="M5730 6281 c0 -15 32 -23 44 -11 8 8 6 9 -6 5 -11 -4 -18 -2 -18 4 0
6 -4 11 -10 11 -5 0 -10 -4 -10 -9z"/>
<path d="M5595 6229 c-4 -6 -5 -12 -2 -15 2 -3 7 2 10 11 7 17 1 20 -8 4z"/>
<path d="M5609 6205 c-10 -20 -10 -20 6 0 9 11 18 19 21 17 2 -2 10 -1 17 1 6
3 2 4 -11 4 -13 -1 -28 -11 -33 -22z"/>
<path d="M5645 6200 c-3 -5 -1 -10 4 -10 6 0 11 5 11 10 0 6 -2 10 -4 10 -3 0
-8 -4 -11 -10z"/>
<path d="M5785 6193 c-13 -29 -14 -43 -4 -43 6 0 8 -4 4 -9 -3 -5 -1 -12 5
-16 6 -4 7 -12 3 -18 -4 -7 1 -5 11 3 17 13 17 14 0 20 -16 6 -16 7 2 15 10 4
24 7 29 6 6 -1 2 5 -7 12 -12 9 -14 17 -8 25 6 7 7 10 4 7 -4 -3 -13 0 -19 5
-9 8 -15 5 -20 -7z m15 -13 c-10 -6 -11 -10 -2 -10 6 0 12 -5 12 -11 0 -8 -5
-8 -15 1 -16 13 -11 30 8 30 7 0 6 -4 -3 -10z"/>
<path d="M5736 6142 c-3 -5 1 -9 9 -9 8 0 12 4 9 9 -3 4 -7 8 -9 8 -2 0 -6 -4
-9 -8z"/>
<path d="M1311 5960 c-5 -4 -7 -260 -2 -320 1 -13 61 -15 481 -14 l480 0 1
-30 c1 -38 1 -498 0 -508 -1 -4 -184 -7 -408 -7 -225 0 -420 0 -434 0 l-26 -1
1 -167 1 -168 430 0 c237 0 432 -3 435 -6 3 -4 5 -103 4 -221 l-1 -213 -466
-3 -467 -2 -1 -43 c0 -23 -1 -98 -1 -167 l0 -125 641 -3 c353 -1 641 1 642 5
1 5 2 453 2 996 1 645 -1 991 -8 995 -12 7 -1294 9 -1304 2z"/>
<path d="M6430 5515 c0 -8 4 -15 8 -15 5 0 9 7 9 15 0 8 -4 15 -9 15 -4 0 -8
-7 -8 -15z"/>
<path d="M6335 5490 c3 -5 8 -10 11 -10 2 0 4 5 4 10 0 6 -5 10 -11 10 -5 0
-7 -4 -4 -10z"/>
<path d="M6388 5483 c7 -3 16 -2 19 1 4 3 -2 6 -13 5 -11 0 -14 -3 -6 -6z"/>
<path d="M6473 5475 c0 -8 4 -12 9 -9 5 3 6 10 3 15 -9 13 -12 11 -12 -6z"/>
<path d="M6428 5463 c6 -3 10 -9 6 -14 -8 -14 2 -11 14 4 8 10 6 13 -11 14
-12 0 -16 -1 -9 -4z"/>
<path d="M6355 5440 c-13 -6 -15 -9 -5 -9 8 0 22 4 30 9 18 12 2 12 -25 0z"/>
<path d="M6390 5420 c13 -8 8 -14 -11 -12 -3 1 -6 -6 -6 -14 0 -10 7 -9 24 8
13 12 23 22 23 23 0 0 -10 2 -22 2 -18 2 -20 0 -8 -7z"/>
<path d="M6495 5420 c-3 -5 -1 -10 4 -10 6 0 11 5 11 10 0 6 -2 10 -4 10 -3 0
-8 -4 -11 -10z"/>
<path d="M6445 5380 c-3 -6 1 -7 9 -4 18 7 21 14 7 14 -6 0 -13 -4 -16 -10z"/>
<path d="M535 1620 c-3 -5 -1 -10 4 -10 6 0 11 5 11 10 0 6 -2 10 -4 10 -3 0
-8 -4 -11 -10z"/>
<path d="M609 1603 c-8 -9 -9 -14 -2 -10 6 4 13 1 16 -5 3 -7 4 -3 4 10 -1 26
-1 26 -18 5z"/>
<path d="M490 1580 c0 -5 5 -10 11 -10 5 0 7 5 4 10 -3 6 -8 10 -11 10 -2 0
-4 -4 -4 -10z"/>
<path d="M539 1588 c-5 -16 -4 -46 2 -42 4 2 7 13 6 24 -1 17 -5 26 -8 18z"/>
<path d="M636 1574 c-8 -20 -8 -24 2 -24 4 0 8 9 9 20 2 24 -3 26 -11 4z"/>
<path d="M571 1567 c-8 -10 -7 -14 2 -14 8 0 14 6 14 14 0 7 -1 13 -2 13 -2 0
-8 -6 -14 -13z"/>
<path d="M672 1556 c7 -8 15 -12 17 -11 5 6 -10 25 -20 25 -5 0 -4 -6 3 -14z"/>
<path d="M600 1538 c-12 -8 -12 -9 3 -4 12 4 17 0 17 -14 0 -10 4 -21 9 -24 4
-3 6 6 3 19 -5 31 -14 37 -32 23z"/>
<path d="M555 1530 c-3 -6 1 -7 9 -4 18 7 21 14 7 14 -6 0 -13 -4 -16 -10z"/>
<path d="M558 1492 c4 -10 7 -12 10 -4 2 7 9 9 15 5 7 -3 8 -2 4 2 -14 16 -36
14 -29 -3z"/>
<path d="M535 1480 c3 -5 8 -10 11 -10 2 0 4 5 4 10 0 6 -5 10 -11 10 -5 0 -7
-4 -4 -10z"/>
<path d="M570 1459 c0 -5 -5 -7 -12 -3 -7 4 -8 3 -4 -5 6 -9 11 -9 22 0 17 14
18 19 4 19 -5 0 -10 -5 -10 -11z"/>
<path d="M1401 794 c0 -11 3 -14 6 -6 3 7 2 16 -1 19 -3 4 -6 -2 -5 -13z"/>
<path d="M1350 790 c0 -5 5 -10 10 -10 6 0 10 5 10 10 0 6 -4 10 -10 10 -5 0
-10 -4 -10 -10z"/>
<path d="M1370 758 c0 -4 4 -8 9 -8 6 0 12 4 15 8 3 5 -1 9 -9 9 -8 0 -15 -4
-15 -9z"/>
<path d="M1430 766 c0 -2 7 -7 16 -10 8 -3 12 -2 9 4 -6 10 -25 14 -25 6z"/>
<path d="M1335 741 c-3 -5 0 -13 6 -17 8 -5 9 -3 4 6 -6 10 -4 12 9 7 10 -4
15 -3 11 3 -8 13 -22 13 -30 1z"/>
<path d="M1313 714 c0 -17 2 -22 7 -13 5 6 6 18 3 26 -8 19 -10 16 -10 -13z"/>
<path d="M1336 702 c-2 -4 -1 -14 3 -21 6 -9 11 -10 15 -2 4 6 2 11 -4 11 -6
0 -8 5 -5 10 3 6 4 10 1 10 -3 0 -7 -4 -10 -8z"/>
<path d="M1450 699 c0 -5 5 -7 10 -4 6 3 10 8 10 11 0 2 -4 4 -10 4 -5 0 -10
-5 -10 -11z"/>
<path d="M1327 659 c7 -7 15 -10 18 -7 3 3 -2 9 -12 12 -14 6 -15 5 -6 -5z"/>
<path d="M1410 659 c0 -5 5 -7 10 -4 6 3 10 8 10 11 0 2 -4 4 -10 4 -5 0 -10
-5 -10 -11z"/>
<path d="M1360 640 c-9 -6 -10 -10 -3 -10 6 0 15 5 18 10 8 12 4 12 -15 0z"/>
</g>
</svg>
