<?xml version="1.0" encoding="UTF-8" standalone="no"?>
<!DOCTYPE svg PUBLIC "-//W3C//DTD SVG 1.1//EN" "http://www.w3.org/Graphics/SVG/1.1/DTD/svg11.dtd">
<svg width="100%" height="100%" viewBox="0 0 50 50" version="1.1" xmlns="http://www.w3.org/2000/svg" xmlns:xlink="http://www.w3.org/1999/xlink" xml:space="preserve" xmlns:serif="http://www.serif.com/" style="fill-rule:evenodd;clip-rule:evenodd;stroke-linejoin:round;stroke-miterlimit:2;">
    <g transform="matrix(0.574927,-0.574927,0.653001,0.653001,-17.8709,36.6977)">
        <path d="M45.386,12.257C45.386,12.113 45.322,11.975 45.206,11.874C45.091,11.772 44.934,11.715 44.771,11.715C42.745,11.715 36.294,11.715 34.268,11.715C34.104,11.715 33.948,11.772 33.833,11.874C33.717,11.975 33.653,12.113 33.653,12.257C33.653,16.559 33.653,45.156 33.653,49.459C33.653,49.602 33.717,49.74 33.833,49.841C33.948,49.943 34.104,50 34.268,50C36.294,50 42.745,50 44.771,50C44.934,50 45.091,49.943 45.206,49.841C45.322,49.74 45.386,49.602 45.386,49.459C45.386,45.156 45.386,16.559 45.386,12.257Z" style="fill:white;"/>
    </g>
    <g transform="matrix(-0.574927,-0.574927,0.653001,-0.653001,27.5707,58.7439)">
        <path d="M45.386,12.257C45.386,12.113 45.322,11.975 45.206,11.874C45.091,11.772 44.934,11.715 44.771,11.715C42.745,11.715 36.294,11.715 34.268,11.715C34.104,11.715 33.948,11.772 33.833,11.874C33.717,11.975 33.653,12.113 33.653,12.257C33.653,16.559 33.653,45.156 33.653,49.459C33.653,49.602 33.717,49.74 33.833,49.841C33.948,49.943 34.104,50 34.268,50C36.294,50 42.745,50 44.771,50C44.934,50 45.091,49.943 45.206,49.841C45.322,49.74 45.386,49.602 45.386,49.459C45.386,45.156 45.386,16.559 45.386,12.257Z" style="fill:white;"/>
    </g>
</svg>
